SolenneNova.ufo
<glyph name="exclam" format="2">
  <advance width="366"/>
  <unicode hex="0021"/>
  <outline>
    <contour>
      <point x="119.5" y="0" type="curve" smooth="yes"/>
      <point x="34.6318" y="0"/>
      <point x="3.23082" y="121.43"/>
      <point x="71" y="157.5" type="curve" smooth="yes"/>
      <point x="109.92" y="178.215"/>
      <point x="111.293" y="177.982"/>
      <point x="150" y="142.501" type="curve" smooth="yes"/>
      <point x="211.047" y="86.5424"/>
      <point x="200.526" y="0"/>
    </contour>
    <contour>
      <point x="120.999" y="624" type="curve" smooth="yes"/>
      <point x="114.259" y="851.84"/>
      <point x="127.741" y="1153.84"/>
      <point x="147.497" y="1184.5" type="curve" smooth="yes"/>
      <point x="197.814" y="1262.58"/>
      <point x="309.004" y="1212.39"/>
      <point x="319.997" y="1197" type="curve" smooth="yes"/>
      <point x="343.105" y="1166.19"/>
      <point x="338.478" y="1107.65"/>
      <point x="253.998" y="698" type="curve" smooth="yes"/>
      <point x="218.665" y="526.667"/>
      <point x="197.165" y="416"/>
      <point x="189.498" y="366" type="curve" smooth="yes"/>
      <point x="175.044" y="271.74"/>
      <point x="160.668" y="235"/>
      <point x="133.498" y="235" type="curve" smooth="yes"/>
      <point x="107.505" y="235"/>
      <point x="102.885" y="270.099"/>
      <point x="115.998" y="375" type="curve" smooth="yes"/>
      <point x="122.665" y="428.333"/>
      <point x="124.332" y="511.333"/>
    </contour>
  </outline>
</glyph>
<glyph name="quotedbl" format="2">
  <advance width="488"/>
  <unicode hex="0022"/>
  <outline>
    <contour>
      <point x="155.999" y="1189" type="curve" smooth="yes"/>
      <point x="172.649" y="1252.27"/>
      <point x="257.998" y="1243.27"/>
      <point x="257.998" y="1201" type="curve" smooth="yes"/>
      <point x="257.998" y="1143.67"/>
      <point x="194.665" y="1062.33"/>
      <point x="67.998" y="957" type="curve" smooth="yes"/>
      <point x="41.8392" y="934.113"/>
      <point x="34.7738" y="966.267"/>
      <point x="34.998" y="967.5" type="curve" smooth="yes"/>
      <point x="37.9755" y="983.87"/>
      <point x="58.9435" y="976.047"/>
      <point x="109.999" y="1070.5" type="curve" smooth="yes"/>
      <point x="129.999" y="1107.5"/>
      <point x="145.332" y="1147"/>
    </contour>
    <contour>
      <point x="245.997" y="985.998" type="curve" smooth="yes"/>
      <point x="353.952" y="1093.95"/>
      <point x="315.445" y="1203.04"/>
      <point x="386.497" y="1232.5" type="curve" smooth="yes"/>
      <point x="400.164" y="1238.17"/>
      <point x="408.497" y="1241"/>
      <point x="411.497" y="1241" type="curve" smooth="yes"/>
      <point x="412.585" y="1241"/>
      <point x="488.606" y="1233.51"/>
      <point x="430.998" y="1134" type="curve" smooth="yes"/>
      <point x="415.415" y="1107.08"/>
      <point x="400.853" y="1086.85"/>
      <point x="387.311" y="1073.31" type="curve" smooth="yes"/>
      <point x="345.291" y="1031.29"/>
      <point x="330.137" y="1007.61"/>
      <point x="290.997" y="975.998" type="curve" smooth="yes"/>
      <point x="249.83" y="942.748"/>
      <point x="230.163" y="937.581"/>
      <point x="231.996" y="960.498" type="curve" smooth="yes"/>
      <point x="232.663" y="968.831"/>
      <point x="237.33" y="977.331"/>
    </contour>
  </outline>
</glyph>
<glyph name="numbersign" format="2">
  <advance width="863"/>
  <unicode hex="0023"/>
  <outline>
    <contour>
      <point x="498.001" y="362.498" type="curve" smooth="yes"/>
      <point x="550.34" y="375.584"/>
      <point x="642.468" y="555.799"/>
      <point x="523" y="545.498" type="curve" smooth="yes"/>
      <point x="491.209" y="542.757"/>
      <point x="477.715" y="528.979"/>
      <point x="447.001" y="442.496" type="curve" smooth="yes"/>
      <point x="424.251" y="378.437"/>
      <point x="426.853" y="369.283"/>
      <point x="456.001" y="361.997" type="curve" smooth="yes"/>
      <point x="469.334" y="358.664"/>
      <point x="483.334" y="358.831"/>
    </contour>
    <contour>
      <point x="554.999" y="677.998" type="curve" smooth="yes"/>
      <point x="554.999" y="661.052"/>
      <point x="559.888" y="653.998"/>
      <point x="582.999" y="653.998" type="curve" smooth="yes"/>
      <point x="683.85" y="653.998"/>
      <point x="714.315" y="870.24"/>
      <point x="749.5" y="919.498" type="curve" smooth="yes"/>
      <point x="754.5" y="926.498"/>
      <point x="765.333" y="929.998"/>
      <point x="782" y="929.998" type="curve" smooth="yes"/>
      <point x="814.026" y="929.998"/>
      <point x="816.803" y="918.888"/>
      <point x="788.5" y="819.498" type="curve" smooth="yes"/>
      <point x="749.084" y="681.082"/>
      <point x="750.204" y="650.45"/>
      <point x="796" y="639.498" type="curve" smooth="yes"/>
      <point x="824.578" y="632.663"/>
      <point x="828" y="628.192"/>
      <point x="828" y="600.999" type="curve" smooth="yes"/>
      <point x="828" y="566.332"/>
      <point x="802.333" y="548.999"/>
      <point x="751" y="548.999" type="curve" smooth="yes"/>
      <point x="683.044" y="548.999"/>
      <point x="617.753" y="377.682"/>
      <point x="628.999" y="358" type="curve" smooth="yes"/>
      <point x="644.809" y="330.331"/>
      <point x="746.376" y="343.081"/>
      <point x="748" y="296.002" type="curve" smooth="yes"/>
      <point x="753.107" y="227.037"/>
      <point x="617.479" y="254.568"/>
      <point x="591.001" y="240.501" type="curve" smooth="yes"/>
      <point x="546.212" y="216.706"/>
      <point x="462.843" y="-24.999"/>
      <point x="418.003" y="-24.999" type="curve" smooth="yes"/>
      <point x="365.873" y="-24.999"/>
      <point x="405.111" y="67.645"/>
      <point x="433.003" y="133.501" type="curve" smooth="yes"/>
      <point x="462.807" y="203.871"/>
      <point x="467.003" y="217.705"/>
      <point x="467.003" y="234" type="curve" smooth="yes"/>
      <point x="467.003" y="252.079"/>
      <point x="462.47" y="254.994"/>
      <point x="419.002" y="258.5" type="curve" smooth="yes"/>
      <point x="375.043" y="262.046"/>
      <point x="353.688" y="239.417"/>
      <point x="323.002" y="167" type="curve" smooth="yes"/>
      <point x="271.002" y="39.667"/>
      <point x="230.669" y="-23.666"/>
      <point x="202.002" y="-22.999" type="curve" smooth="yes"/>
      <point x="150.792" y="-17.3063"/>
      <point x="190.546" y="67.8834"/>
      <point x="209.501" y="108.501" type="curve" smooth="yes"/>
      <point x="262.909" y="222.949"/>
      <point x="271.415" y="241.178"/>
      <point x="237.001" y="251.502" type="curve" smooth="yes"/>
      <point x="227.001" y="254.502"/>
      <point x="218.834" y="256.002"/>
      <point x="212.501" y="256.002" type="curve" smooth="yes"/>
      <point x="49.436" y="256.002"/>
      <point x="48.9835" y="257.489"/>
      <point x="40.001" y="287" type="curve"/>
      <point x="24.7026" y="317.595"/>
      <point x="39.2463" y="359.127"/>
      <point x="60.502" y="367.5" type="curve" smooth="yes"/>
      <point x="82.3863" y="376.12"/>
      <point x="210.736" y="375.213"/>
      <point x="260.502" y="363.999" type="curve" smooth="yes"/>
      <point x="308.023" y="353.291"/>
      <point x="328.603" y="373.4"/>
      <point x="361.502" y="465" type="curve" smooth="yes"/>
      <point x="378.502" y="512.333"/>
      <point x="382.835" y="539.666"/>
      <point x="374.502" y="546.999" type="curve" smooth="yes"/>
      <point x="352.445" y="566.409"/>
      <point x="184.073" y="538.192"/>
      <point x="165.002" y="558.998" type="curve" smooth="yes"/>
      <point x="123.423" y="609.964"/>
      <point x="164.469" y="679.067"/>
      <point x="238.502" y="667.997" type="curve" smooth="yes"/>
      <point x="442.57" y="637.484"/>
      <point x="455.572" y="655.096"/>
      <point x="513.999" y="814.999" type="curve" smooth="yes"/>
      <point x="526.666" y="849.666"/>
      <point x="532.999" y="870.833"/>
      <point x="532.999" y="878.5" type="curve" smooth="yes"/>
      <point x="532.999" y="894.02"/>
      <point x="551.309" y="940.079"/>
      <point x="560.999" y="946.999" type="curve" smooth="yes"/>
      <point x="566.85" y="951.177"/>
      <point x="610.205" y="960.253"/>
      <point x="609.499" y="914.999" type="curve" smooth="yes"/>
      <point x="608.532" y="853.074"/>
      <point x="554.999" y="728.579"/>
    </contour>
  </outline>
</glyph>
<glyph name="dollar" format="2">
  <advance width="880"/>
  <unicode hex="0024"/>
  <outline>
    <contour>
      <point x="389.499" y="83" type="curve" smooth="yes"/>
      <point x="526.63" y="177.573"/>
      <point x="513.268" y="424.183"/>
      <point x="499.5" y="449.5" type="curve" smooth="yes"/>
      <point x="482.228" y="481.259"/>
      <point x="471.977" y="479.514"/>
      <point x="432.999" y="400" type="curve" smooth="yes"/>
      <point x="398.351" y="329.319"/>
      <point x="328.213" y="100.646"/>
      <point x="334.999" y="83" type="curve" smooth="yes"/>
      <point x="342.332" y="63"/>
      <point x="360.499" y="63"/>
    </contour>
    <contour>
      <point x="567.999" y="994" type="curve" smooth="yes"/>
      <point x="567.999" y="1025.29"/>
      <point x="508.353" y="996.421"/>
      <point x="468.998" y="924.999" type="curve" smooth="yes"/>
      <point x="468.998" y="921.11"/>
      <point x="440.083" y="875.484"/>
      <point x="446.498" y="822.999" type="curve" smooth="yes"/>
      <point x="450.165" y="792.999"/>
      <point x="457.332" y="778.666"/>
      <point x="467.999" y="779.999" type="curve" smooth="yes"/>
      <point x="482.425" y="779.999"/>
      <point x="492.124" y="794.911"/>
      <point x="530.499" y="886.5" type="curve" smooth="yes"/>
      <point x="555.499" y="946.167"/>
      <point x="567.999" y="982"/>
    </contour>
    <contour>
      <point x="323.498" y="982.999" type="curve" smooth="yes"/>
      <point x="420.729" y="1091.18"/>
      <point x="546.656" y="1101.1"/>
      <point x="602.997" y="1133.5" type="curve" smooth="yes"/>
      <point x="634.451" y="1151.59"/>
      <point x="616.965" y="1124.64"/>
      <point x="663.997" y="1116.5" type="curve" smooth="yes"/>
      <point x="697.901" y="1110.63"/>
      <point x="799.708" y="1020.75"/>
      <point x="831.497" y="960.001" type="curve" smooth="yes"/>
      <point x="866.103" y="893.865"/>
      <point x="839.003" y="775.328"/>
      <point x="796.997" y="822.001" type="curve" smooth="yes"/>
      <point x="778.716" y="842.569"/>
      <point x="753.258" y="996.106"/>
      <point x="690.497" y="989.001" type="curve" smooth="yes"/>
      <point x="659.296" y="985.469"/>
      <point x="650.715" y="975.399"/>
      <point x="622.997" y="901.001" type="curve" smooth="yes"/>
      <point x="610.33" y="867.001"/>
      <point x="593.997" y="825.001"/>
      <point x="573.997" y="775.001" type="curve" smooth="yes"/>
      <point x="536.218" y="680.552"/>
      <point x="538.881" y="670.357"/>
      <point x="606.998" y="597.001" type="curve" smooth="yes"/>
      <point x="870.008" y="315.395"/>
      <point x="589.506" y="38.1124"/>
      <point x="416.498" y="-2.99805" type="curve" smooth="yes"/>
      <point x="284.268" y="-34.4187"/>
      <point x="284.268" y="-34.4187"/>
      <point x="280.997" y="-38.999" type="curve" smooth="yes"/>
      <point x="199.856" y="-233.48"/>
      <point x="184.89" y="-214.234"/>
      <point x="166.497" y="-189.5" type="curve" smooth="yes"/>
      <point x="149.371" y="-166.47"/>
      <point x="151.015" y="-157.485"/>
      <point x="191.496" y="-67" type="curve" smooth="yes"/>
      <point x="204.638" y="-37.625"/>
      <point x="187.138" y="-8.625"/>
      <point x="138.996" y="20" type="curve" smooth="yes"/>
      <point x="69.6631" y="60"/>
      <point x="34.9961" y="124.667"/>
      <point x="34.9961" y="214" type="curve" smooth="yes"/>
      <point x="34.9961" y="332.602"/>
      <point x="112.122" y="448.079"/>
      <point x="178.997" y="423" type="curve" smooth="yes"/>
      <point x="196.476" y="416.278"/>
      <point x="197.929" y="377.313"/>
      <point x="179.996" y="358.002" type="curve" smooth="yes"/>
      <point x="65.4882" y="228.649"/>
      <point x="149.761" y="97.9072"/>
      <point x="202.496" y="93.999" type="curve" smooth="yes"/>
      <point x="236.264" y="91.4964"/>
      <point x="270.251" y="181.723"/>
      <point x="301.901" y="270.505" type="curve" smooth="yes"/>
      <point x="302.852" y="273.172"/>
      <point x="396.739" y="523.241"/>
      <point x="398.996" y="536.5" type="curve" smooth="yes"/>
      <point x="404.7" y="570.008"/>
      <point x="391.733" y="590.591"/>
      <point x="348.998" y="625.999" type="curve" smooth="yes"/>
      <point x="323.079" y="648.715"/>
      <point x="161.501" y="802.763"/>
    </contour>
  </outline>
</glyph>
<glyph name="percent" format="2">
  <advance width="811"/>
  <unicode hex="0025"/>
  <outline>
    <contour>
      <point x="672.499" y="232.499" type="curve" smooth="yes"/>
      <point x="713.223" y="429.184"/>
      <point x="583.145" y="492.241"/>
      <point x="513.999" y="271.998" type="curve" smooth="yes"/>
      <point x="425.141" y="-14.1785"/>
      <point x="485.481" y="-46.8906"/>
      <point x="579.999" y="48.998" type="curve" smooth="yes"/>
      <point x="625.999" y="95.665"/>
      <point x="656.832" y="156.832"/>
    </contour>
    <contour>
      <point x="595" y="490.998" type="curve" smooth="yes"/>
      <point x="635.864" y="504.181"/>
      <point x="706.013" y="467.056"/>
      <point x="738.499" y="408.996" type="curve" smooth="yes"/>
      <point x="770.308" y="352.148"/>
      <point x="741.144" y="146.912"/>
      <point x="688.999" y="73.4961" type="curve" smooth="yes"/>
      <point x="529.736" y="-150.734"/>
      <point x="376.853" y="-48.1055"/>
      <point x="343.999" y="36.4951" type="curve" smooth="yes"/>
      <point x="294.502" y="163.949"/>
      <point x="381.293" y="355.215"/>
      <point x="468" y="425.997" type="curve" smooth="yes"/>
      <point x="500.667" y="452.664"/>
      <point x="543" y="474.331"/>
    </contour>
    <contour>
      <point x="412.497" y="755.996" type="curve" smooth="yes"/>
      <point x="446.731" y="824.922"/>
      <point x="704.321" y="1309.85"/>
      <point x="707.996" y="1315" type="curve" smooth="yes"/>
      <point x="721.649" y="1334.11"/>
      <point x="767.133" y="1338.84"/>
      <point x="773.996" y="1321" type="curve" smooth="yes"/>
      <point x="781.099" y="1302.53"/>
      <point x="583.13" y="908.767"/>
      <point x="523.996" y="813.496" type="curve" smooth="yes"/>
      <point x="443.754" y="684.217"/>
      <point x="102.92" y="-11.5017"/>
      <point x="76.4414" y="-32.6611" type="curve" smooth="yes"/>
      <point x="55.6736" y="-49.2573"/>
      <point x="37.6886" y="-40.2826"/>
      <point x="34.9961" y="-12.0039" type="curve" smooth="yes"/>
      <point x="32.1172" y="18.2322"/>
      <point x="279.372" y="525.531"/>
      <point x="312.497" y="570.996" type="curve" smooth="yes"/>
      <point x="329.497" y="594.329"/>
      <point x="362.83" y="655.996"/>
    </contour>
    <contour>
      <point x="382.495" y="1051" type="curve" smooth="yes"/>
      <point x="427.215" y="1232.95"/>
      <point x="345.512" y="1320.62"/>
      <point x="286.995" y="1225" type="curve" smooth="yes"/>
      <point x="285.057" y="1221.84"/>
      <point x="154.907" y="967.043"/>
      <point x="202.996" y="863.997" type="curve" smooth="yes"/>
      <point x="216.329" y="833.997"/>
      <point x="243.67" y="833.62"/>
      <point x="285.019" y="862.866" type="curve" smooth="yes"/>
      <point x="326.367" y="892.112"/>
      <point x="358.859" y="954.822"/>
    </contour>
    <contour>
      <point x="114.995" y="1174" type="curve" smooth="yes"/>
      <point x="175.823" y="1276.73"/>
      <point x="195.752" y="1294.5"/>
      <point x="276.997" y="1322" type="curve" smooth="yes"/>
      <point x="344.296" y="1344.78"/>
      <point x="411.069" y="1344.93"/>
      <point x="452.995" y="1263.5" type="curve" smooth="yes"/>
      <point x="489.836" y="1191.94"/>
      <point x="460.925" y="991.136"/>
      <point x="416.495" y="905.497" type="curve" smooth="yes"/>
      <point x="370.863" y="817.54"/>
      <point x="236.375" y="753.265"/>
      <point x="151.995" y="791.997" type="curve" smooth="yes"/>
      <point x="33.2355" y="846.706"/>
      <point x="16.1872" y="1006.16"/>
    </contour>
  </outline>
</glyph>
<glyph name="ampersand" format="2">
  <advance width="1124"/>
  <unicode hex="0026"/>
  <outline>
    <contour>
      <point x="283" y="961.001" type="curve" smooth="yes"/>
      <point x="271.372" y="1216.85"/>
      <point x="616.273" y="1307.5"/>
      <point x="758.997" y="1195" type="curve" smooth="yes"/>
      <point x="879.824" y="1099.76"/>
      <point x="850.96" y="923.173"/>
      <point x="843.498" y="901.499" type="curve" smooth="yes"/>
      <point x="833.986" y="873.87"/>
      <point x="755.92" y="759.715"/>
      <point x="695.498" y="760.499" type="curve" smooth="yes"/>
      <point x="647.887" y="761.117"/>
      <point x="647.581" y="799.096"/>
      <point x="694.582" y="874.435" type="curve" smooth="yes"/>
      <point x="852.585" y="1127.7"/>
      <point x="538.679" y="1287.49"/>
      <point x="460.998" y="1031.5" type="curve" smooth="yes"/>
      <point x="430.94" y="932.449"/>
      <point x="506.147" y="803.15"/>
      <point x="603.999" y="775.001" type="curve" smooth="yes"/>
      <point x="662.906" y="758.172"/>
      <point x="648.97" y="683.77"/>
      <point x="582.999" y="671.002" type="curve" smooth="yes"/>
      <point x="182.404" y="598.552"/>
      <point x="142.953" y="218.404"/>
      <point x="389.498" y="88.001" type="curve" smooth="yes"/>
      <point x="537.564" y="9.68558"/>
      <point x="735.172" y="126.986"/>
      <point x="753.498" y="345.502" type="curve" smooth="yes"/>
      <point x="771.299" y="557.765"/>
      <point x="600.496" y="301.004"/>
      <point x="562.998" y="346.003" type="curve" smooth="yes"/>
      <point x="521.568" y="395.724"/>
      <point x="673.661" y="509.387"/>
      <point x="740.997" y="542.003" type="curve" smooth="yes"/>
      <point x="833.664" y="586.003"/>
      <point x="889.331" y="616.503"/>
      <point x="907.998" y="633.503" type="curve" smooth="yes"/>
      <point x="926.665" y="650.503"/>
      <point x="938.165" y="659.003"/>
      <point x="942.498" y="659.003" type="curve" smooth="yes"/>
      <point x="944.206" y="659.003"/>
      <point x="1067.69" y="774.356"/>
      <point x="952.048" y="829.546" type="curve" smooth="yes"/>
      <point x="896.089" y="856.253"/>
      <point x="884.072" y="881.405"/>
      <point x="915.997" y="905.002" type="curve" smooth="yes"/>
      <point x="1003.89" y="967.374"/>
      <point x="1198.92" y="771.29"/>
      <point x="1006.5" y="583.502" type="curve" smooth="yes"/>
      <point x="936.511" y="515.202"/>
      <point x="846.131" y="501.132"/>
      <point x="841.999" y="481.503" type="curve" smooth="yes"/>
      <point x="834.319" y="445.014"/>
      <point x="853.884" y="337.073"/>
      <point x="812" y="221.502" type="curve" smooth="yes"/>
      <point x="799.762" y="187.734"/>
      <point x="682.043" y="-108.084"/>
      <point x="342" y="-21.998" type="curve"/>
      <point x="73.0962" y="53.6311"/>
      <point x="-32.7581" y="268.851"/>
      <point x="73.8447" y="472.882" type="curve" smooth="yes"/>
      <point x="127.626" y="575.815"/>
      <point x="233.011" y="657.522"/>
      <point x="390" y="718.002" type="curve" smooth="yes"/>
      <point x="426" y="732.002"/>
      <point x="418" y="757.669"/>
      <point x="366" y="795.002" type="curve" smooth="yes"/>
      <point x="314" y="832.335"/>
      <point x="286.333" y="887.668"/>
    </contour>
  </outline>
</glyph>
<glyph name="quotesingle" format="2">
  <advance width="288"/>
  <unicode hex="0027"/>
  <outline>
    <contour>
      <point x="196" y="1230" type="curve"/>
      <point x="227.456" y="1230"/>
      <point x="295.741" y="1230"/>
      <point x="214.001" y="1108" type="curve" smooth="yes"/>
      <point x="199.485" y="1085.57"/>
      <point x="65.4599" y="949.275"/>
      <point x="50.502" y="945.001" type="curve" smooth="yes"/>
      <point x="37.4826" y="941.281"/>
      <point x="26.9389" y="958.017"/>
      <point x="43.001" y="977.001" type="curve" smooth="yes"/>
      <point x="174.851" y="1131.17"/>
      <point x="116.198" y="1203.4"/>
    </contour>
  </outline>
</glyph>
<glyph name="parenleft" format="2">
  <advance width="776"/>
  <unicode hex="0028"/>
  <outline>
    <contour>
      <point x="446" y="1148" type="curve" smooth="yes"/>
      <point x="526.826" y="1191.52"/>
      <point x="514.92" y="1208.47"/>
      <point x="629" y="1249" type="curve" smooth="yes"/>
      <point x="679.667" y="1267"/>
      <point x="712.167" y="1271.17"/>
      <point x="726.5" y="1261.5" type="curve" smooth="yes"/>
      <point x="756.321" y="1241.39"/>
      <point x="734.686" y="1211.66"/>
      <point x="689" y="1196" type="curve" smooth="yes"/>
      <point x="528.147" y="1144.82"/>
      <point x="394.721" y="978.615"/>
      <point x="274.5" y="586.999" type="curve" smooth="yes"/>
      <point x="229.576" y="440.66"/>
      <point x="115.827" y="-5.93352"/>
      <point x="322" y="-224.001" type="curve" smooth="yes"/>
      <point x="353.333" y="-257.334"/>
      <point x="365" y="-281.001"/>
      <point x="357" y="-295.001" type="curve" smooth="yes"/>
      <point x="348.54" y="-309.806"/>
      <point x="325.207" y="-304.473"/>
      <point x="287" y="-279.001" type="curve" smooth="yes"/>
      <point x="-64.7677" y="-52.2038"/>
      <point x="-33.0122" y="593.984"/>
      <point x="282" y="999" type="curve" smooth="yes"/>
      <point x="338" y="1071"/>
      <point x="392.667" y="1120.67"/>
    </contour>
  </outline>
</glyph>
<glyph name="parenright" format="2">
  <advance width="828"/>
  <unicode hex="0029"/>
  <outline>
    <contour>
      <point x="494" y="1277" type="curve" smooth="yes"/>
      <point x="504.801" y="1284.56"/>
      <point x="519.499" y="1282.62"/>
      <point x="538.099" y="1271.17" type="curve" smooth="yes"/>
      <point x="556.698" y="1259.72"/>
      <point x="579.331" y="1246.33"/>
      <point x="605.998" y="1231" type="curve" smooth="yes"/>
      <point x="868.184" y="1079.94"/>
      <point x="899.669" y="292.468"/>
      <point x="398.998" y="-137.499" type="curve" smooth="yes"/>
      <point x="222.181" y="-289.346"/>
      <point x="58.3166" y="-301.999"/>
      <point x="54.499" y="-301.999" type="curve" smooth="yes"/>
      <point x="38.7911" y="-301.999"/>
      <point x="24.8988" y="-271.647"/>
      <point x="44.499" y="-253.499" type="curve" smooth="yes"/>
      <point x="80.2119" y="-220.433"/>
      <point x="194.024" y="-243.702"/>
      <point x="343" y="-17" type="curve" smooth="yes"/>
      <point x="359.667" y="9.66699"/>
      <point x="379" y="38.667"/>
      <point x="401" y="70" type="curve" smooth="yes"/>
      <point x="424.721" y="103.783"/>
      <point x="510.87" y="269.94"/>
      <point x="593.5" y="594.5" type="curve" smooth="yes"/>
      <point x="595.009" y="600.426"/>
      <point x="708.13" y="1057.33"/>
      <point x="524" y="1202" type="curve" smooth="yes"/>
      <point x="481.333" y="1235.33"/>
      <point x="471.333" y="1260.33"/>
    </contour>
  </outline>
</glyph>
<glyph name="asterisk" format="2">
  <advance width="540"/>
  <unicode hex="002A"/>
  <outline>
    <contour>
      <point x="254" y="1038.5" type="curve" smooth="yes"/>
      <point x="254" y="1078.45"/>
      <point x="194.681" y="1203.88"/>
      <point x="247" y="1223.5" type="curve" smooth="yes"/>
      <point x="349.601" y="1261.98"/>
      <point x="281.018" y="1052.99"/>
      <point x="298.999" y="1044" type="curve" smooth="yes"/>
      <point x="304.332" y="1041.33"/>
      <point x="311.999" y="1045"/>
      <point x="321.999" y="1055" type="curve" smooth="yes"/>
      <point x="340.954" y="1073.95"/>
      <point x="450.949" y="1154"/>
      <point x="463.999" y="1154" type="curve" smooth="yes"/>
      <point x="500.526" y="1154"/>
      <point x="520.054" y="1094.1"/>
      <point x="490.499" y="1071.5" type="curve" smooth="yes"/>
      <point x="460.011" y="1048.19"/>
      <point x="332.671" y="1018.36"/>
      <point x="330.853" y="1006.55" type="curve" smooth="yes"/>
      <point x="328.985" y="994.412"/>
      <point x="460.313" y="959.476"/>
      <point x="484.497" y="943.998" type="curve" smooth="yes"/>
      <point x="511.519" y="926.704"/>
      <point x="495.429" y="863.998"/>
      <point x="462.999" y="863.998" type="curve" smooth="yes"/>
      <point x="427.919" y="863.998"/>
      <point x="316.485" y="980.79"/>
      <point x="300.687" y="973.908" type="curve" smooth="yes"/>
      <point x="279.386" y="964.63"/>
      <point x="376.815" y="802.915"/>
      <point x="288.001" y="793.497" type="curve" smooth="yes"/>
      <point x="240.899" y="788.502"/>
      <point x="234.061" y="808.881"/>
      <point x="250.501" y="898.998" type="curve" smooth="yes"/>
      <point x="259.501" y="948.331"/>
      <point x="261.168" y="974.498"/>
      <point x="255.501" y="977.498" type="curve" smooth="yes"/>
      <point x="236.523" y="987.545"/>
      <point x="93.4771" y="841.234"/>
      <point x="50.001" y="886.998" type="curve" smooth="yes"/>
      <point x="31.6336" y="906.777"/>
      <point x="31.0495" y="941.784"/>
      <point x="44.001" y="951.497" type="curve" smooth="yes"/>
      <point x="90.2217" y="986.162"/>
      <point x="217.001" y="1001.5"/>
      <point x="217.001" y="1012" type="curve" smooth="yes"/>
      <point x="217.001" y="1021.32"/>
      <point x="212.066" y="1010.23"/>
      <point x="121.501" y="1045" type="curve" smooth="yes"/>
      <point x="58.7557" y="1069.08"/>
      <point x="53.6937" y="1076"/>
      <point x="59.001" y="1108.5" type="curve" smooth="yes"/>
      <point x="68.7383" y="1168.13"/>
      <point x="109.126" y="1142.98"/>
      <point x="109.5" y="1142.5" type="curve" smooth="yes"/>
      <point x="115.641" y="1134.6"/>
      <point x="168.918" y="1101.45"/>
      <point x="178.5" y="1091" type="curve" smooth="yes"/>
      <point x="184.798" y="1084.13"/>
      <point x="249.014" y="1025.75"/>
      <point x="252" y="1026.5" type="curve" smooth="yes"/>
      <point x="253.333" y="1026.83"/>
      <point x="254" y="1030.83"/>
    </contour>
  </outline>
</glyph>
<glyph name="plus" format="2">
  <advance width="767"/>
  <unicode hex="002B"/>
  <outline>
    <contour>
      <point x="271" y="-174" type="curve" smooth="yes"/>
      <point x="228.873" y="-174"/>
      <point x="231.95" y="-143.69"/>
      <point x="281.266" y="2.29395" type="curve" smooth="yes"/>
      <point x="329.718" y="145.723"/>
      <point x="329.518" y="164.081"/>
      <point x="298.501" y="172" type="curve" smooth="yes"/>
      <point x="251.596" y="183.975"/>
      <point x="64.9218" y="179.322"/>
      <point x="47" y="195.75" type="curve" smooth="yes"/>
      <point x="39" y="203.083"/>
      <point x="35" y="212.833"/>
      <point x="35" y="225" type="curve" smooth="yes"/>
      <point x="35" y="249"/>
      <point x="56.5" y="259.833"/>
      <point x="99.5" y="257.5" type="curve" smooth="yes"/>
      <point x="189.579" y="252.613"/>
      <point x="356.512" y="268.849"/>
      <point x="366.5" y="281.5" type="curve" smooth="yes"/>
      <point x="380.514" y="299.25"/>
      <point x="481.791" y="610.966"/>
      <point x="502.129" y="635.824" type="curve" smooth="yes"/>
      <point x="518.505" y="655.84"/>
      <point x="550.974" y="638.361"/>
      <point x="547.501" y="608.502" type="curve" smooth="yes"/>
      <point x="543.033" y="570.088"/>
      <point x="468.593" y="357.366"/>
      <point x="460" y="301.503" type="curve" smooth="yes"/>
      <point x="454.687" y="266.966"/>
      <point x="463.887" y="255.018"/>
      <point x="537.001" y="260.003" type="curve" smooth="yes"/>
      <point x="687.781" y="270.283"/>
      <point x="732" y="268.413"/>
      <point x="732" y="225.001" type="curve" smooth="yes"/>
      <point x="732" y="190.382"/>
      <point x="726.373" y="186.667"/>
      <point x="581" y="184" type="curve" smooth="yes"/>
      <point x="432.297" y="181.272"/>
      <point x="417.716" y="176.321"/>
      <point x="397.5" y="136.501" type="curve" smooth="yes"/>
      <point x="346.193" y="35.4411"/>
      <point x="323.164" y="-174"/>
    </contour>
  </outline>
</glyph>
<glyph name="comma" format="2">
  <advance width="262"/>
  <unicode hex="002C"/>
  <outline>
    <contour>
      <point x="114" y="-153.002" type="curve" smooth="yes"/>
      <point x="17.5159" y="-144.489"/>
      <point x="7.74785" y="9.44223"/>
      <point x="101.498" y="45.498" type="curve" smooth="yes"/>
      <point x="214.299" y="88.8805"/>
      <point x="295.515" y="-73.9522"/>
      <point x="145.998" y="-208.002" type="curve" smooth="yes"/>
      <point x="128.665" y="-224.002"/>
      <point x="117.165" y="-229.169"/>
      <point x="111.498" y="-223.502" type="curve" smooth="yes"/>
      <point x="88.6002" y="-200.604"/>
      <point x="172.708" y="-156.67"/>
    </contour>
  </outline>
</glyph>
<glyph name="hyphen" format="2">
  <advance width="828"/>
  <unicode hex="002D"/>
  <outline>
    <contour>
      <point x="59" y="252" type="curve" smooth="yes"/>
      <point x="33.5266" y="252"/>
      <point x="23.6008" y="293.999"/>
      <point x="49.5029" y="311.5" type="curve" smooth="yes"/>
      <point x="74.7808" y="328.579"/>
      <point x="780.979" y="326.663"/>
      <point x="788.001" y="307" type="curve" smooth="yes"/>
      <point x="795.334" y="286.333"/>
      <point x="792.937" y="270.103"/>
      <point x="780.808" y="258.308" type="curve" smooth="yes"/>
      <point x="768.679" y="246.513"/>
      <point x="528.076" y="244.41"/>
    </contour>
  </outline>
</glyph>
<glyph name="period" format="2">
  <advance width="236"/>
  <unicode hex="002E"/>
  <outline>
    <contour>
      <point x="154.499" y="-111.497" type="curve" smooth="yes"/>
      <point x="44.4601" y="-173.302"/>
      <point x="-23.4037" y="20.3145"/>
      <point x="107.999" y="50.5029" type="curve" smooth="yes"/>
      <point x="192.852" y="69.997"/>
      <point x="239.523" y="-63.7419"/>
    </contour>
  </outline>
</glyph>
<glyph name="slash" format="2">
  <advance width="950"/>
  <unicode hex="002F"/>
  <outline>
    <contour>
      <point x="785.5" y="1404" type="curve" smooth="yes"/>
      <point x="845.634" y="1519.55"/>
      <point x="870.409" y="1567.16"/>
      <point x="905.001" y="1536.5" type="curve" smooth="yes"/>
      <point x="919.668" y="1523.5"/>
      <point x="920.001" y="1503.67"/>
      <point x="906.001" y="1477" type="curve"/>
      <point x="906.001" y="1460.88"/>
      <point x="288.048" y="363.232"/>
      <point x="138.665" y="59.4824" type="curve" smooth="yes"/>
      <point x="111.431" y="4.10618"/>
      <point x="77.954" y="-43.957"/>
      <point x="51.9121" y="-17.915" type="curve" smooth="yes"/>
      <point x="32.9374" y="1.05968"/>
      <point x="30.0314" y="12.0497"/>
      <point x="46.5" y="39.498" type="curve" smooth="yes"/>
      <point x="69.055" y="77.0907"/>
      <point x="86.5539" y="134.757"/>
      <point x="132.5" y="206.498" type="curve" smooth="yes"/>
      <point x="182.015" y="283.812"/>
      <point x="205.326" y="352.019"/>
      <point x="273" y="465.998" type="curve" smooth="yes"/>
      <point x="339.596" y="578.162"/>
      <point x="397.42" y="713.062"/>
      <point x="431.5" y="761.998" type="curve" smooth="yes"/>
      <point x="468.453" y="815.059"/>
      <point x="542.267" y="978.35"/>
      <point x="589.5" y="1040.5" type="curve" smooth="yes"/>
      <point x="635.153" y="1100.57"/>
      <point x="691.72" y="1240.7"/>
      <point x="737" y="1316.5" type="curve" smooth="yes"/>
      <point x="752.333" y="1342.17"/>
      <point x="768.5" y="1371.33"/>
    </contour>
  </outline>
</glyph>
<glyph name="zero" format="2">
  <advance width="915"/>
  <unicode hex="0030"/>
  <outline>
    <contour>
      <point x="794.5" y="648.999" type="curve" smooth="yes"/>
      <point x="874.516" y="1121.28"/>
      <point x="659.831" y="1266.61"/>
      <point x="482.999" y="1113" type="curve" smooth="yes"/>
      <point x="447.307" y="1081.99"/>
      <point x="264.325" y="902.223"/>
      <point x="205.999" y="432.499" type="curve" smooth="yes"/>
      <point x="168.762" y="132.613"/>
      <point x="340.41" y="40.3155"/>
      <point x="388.499" y="36.999" type="curve" smooth="yes"/>
      <point x="500.77" y="29.2562"/>
      <point x="722.473" y="223.871"/>
    </contour>
    <contour>
      <point x="549.999" y="1242" type="curve" smooth="yes"/>
      <point x="642.958" y="1263.25"/>
      <point x="755.491" y="1216.63"/>
      <point x="814.002" y="1127.5" type="curve" smooth="yes"/>
      <point x="871.72" y="1039.58"/>
      <point x="881.267" y="996.862"/>
      <point x="880.002" y="801.5" type="curve" smooth="yes"/>
      <point x="878.236" y="528.734"/>
      <point x="723.536" y="-18.9276"/>
      <point x="387.931" y="-24.9746" type="curve" smooth="yes"/>
      <point x="119.483" y="-29.8116"/>
      <point x="-61.8166" y="294.543"/>
      <point x="87" y="741" type="curve" smooth="yes"/>
      <point x="182.279" y="1029.45"/>
      <point x="327.414" y="1193.14"/>
    </contour>
  </outline>
</glyph>
<glyph name="one" format="2">
  <advance width="645"/>
  <unicode hex="0031"/>
  <outline>
    <contour>
      <point x="103" y="893.5" type="curve" smooth="yes"/>
      <point x="103" y="930.466"/>
      <point x="438.419" y="1236.45"/>
      <point x="496.498" y="1274" type="curve" smooth="yes"/>
      <point x="561.573" y="1316.06"/>
      <point x="631.629" y="1269.74"/>
      <point x="599.498" y="1181" type="curve" smooth="yes"/>
      <point x="595.686" y="1170.47"/>
      <point x="267.634" y="146.058"/>
      <point x="260" y="113.997" type="curve" smooth="yes"/>
      <point x="243.333" y="37.9971"/>
      <point x="200.666" y="-0.00292969"/>
      <point x="131.999" y="-0.00292969" type="curve" smooth="yes"/>
      <point x="43.1047" y="-0.00292969"/>
      <point x="5.62518" y="26.0426"/>
      <point x="60.5" y="115.498" type="curve" smooth="yes"/>
      <point x="110.103" y="196.36"/>
      <point x="161.781" y="358.629"/>
      <point x="231.499" y="586" type="curve" smooth="yes"/>
      <point x="268.499" y="706.667"/>
      <point x="300.332" y="807.167"/>
      <point x="326.999" y="887.5" type="curve" smooth="yes"/>
      <point x="374.303" y="1030"/>
      <point x="367.572" y="1030"/>
      <point x="351.999" y="1030" type="curve" smooth="yes"/>
      <point x="338.519" y="1030"/>
      <point x="263.631" y="972.222"/>
      <point x="195.999" y="909.999" type="curve" smooth="yes"/>
      <point x="104.401" y="825.271"/>
      <point x="103" y="870.462"/>
    </contour>
  </outline>
</glyph>
<glyph name="two" format="2">
  <advance width="933"/>
  <unicode hex="0032"/>
  <outline>
    <contour>
      <point x="214" y="746" type="curve" smooth="yes"/>
      <point x="157.23" y="814.724"/>
      <point x="113.005" y="1220.11"/>
      <point x="497.497" y="1284.5" type="curve" smooth="yes"/>
      <point x="697.844" y="1318.05"/>
      <point x="897.998" y="1184.39"/>
      <point x="897.998" y="957.001" type="curve" smooth="yes"/>
      <point x="897.998" y="816.564"/>
      <point x="821.331" y="682.564"/>
      <point x="667.998" y="555.001" type="curve" smooth="yes"/>
      <point x="590.665" y="489.668"/>
      <point x="548.332" y="453.335"/>
      <point x="540.999" y="446.002" type="curve"/>
      <point x="510.999" y="424.002" type="line" smooth="yes"/>
      <point x="450.999" y="380.002"/>
      <point x="416.999" y="354.669"/>
      <point x="408.999" y="348.002" type="curve" smooth="yes"/>
      <point x="391.999" y="336.002" type="line"/>
      <point x="253.332" y="235.854"/>
      <point x="183.999" y="174.854"/>
      <point x="183.999" y="153.002" type="curve" smooth="yes"/>
      <point x="183.999" y="133.418"/>
      <point x="192.526" y="135.077"/>
      <point x="253.856" y="147.002" type="curve" smooth="yes"/>
      <point x="274.428" y="151.002"/>
      <point x="304.928" y="153.002"/>
      <point x="345.356" y="153.002" type="curve" smooth="yes"/>
      <point x="498.79" y="153.002"/>
      <point x="529.687" y="58.7951"/>
      <point x="636.999" y="138.003" type="curve" smooth="yes"/>
      <point x="664.999" y="158.67"/>
      <point x="681.666" y="163.003"/>
      <point x="686.999" y="151.003" type="curve" smooth="yes"/>
      <point x="688.332" y="147.003"/>
      <point x="688.999" y="137.17"/>
      <point x="688.999" y="121.503" type="curve" smooth="yes"/>
      <point x="688.999" y="47.689"/>
      <point x="508.016" y="-44.5063"/>
      <point x="378.999" y="20.001" type="curve" smooth="yes"/>
      <point x="312.791" y="51.7252"/>
      <point x="167.743" y="55.3742"/>
      <point x="116.999" y="30.001" type="curve" smooth="yes"/>
      <point x="62.999" y="2.66797"/>
      <point x="35.666" y="7.33496"/>
      <point x="34.999" y="44.002" type="curve" smooth="yes"/>
      <point x="31.3263" y="168.909"/>
      <point x="249.928" y="325.46"/>
      <point x="299" y="359.002" type="curve" smooth="yes"/>
      <point x="377.872" y="412.914"/>
      <point x="694.535" y="692.88"/>
      <point x="709.501" y="984.002" type="curve" smooth="yes"/>
      <point x="711.06" y="1014.34"/>
      <point x="714.079" y="1215"/>
      <point x="521.001" y="1215" type="curve" smooth="yes"/>
      <point x="326.757" y="1215"/>
      <point x="211.345" y="981.082"/>
      <point x="260.501" y="850.001" type="curve" smooth="yes"/>
      <point x="291.102" y="768.399"/>
      <point x="294.454" y="729.147"/>
      <point x="258.001" y="725.501" type="curve" smooth="yes"/>
      <point x="241.334" y="723.834"/>
      <point x="226.667" y="730.667"/>
    </contour>
  </outline>
</glyph>
<glyph name="three" format="2">
  <advance width="863"/>
  <unicode hex="0033"/>
  <outline>
    <contour>
      <point x="203.501" y="891.001" type="curve" smooth="yes"/>
      <point x="203.781" y="895.302"/>
      <point x="247.394" y="1184.38"/>
      <point x="455.002" y="1241" type="curve" smooth="yes"/>
      <point x="530.998" y="1261.73"/>
      <point x="678.654" y="1277.35"/>
      <point x="780.315" y="1132.33" type="curve" smooth="yes"/>
      <point x="826.779" y="1066.05"/>
      <point x="838.675" y="988.277"/>
      <point x="816.002" y="899.002" type="curve"/>
      <point x="735.172" y="638.944"/>
      <point x="520.4" y="713.937"/>
      <point x="636.503" y="583.502" type="curve" smooth="yes"/>
      <point x="690.032" y="523.365"/>
      <point x="747.74" y="326.589"/>
      <point x="593.763" y="131.892" type="curve" smooth="yes"/>
      <point x="514.98" y="32.2754"/>
      <point x="418.227" y="-19.8535"/>
      <point x="303.501" y="-24.4951" type="curve" smooth="yes"/>
      <point x="168.875" y="-29.9424"/>
      <point x="83.375" y="31.5576"/>
      <point x="47.001" y="160.005" type="curve" smooth="yes"/>
      <point x="5.41115" y="306.871"/>
      <point x="81.4135" y="421.044"/>
      <point x="119.001" y="428.004" type="curve" smooth="yes"/>
      <point x="146.18" y="432.081"/>
      <point x="147.847" y="396.081"/>
      <point x="124.002" y="320.004" type="curve" smooth="yes"/>
      <point x="81.415" y="184.13"/>
      <point x="143.001" y="114.337"/>
      <point x="183.002" y="75.0029" type="curve" smooth="yes"/>
      <point x="383.595" y="-123.085"/>
      <point x="667.291" y="500.009"/>
      <point x="444.702" y="603.874" type="curve" smooth="yes"/>
      <point x="388.162" y="630.257"/>
      <point x="396.929" y="661.967"/>
      <point x="471.001" y="699.003" type="curve" smooth="yes"/>
      <point x="581.949" y="754.475"/>
      <point x="690.478" y="980.328"/>
      <point x="627.001" y="1099" type="curve"/>
      <point x="588.334" y="1181"/>
      <point x="525.334" y="1199.34"/>
      <point x="438.001" y="1154" type="curve" smooth="yes"/>
      <point x="365.921" y="1117.23"/>
      <point x="283.027" y="980.726"/>
      <point x="271.001" y="923.003" type="curve" smooth="yes"/>
      <point x="252.122" y="832.389"/>
      <point x="218.661" y="853.905"/>
      <point x="215.001" y="857.002" type="curve" smooth="yes"/>
      <point x="206.334" y="864.335"/>
      <point x="202.501" y="875.668"/>
    </contour>
  </outline>
</glyph>
<glyph name="four" format="2">
  <advance width="941"/>
  <unicode hex="0034"/>
  <outline>
    <contour>
      <point x="663" y="1012" type="curve" smooth="yes"/>
      <point x="663" y="1023.33"/>
      <point x="659.504" y="1029"/>
      <point x="652.504" y="1029" type="curve" smooth="yes"/>
      <point x="640.947" y="1029"/>
      <point x="490.112" y="884.965"/>
      <point x="340.503" y="706.498" type="curve" smooth="yes"/>
      <point x="274.836" y="628.165"/>
      <point x="235.169" y="582.165"/>
      <point x="221.502" y="568.498" type="curve" smooth="yes"/>
      <point x="190.372" y="537.368"/>
      <point x="180.43" y="502.683"/>
      <point x="186" y="495.998" type="curve" smooth="yes"/>
      <point x="190.428" y="490.684"/>
      <point x="457.209" y="472.402"/>
      <point x="510.016" y="490.005" type="curve" smooth="yes"/>
      <point x="527.546" y="495.849"/>
      <point x="542.207" y="521.514"/>
      <point x="554" y="567" type="curve" smooth="yes"/>
      <point x="560" y="590" type="line"/>
      <point x="628.667" y="825.429"/>
      <point x="663" y="966.096"/>
    </contour>
    <contour>
      <point x="812.001" y="1285.49" type="curve" smooth="yes"/>
      <point x="848.009" y="1304.19"/>
      <point x="906.001" y="1270.91"/>
      <point x="906.001" y="1235.99" type="curve" smooth="yes"/>
      <point x="906.001" y="1181.31"/>
      <point x="843.945" y="1024.06"/>
      <point x="801.002" y="848.493" type="curve" smooth="yes"/>
      <point x="770.35" y="723.178"/>
      <point x="717.027" y="548.503"/>
      <point x="712.002" y="512.493" type="curve" smooth="yes"/>
      <point x="706.222" y="471.07"/>
      <point x="768.894" y="439.848"/>
      <point x="725.507" y="416.682" type="curve" smooth="yes"/>
      <point x="691.179" y="398.352"/>
      <point x="686.625" y="391.22"/>
      <point x="642.503" y="219.995" type="curve" smooth="yes"/>
      <point x="589.363" y="13.778"/>
      <point x="526.008" y="-16.7214"/>
      <point x="443.003" y="6.99512" type="curve" smooth="yes"/>
      <point x="394.079" y="20.9743"/>
      <point x="389.176" y="41.3991"/>
      <point x="414.503" y="117.995" type="curve" smooth="yes"/>
      <point x="471.031" y="288.957"/>
      <point x="498.198" y="380.29"/>
      <point x="496.004" y="391.994" type="curve" smooth="yes"/>
      <point x="493.517" y="406.917"/>
      <point x="489.438" y="408.674"/>
      <point x="261.004" y="409.995" type="curve" smooth="yes"/>
      <point x="145.671" y="410.662"/>
      <point x="77.0039" y="415.329"/>
      <point x="55.0039" y="423.996" type="curve" smooth="yes"/>
      <point x="25.5605" y="435.595"/>
      <point x="34.8936" y="466.595"/>
      <point x="83.0039" y="516.996" type="curve" smooth="yes"/>
      <point x="164.839" y="602.729"/>
      <point x="229.131" y="673.828"/>
      <point x="275.88" y="730.296" type="curve" smooth="yes"/>
      <point x="412.036" y="894.758"/>
      <point x="760.209" y="1258.6"/>
    </contour>
  </outline>
</glyph>
<glyph name="five" format="2">
  <advance width="872"/>
  <unicode hex="0035"/>
  <outline>
    <contour>
      <point x="426" y="1245" type="curve" smooth="yes"/>
      <point x="483.859" y="1265.66"/>
      <point x="777.45" y="1256.32"/>
      <point x="809.001" y="1233" type="curve" smooth="yes"/>
      <point x="871.907" y="1185.43"/>
      <point x="816.268" y="1136.45"/>
      <point x="776.501" y="1128.5" type="curve" smooth="yes"/>
      <point x="710.163" y="1115.23"/>
      <point x="516.571" y="1124.8"/>
      <point x="470.001" y="1111" type="curve" smooth="yes"/>
      <point x="438.04" y="1101.53"/>
      <point x="434.613" y="1095.01"/>
      <point x="380.501" y="938.999" type="curve" smooth="yes"/>
      <point x="354.834" y="864.999"/>
      <point x="343.001" y="817.999"/>
      <point x="345.001" y="797.999" type="curve" smooth="yes"/>
      <point x="347.001" y="783.332"/>
      <point x="359.001" y="777.332"/>
      <point x="381.001" y="779.999" type="curve" smooth="yes"/>
      <point x="383.668" y="779.999"/>
      <point x="399.668" y="782.332"/>
      <point x="429.001" y="786.999" type="curve" smooth="yes"/>
      <point x="614.63" y="816.531"/>
      <point x="873.012" y="627.911"/>
      <point x="719.499" y="261.998" type="curve" smooth="yes"/>
      <point x="665.606" y="133.54"/>
      <point x="553.77" y="36.0314"/>
      <point x="472.5" y="3.99805" type="curve" smooth="yes"/>
      <point x="372.298" y="-35.4972"/>
      <point x="214.551" y="-30.1618"/>
      <point x="172.499" y="-7.00195" type="curve" smooth="yes"/>
      <point x="126.583" y="18.2856"/>
      <point x="64.8188" y="87.6539"/>
      <point x="46.999" y="136.999" type="curve"/>
      <point x="8.90688" y="275.08"/>
      <point x="76.1324" y="442.998"/>
      <point x="137" y="442.998" type="curve" smooth="yes"/>
      <point x="236.159" y="442.998"/>
      <point x="3.76532" y="246.837"/>
      <point x="168.5" y="88.498" type="curve" smooth="yes"/>
      <point x="310.179" y="-47.6797"/>
      <point x="496.262" y="111.189"/>
      <point x="558" y="352.999" type="curve" smooth="yes"/>
      <point x="596.3" y="502.289"/>
      <point x="620.878" y="743.607"/>
      <point x="367" y="712.999" type="curve" smooth="yes"/>
      <point x="246.828" y="698.796"/>
      <point x="239.441" y="697.923"/>
      <point x="235.501" y="725.5" type="curve" smooth="yes"/>
      <point x="229.985" y="764.103"/>
      <point x="327.473" y="1017.37"/>
      <point x="348" y="1120" type="curve" smooth="yes"/>
      <point x="363.333" y="1191.33"/>
      <point x="389.333" y="1233"/>
    </contour>
  </outline>
</glyph>
<glyph name="six" format="2">
  <advance width="802"/>
  <unicode hex="0036"/>
  <outline>
    <contour>
      <point x="611" y="456.001" type="curve" smooth="yes"/>
      <point x="611" y="584.701"/>
      <point x="526.929" y="637.519"/>
      <point x="463.999" y="622.502" type="curve" smooth="yes"/>
      <point x="400.178" y="607.272"/>
      <point x="263.384" y="512.268"/>
      <point x="241.498" y="481.002" type="curve" smooth="yes"/>
      <point x="205.558" y="429.659"/>
      <point x="179.901" y="193.598"/>
      <point x="267.997" y="80.502" type="curve" smooth="yes"/>
      <point x="308.6" y="28.3763"/>
      <point x="359.857" y="15.8206"/>
      <point x="454.999" y="105.502" type="curve" smooth="yes"/>
      <point x="495.666" y="143.835"/>
      <point x="526.333" y="183.668"/>
      <point x="547" y="225.001" type="curve" smooth="yes"/>
      <point x="589.667" y="311.668"/>
      <point x="611" y="388.668"/>
    </contour>
    <contour>
      <point x="125.998" y="822.502" type="curve" smooth="yes"/>
      <point x="306.123" y="1275.5"/>
      <point x="596.879" y="1276.24"/>
      <point x="694.995" y="1226.5" type="curve" smooth="yes"/>
      <point x="742.995" y="1202.17"/>
      <point x="766.995" y="1160"/>
      <point x="766.995" y="1100" type="curve" smooth="yes"/>
      <point x="766.995" y="1008.88"/>
      <point x="732.964" y="1003.72"/>
      <point x="720.995" y="1048" type="curve"/>
      <point x="712.995" y="1082" type="line" smooth="yes"/>
      <point x="706.691" y="1108.8"/>
      <point x="671.997" y="1184"/>
      <point x="608.997" y="1184" type="curve" smooth="yes"/>
      <point x="405.378" y="1184"/>
      <point x="247.58" y="612.042"/>
      <point x="254.391" y="595.016" type="curve" smooth="yes"/>
      <point x="271.387" y="552.526"/>
      <point x="415.894" y="778.794"/>
      <point x="590.997" y="663" type="curve" smooth="yes"/>
      <point x="657.067" y="618.953"/>
      <point x="674.997" y="577.611"/>
      <point x="674.997" y="459" type="curve" smooth="yes"/>
      <point x="674.997" y="264.061"/>
      <point x="567.737" y="61.7346"/>
      <point x="423.997" y="-1.99805" type="curve"/>
      <point x="166.457" y="-104.256"/>
      <point x="8.51619" y="164.342"/>
      <point x="38.998" y="460.003" type="curve" smooth="yes"/>
      <point x="52.3311" y="589.336"/>
      <point x="81.3311" y="710.169"/>
    </contour>
  </outline>
</glyph>
<glyph name="seven" format="2">
  <advance width="776"/>
  <unicode hex="0037"/>
  <outline>
    <contour>
      <point x="741" y="1252" type="curve" smooth="yes"/>
      <point x="741" y="1232.76"/>
      <point x="724.565" y="1184.72"/>
      <point x="679.507" y="1136.5" type="curve" smooth="yes"/>
      <point x="663.475" y="1119.34"/>
      <point x="466.594" y="867.258"/>
      <point x="454.518" y="791.35" type="curve" smooth="yes"/>
      <point x="442.048" y="712.971"/>
      <point x="546.844" y="732.961"/>
      <point x="543.008" y="684.998" type="curve" smooth="yes"/>
      <point x="536.159" y="627.922"/>
      <point x="431.811" y="662.059"/>
      <point x="396.008" y="640.997" type="curve" smooth="yes"/>
      <point x="336.659" y="606.083"/>
      <point x="255.594" y="178.004"/>
      <point x="206.507" y="71.4971" type="curve" smooth="yes"/>
      <point x="149.312" y="-52.6033"/>
      <point x="46.1484" y="19.4981"/>
      <point x="39.0068" y="31.9961" type="curve" smooth="yes"/>
      <point x="18.2684" y="63.1028"/>
      <point x="72.3242" y="277.202"/>
      <point x="165.505" y="499.996" type="curve" smooth="yes"/>
      <point x="209.838" y="605.996"/>
      <point x="210.338" y="660.663"/>
      <point x="167.005" y="663.996" type="curve" smooth="yes"/>
      <point x="137.811" y="665.943"/>
      <point x="109.333" y="637.048"/>
      <point x="87.0049" y="652.998" type="curve" smooth="yes"/>
      <point x="22.5708" y="694.303"/>
      <point x="141.554" y="717.59"/>
      <point x="174.312" y="723.05" type="curve" smooth="yes"/>
      <point x="331.213" y="749.2"/>
      <point x="340.627" y="761.95"/>
      <point x="382.61" y="851.166" type="curve" smooth="yes"/>
      <point x="432.761" y="957.737"/>
      <point x="548.089" y="1053.65"/>
      <point x="538.503" y="1092" type="curve" smooth="yes"/>
      <point x="535.632" y="1103.48"/>
      <point x="520.799" y="1111.98"/>
      <point x="494.003" y="1117.5" type="curve" smooth="yes"/>
      <point x="457.003" y="1125.25" type="line" smooth="yes"/>
      <point x="241.472" y="1170.4"/>
      <point x="204.207" y="1178.2"/>
      <point x="137.003" y="1111" type="curve" smooth="yes"/>
      <point x="88.0733" y="1062.07"/>
      <point x="82.3958" y="1061.04"/>
      <point x="64.0029" y="1082.5" type="curve" smooth="yes"/>
      <point x="35.8586" y="1115.34"/>
      <point x="115.278" y="1235.85"/>
      <point x="263.502" y="1284.5" type="curve" smooth="yes"/>
      <point x="357.024" y="1315.2"/>
      <point x="545.375" y="1226.65"/>
      <point x="605.002" y="1225.5" type="curve" smooth="yes"/>
      <point x="648.192" y="1224.67"/>
      <point x="699.921" y="1271"/>
      <point x="726.889" y="1271" type="curve" smooth="yes"/>
      <point x="736.296" y="1271"/>
      <point x="741" y="1264.67"/>
    </contour>
  </outline>
</glyph>
<glyph name="eight" format="2">
  <advance width="889"/>
  <unicode hex="0038"/>
  <outline>
    <contour>
      <point x="423" y="194.001" type="curve" smooth="yes"/>
      <point x="500.282" y="352.983"/>
      <point x="393.109" y="586.702"/>
      <point x="356.002" y="592.501" type="curve" smooth="yes"/>
      <point x="299.329" y="601.358"/>
      <point x="-19.2457" y="337.184"/>
      <point x="165.001" y="93.001" type="curve" smooth="yes"/>
      <point x="236.881" y="-2.83871"/>
      <point x="346.929" y="37.7827"/>
    </contour>
    <contour>
      <point x="775.003" y="1041" type="curve" smooth="yes"/>
      <point x="775.003" y="1088.69"/>
      <point x="746.034" y="1153.11"/>
      <point x="713.003" y="1171" type="curve" smooth="yes"/>
      <point x="630.951" y="1220.23"/>
      <point x="506.302" y="1202.22"/>
      <point x="469.503" y="1015.5" type="curve" smooth="yes"/>
      <point x="454.77" y="940.745"/>
      <point x="492.339" y="789.555"/>
      <point x="523.571" y="779.145" type="curve" smooth="yes"/>
      <point x="534.705" y="775.434"/>
      <point x="548.061" y="778.481"/>
      <point x="563.638" y="788.289" type="curve" smooth="yes"/>
      <point x="704.548" y="877.011"/>
      <point x="775.003" y="961.248"/>
    </contour>
    <contour>
      <point x="310.003" y="762.002" type="curve" smooth="yes"/>
      <point x="147.471" y="1226.37"/>
      <point x="595.793" y="1307.43"/>
      <point x="732.5" y="1245.5" type="curve" smooth="yes"/>
      <point x="762.29" y="1232.01"/>
      <point x="911.05" y="1125.06"/>
      <point x="830.5" y="947.501" type="curve" smooth="yes"/>
      <point x="799.5" y="879.168"/>
      <point x="744.333" y="820.001"/>
      <point x="665" y="770.001" type="curve" smooth="yes"/>
      <point x="581.894" y="718.858"/>
      <point x="552.521" y="693.182"/>
      <point x="558.002" y="674.001" type="curve" smooth="yes"/>
      <point x="658.839" y="403.337"/>
      <point x="709.029" y="190.074"/>
      <point x="501.001" y="45.0039" type="curve" smooth="yes"/>
      <point x="328.796" y="-75.0847"/>
      <point x="149.235" y="-31.2183"/>
      <point x="81.002" y="86.0039" type="curve" smooth="yes"/>
      <point x="-59.0122" y="323.42"/>
      <point x="148.636" y="568.966"/>
      <point x="261.003" y="624.003" type="curve" smooth="yes"/>
      <point x="327.924" y="656.78"/>
      <point x="336.501" y="683.77"/>
    </contour>
  </outline>
</glyph>
<glyph name="nine" format="2">
  <advance width="793"/>
  <unicode hex="0039"/>
  <outline>
    <contour>
      <point x="530.5" y="718" type="curve" smooth="yes"/>
      <point x="635.156" y="821.478"/>
      <point x="603.367" y="1180.84"/>
      <point x="465.001" y="1183.5" type="curve" smooth="yes"/>
      <point x="381.699" y="1185.1"/>
      <point x="224.001" y="1010.9"/>
      <point x="224.001" y="782.5" type="curve" smooth="yes"/>
      <point x="224.001" y="714.971"/>
      <point x="270.341" y="619.709"/>
      <point x="324.001" y="607" type="curve" smooth="yes"/>
      <point x="359.714" y="597.384"/>
      <point x="470.993" y="659.163"/>
    </contour>
    <contour>
      <point x="156.502" y="776.5" type="curve" smooth="yes"/>
      <point x="154.887" y="1098.1"/>
      <point x="415.467" y="1362.08"/>
      <point x="616.499" y="1214.5" type="curve" smooth="yes"/>
      <point x="901.016" y="1005.64"/>
      <point x="724.834" y="183.971"/>
      <point x="366" y="-5.99902" type="curve" smooth="yes"/>
      <point x="337.775" y="-21.3941"/>
      <point x="217.332" y="-33.6115"/>
      <point x="152.499" y="-21.499" type="curve" smooth="yes"/>
      <point x="91.0528" y="-10.0193"/>
      <point x="16.5394" y="93.5007"/>
      <point x="36.501" y="146.501" type="curve" smooth="yes"/>
      <point x="53.0531" y="190.449"/>
      <point x="85.1092" y="158.786"/>
      <point x="112.002" y="105.001" type="curve" smooth="yes"/>
      <point x="214.455" y="-99.9043"/>
      <point x="402.382" y="100.713"/>
      <point x="512.502" y="490.5" type="curve" smooth="yes"/>
      <point x="533.502" y="564.833"/>
      <point x="541.002" y="606.5"/>
      <point x="535.002" y="615.5" type="curve" smooth="yes"/>
      <point x="513.787" y="647.322"/>
      <point x="321.313" y="436.267"/>
      <point x="200.002" y="614" type="curve" smooth="yes"/>
      <point x="171.335" y="656"/>
      <point x="156.835" y="710.167"/>
    </contour>
  </outline>
</glyph>
<glyph name="colon" format="2">
  <advance width="253"/>
  <unicode hex="003A"/>
  <outline>
    <contour>
      <point x="117.5" y="192" type="curve" smooth="yes"/>
      <point x="16.4006" y="192"/>
      <point x="20.1757" y="301.591"/>
      <point x="61.001" y="328.499" type="curve" smooth="yes"/>
      <point x="93.4847" y="349.909"/>
      <point x="153.288" y="338.52"/>
      <point x="170" y="323" type="curve" smooth="yes"/>
      <point x="222.377" y="270.623"/>
      <point x="176.908" y="192"/>
    </contour>
    <contour>
      <point x="49.5" y="585.499" type="curve" smooth="yes"/>
      <point x="49.7655" y="586.72"/>
      <point x="85.3101" y="679.055"/>
      <point x="167.001" y="627.998" type="curve" smooth="yes"/>
      <point x="228.334" y="590.665"/>
      <point x="234.334" y="549.332"/>
      <point x="185.001" y="503.999" type="curve" smooth="yes"/>
      <point x="130.659" y="453.947"/>
      <point x="72.9814" y="479.113"/>
      <point x="58.5" y="531.999" type="curve" smooth="yes"/>
      <point x="50.833" y="559.999"/>
      <point x="47.833" y="577.832"/>
    </contour>
  </outline>
</glyph>
<glyph name="semicolon" format="2">
  <advance width="262"/>
  <unicode hex="003B"/>
  <outline>
    <contour>
      <point x="103" y="157" type="curve" smooth="yes"/>
      <point x="103" y="193.736"/>
      <point x="37.8768" y="238.739"/>
      <point x="36" y="265" type="curve" smooth="yes"/>
      <point x="25.596" y="413.239"/>
      <point x="214" y="361.142"/>
      <point x="214" y="307.501" type="curve" smooth="yes"/>
      <point x="214" y="290.072"/>
      <point x="179.139" y="152.058"/>
      <point x="132.522" y="133.41" type="curve" smooth="yes"/>
      <point x="112.841" y="125.537"/>
      <point x="103" y="133.4"/>
    </contour>
    <contour>
      <point x="106.002" y="481.001" type="curve" smooth="yes"/>
      <point x="33.6946" y="533.588"/>
      <point x="75.6769" y="639.901"/>
      <point x="137.002" y="644.501" type="curve" smooth="yes"/>
      <point x="137.312" y="644.524"/>
      <point x="236.401" y="637.262"/>
      <point x="226.002" y="561.001" type="curve" smooth="yes"/>
      <point x="218.279" y="504.364"/>
      <point x="152.874" y="446.912"/>
    </contour>
  </outline>
</glyph>
<glyph name="less" format="2">
  <advance width="619"/>
  <unicode hex="003C"/>
  <outline>
    <contour>
      <point x="175" y="655" type="curve" smooth="yes"/>
      <point x="175" y="596.895"/>
      <point x="325.006" y="464.458"/>
      <point x="325.006" y="453.995" type="curve" smooth="yes"/>
      <point x="325.006" y="444.643"/>
      <point x="527.006" y="235.402"/>
      <point x="527.006" y="207.995" type="curve" smooth="yes"/>
      <point x="527.006" y="184.865"/>
      <point x="502.012" y="162.386"/>
      <point x="483.006" y="168.495" type="curve" smooth="yes"/>
      <point x="464.387" y="174.48"/>
      <point x="298.47" y="337.46"/>
      <point x="245.006" y="404.995" type="curve" smooth="yes"/>
      <point x="178.695" y="488.758"/>
      <point x="127.249" y="531.012"/>
      <point x="99.0049" y="572.495" type="curve" smooth="yes"/>
      <point x="88.3379" y="588.162"/>
      <point x="74.6709" y="604.829"/>
      <point x="58.0039" y="622.496" type="curve" smooth="yes"/>
      <point x="25.6113" y="656.833"/>
      <point x="29.9443" y="683.333"/>
      <point x="71.0039" y="701.996" type="curve" smooth="yes"/>
      <point x="96.3369" y="713.329"/>
      <point x="113.67" y="723.329"/>
      <point x="123.003" y="731.996" type="curve" smooth="yes"/>
      <point x="152.697" y="759.571"/>
      <point x="405.064" y="941.75"/>
      <point x="452.001" y="989.498" type="curve" smooth="yes"/>
      <point x="519.74" y="1058.41"/>
      <point x="540.581" y="1057.96"/>
      <point x="558.5" y="1055.5" type="curve" smooth="yes"/>
      <point x="575.5" y="1053.17"/>
      <point x="584" y="1042.83"/>
      <point x="584" y="1024.5" type="curve" smooth="yes"/>
      <point x="584" y="961.64"/>
      <point x="175" y="692.791"/>
    </contour>
  </outline>
</glyph>
<glyph name="equal" format="2">
  <advance width="828"/>
  <unicode hex="003D"/>
  <outline>
    <contour>
      <point x="57" y="385.999" type="curve" smooth="yes"/>
      <point x="38.1132" y="403.538"/>
      <point x="42.707" y="434.122"/>
      <point x="66.502" y="444.999" type="curve" smooth="yes"/>
      <point x="92.3218" y="456.801"/>
      <point x="738.789" y="459.864"/>
      <point x="762.503" y="454.999" type="curve" smooth="yes"/>
      <point x="807.039" y="445.862"/>
      <point x="803.965" y="392.617"/>
      <point x="747.001" y="385.498" type="curve" smooth="yes"/>
      <point x="704.731" y="380.215"/>
      <point x="87.8757" y="358.828"/>
    </contour>
    <contour>
      <point x="322.002" y="540.499" type="curve" smooth="yes"/>
      <point x="62.2043" y="538.346"/>
      <point x="35.002" y="542.791"/>
      <point x="35.002" y="569.998" type="curve" smooth="yes"/>
      <point x="35.002" y="603.963"/>
      <point x="52.9631" y="610.807"/>
      <point x="190.502" y="611.998" type="curve" smooth="yes"/>
      <point x="712.74" y="616.522"/>
      <point x="712.74" y="616.522"/>
      <point x="744.502" y="610.998" type="curve" smooth="yes"/>
      <point x="767.502" y="606.998"/>
      <point x="779.002" y="602.165"/>
      <point x="779.002" y="596.498" type="curve" smooth="yes"/>
      <point x="779.002" y="594.614"/>
      <point x="774.391" y="561.971"/>
      <point x="743.502" y="550.499" type="curve" smooth="yes"/>
      <point x="725.582" y="543.844"/>
      <point x="719.673" y="543.795"/>
    </contour>
  </outline>
</glyph>
<glyph name="greater" format="2">
  <advance width="697"/>
  <unicode hex="003E"/>
  <outline>
    <contour>
      <point x="373" y="732" type="curve" smooth="yes"/>
      <point x="338.262" y="745.896"/>
      <point x="210.001" y="870.098"/>
      <point x="210.001" y="888.496" type="curve" smooth="yes"/>
      <point x="210.001" y="897.496"/>
      <point x="215.668" y="907.163"/>
      <point x="227.001" y="917.496" type="curve" smooth="yes"/>
      <point x="249.08" y="937.627"/>
      <point x="305.08" y="908.127"/>
      <point x="395.001" y="828.996" type="curve" smooth="yes"/>
      <point x="476.722" y="755.968"/>
      <point x="609.435" y="662.56"/>
      <point x="647.499" y="624.496" type="curve" smooth="yes"/>
      <point x="675.625" y="596.37"/>
      <point x="672.848" y="587.161"/>
      <point x="554.499" y="503.998" type="curve" smooth="yes"/>
      <point x="552.092" y="502.307"/>
      <point x="334.748" y="343.083"/>
      <point x="332.498" y="341.5" type="curve" smooth="yes"/>
      <point x="269.498" y="297.167"/>
      <point x="228.665" y="268"/>
      <point x="209.998" y="254" type="curve" smooth="yes"/>
      <point x="78.3454" y="155.005"/>
      <point x="39.3275" y="150.034"/>
      <point x="34.999" y="189" type="curve" smooth="yes"/>
      <point x="31.6442" y="219.201"/>
      <point x="31.6442" y="219.201"/>
      <point x="347.5" y="446.5" type="curve" smooth="yes"/>
      <point x="348.785" y="447.425"/>
      <point x="475.092" y="539"/>
      <point x="476.002" y="539" type="curve" smooth="yes"/>
      <point x="522.657" y="567.448"/>
      <point x="536.157" y="592.781"/>
      <point x="516.502" y="615" type="curve" smooth="yes"/>
      <point x="515.275" y="616.387"/>
      <point x="415.314" y="715.074"/>
    </contour>
  </outline>
</glyph>
<glyph name="question" format="2">
  <advance width="776"/>
  <unicode hex="003F"/>
  <outline>
    <contour>
      <point x="80.501" y="51" type="curve" smooth="yes"/>
      <point x="52.7268" y="114.675"/>
      <point x="59.4444" y="128.778"/>
      <point x="126.005" y="149.5" type="curve" smooth="yes"/>
      <point x="194.27" y="170.753"/>
      <point x="254.674" y="125.3"/>
      <point x="215.003" y="49.5" type="curve" smooth="yes"/>
      <point x="174.531" y="-27.8296"/>
      <point x="105.962" y="-7.37183"/>
    </contour>
    <contour>
      <point x="116.006" y="790" type="curve" smooth="yes"/>
      <point x="50.6901" y="790"/>
      <point x="-33.8496" y="1069.02"/>
      <point x="128.006" y="1254" type="curve" smooth="yes"/>
      <point x="184.006" y="1318"/>
      <point x="249.673" y="1351"/>
      <point x="325.006" y="1353" type="curve" smooth="yes"/>
      <point x="383.37" y="1356.65"/>
      <point x="405.147" y="1370.29"/>
      <point x="440.508" y="1367" type="curve" smooth="yes"/>
      <point x="443.878" y="1366.69"/>
      <point x="642.816" y="1331.91"/>
      <point x="716.507" y="1171" type="curve" smooth="yes"/>
      <point x="789.727" y="1011.13"/>
      <point x="671.796" y="852.792"/>
      <point x="669.506" y="850.501" type="curve" smooth="yes"/>
      <point x="667.569" y="848.564"/>
      <point x="649.504" y="813.184"/>
      <point x="484.006" y="649" type="curve" smooth="yes"/>
      <point x="321.065" y="487.353"/>
      <point x="221.732" y="356.02"/>
      <point x="186.006" y="255" type="curve" smooth="yes"/>
      <point x="168.673" y="205"/>
      <point x="151.84" y="191.667"/>
      <point x="135.507" y="215" type="curve" smooth="yes"/>
      <point x="104.958" y="258.641"/>
      <point x="199.551" y="496.099"/>
      <point x="363.507" y="707" type="curve" smooth="yes"/>
      <point x="542.881" y="937.735"/>
      <point x="568.801" y="1040.52"/>
      <point x="546.507" y="1133.5" type="curve" smooth="yes"/>
      <point x="492.917" y="1357.01"/>
      <point x="239.596" y="1331.61"/>
      <point x="145.006" y="1147.5" type="curve" smooth="yes"/>
      <point x="99.6162" y="1059.15"/>
      <point x="90.6162" y="981.985"/>
      <point x="118.006" y="916" type="curve" smooth="yes"/>
      <point x="145.216" y="846.612"/>
      <point x="144.036" y="790"/>
    </contour>
  </outline>
</glyph>
<glyph name="at" format="2">
  <advance width="1386"/>
  <unicode hex="0040"/>
  <outline>
    <contour>
      <point x="786.5" y="388" type="curve" smooth="yes"/>
      <point x="839.408" y="577.185"/>
      <point x="724.653" y="615.526"/>
      <point x="661.497" y="563.001" type="curve" smooth="yes"/>
      <point x="588.554" y="502.336"/>
      <point x="510.743" y="302.974"/>
      <point x="511.998" y="234.001" type="curve" smooth="yes"/>
      <point x="513.599" y="146.015"/>
      <point x="584.482" y="111.641"/>
      <point x="600" y="114.499" type="curve" smooth="yes"/>
      <point x="638.644" y="121.616"/>
      <point x="745.563" y="241.62"/>
    </contour>
    <contour>
      <point x="34.9961" y="277.001" type="curve" smooth="yes"/>
      <point x="36.7876" y="787.321"/>
      <point x="477.651" y="1077.28"/>
      <point x="875.504" y="1046.01" type="curve" smooth="yes"/>
      <point x="951.837" y="1040.01"/>
      <point x="1001.17" y="1029.51"/>
      <point x="1023.5" y="1014.51" type="curve" smooth="yes"/>
      <point x="1045.84" y="999.507"/>
      <point x="1073.34" y="983.674"/>
      <point x="1106" y="967.007" type="curve" smooth="yes"/>
      <point x="1258.43" y="888.84"/>
      <point x="1302.16" y="670.813"/>
      <point x="1209" y="342.007" type="curve" smooth="yes"/>
      <point x="1189.58" y="273.106"/>
      <point x="1104.88" y="19.3243"/>
      <point x="903.002" y="-14.9932" type="curve" smooth="yes"/>
      <point x="850.576" y="-23.0587"/>
      <point x="774.735" y="27.719"/>
      <point x="757.002" y="85.0068" type="curve" smooth="yes"/>
      <point x="745.669" y="125.007"/>
      <point x="708.669" y="115.674"/>
      <point x="646.002" y="57.0068" type="curve" smooth="yes"/>
      <point x="569.867" y="-12.4501"/>
      <point x="437.207" y="8.65057"/>
      <point x="373.003" y="107.007" type="curve"/>
      <point x="288.955" y="226.303"/>
      <point x="396.945" y="542.134"/>
      <point x="534.003" y="612.006" type="curve" smooth="yes"/>
      <point x="625.336" y="659.339"/>
      <point x="704.003" y="667.672"/>
      <point x="770.003" y="637.005" type="curve" smooth="yes"/>
      <point x="813.137" y="616.091"/>
      <point x="823.543" y="614.769"/>
      <point x="876.003" y="625.005" type="curve" smooth="yes"/>
      <point x="1038.17" y="656.646"/>
      <point x="1042.42" y="605.714"/>
      <point x="948.89" y="355.699" type="curve" smooth="yes"/>
      <point x="914.298" y="263.236"/>
      <point x="905.335" y="192.005"/>
      <point x="922.002" y="142.005" type="curve" smooth="yes"/>
      <point x="982.01" y="-30.9652"/>
      <point x="1286.55" y="480.036"/>
      <point x="1158.5" y="786.505" type="curve" smooth="yes"/>
      <point x="1027.95" y="1098.93"/>
      <point x="526.911" y="969.4"/>
      <point x="374.998" y="769.004" type="curve" smooth="yes"/>
      <point x="223.26" y="571.204"/>
      <point x="60.2463" y="117.135"/>
      <point x="348.497" y="-120.496" type="curve" smooth="yes"/>
      <point x="595.318" y="-323.973"/>
      <point x="896.426" y="-202.836"/>
      <point x="1002" y="-108.994" type="curve" smooth="yes"/>
      <point x="1070.57" y="-52.8888"/>
      <point x="1080.47" y="-76.8903"/>
      <point x="1167" y="19.5059" type="curve" smooth="yes"/>
      <point x="1292.15" y="158.927"/>
      <point x="1281.77" y="242.781"/>
      <point x="1338" y="216.003" type="curve" smooth="yes"/>
      <point x="1369.33" y="198.67"/>
      <point x="1347.66" y="140.003"/>
      <point x="1273" y="40.0029" type="curve" smooth="yes"/>
      <point x="969.577" y="-361.337"/>
      <point x="561.023" y="-332.273"/>
      <point x="371.996" y="-254.998" type="curve" smooth="yes"/>
      <point x="277.03" y="-216.176"/>
      <point x="33.078" y="-81.5081"/>
    </contour>
  </outline>
</glyph>
<glyph name="A" format="2">
  <advance width="1717"/>
  <unicode hex="0041"/>
  <outline>
    <contour>
      <point x="182.996" y="369" type="curve" smooth="yes"/>
      <point x="182.996" y="270.353"/>
      <point x="257.524" y="192"/>
      <point x="317.496" y="192" type="curve" smooth="yes"/>
      <point x="453.311" y="192"/>
      <point x="684.747" y="551.518"/>
      <point x="695.499" y="595.5" type="curve" smooth="yes"/>
      <point x="701.075" y="618.308"/>
      <point x="692.281" y="621.24"/>
      <point x="669" y="629" type="curve"/>
      <point x="577.667" y="610.733"/>
      <point x="532" y="582.066"/>
      <point x="532" y="543" type="curve" smooth="yes"/>
      <point x="532" y="534.065"/>
      <point x="496.527" y="340.082"/>
      <point x="399.498" y="330" type="curve" smooth="yes"/>
      <point x="337.192" y="323.526"/>
      <point x="362.721" y="369.743"/>
      <point x="387.996" y="415.5" type="curve" smooth="yes"/>
      <point x="432.797" y="496.607"/>
      <point x="434.349" y="518.602"/>
      <point x="413.996" y="548" type="curve"/>
      <point x="319.314" y="652.147"/>
      <point x="182.996" y="495.893"/>
    </contour>
    <contour>
      <point x="1269.5" y="833.001" type="curve" smooth="yes"/>
      <point x="1288.53" y="851.372"/>
      <point x="1386" y="1098.93"/>
      <point x="1386" y="1142.5" type="curve" smooth="yes"/>
      <point x="1386" y="1182.72"/>
      <point x="1245.62" y="1060.18"/>
      <point x="1153.5" y="931.502" type="curve" smooth="yes"/>
      <point x="1069.19" y="813.726"/>
      <point x="1064.63" y="802.3"/>
      <point x="1079" y="792.502" type="curve" smooth="yes"/>
      <point x="1093.83" y="782.392"/>
      <point x="1249.13" y="813.333"/>
    </contour>
    <contour>
      <point x="1121" y="1372" type="line"/>
      <point x="1117" y="1372" type="line"/>
      <point x="787.615" y="1331.92"/>
      <point x="568.448" y="1262.09"/>
      <point x="459.502" y="1162.5" type="curve" smooth="yes"/>
      <point x="245.396" y="966.783"/>
      <point x="484.7" y="935.746"/>
      <point x="458.002" y="869.003" type="curve" smooth="yes"/>
      <point x="436.252" y="814.631"/>
      <point x="196.392" y="873.326"/>
      <point x="223.003" y="1090" type="curve" smooth="yes"/>
      <point x="253.276" y="1336.51"/>
      <point x="662.148" y="1414.27"/>
      <point x="1383" y="1469" type="curve" smooth="yes"/>
      <point x="1590.04" y="1485.21"/>
      <point x="1524.41" y="1498.33"/>
      <point x="1594" y="1490.5" type="curve" smooth="yes"/>
      <point x="1706.99" y="1477.79"/>
      <point x="1701.09" y="1445.92"/>
      <point x="1620" y="1239" type="curve" smooth="yes"/>
      <point x="1547.68" y="1054.44"/>
      <point x="1336.54" y="403.045"/>
      <point x="1315.5" y="264.5" type="curve" smooth="yes"/>
      <point x="1297.63" y="146.785"/>
      <point x="1364.46" y="97.6857"/>
      <point x="1534" y="352.001" type="curve" smooth="yes"/>
      <point x="1568.67" y="405.334"/>
      <point x="1594.5" y="426.667"/>
      <point x="1611.5" y="416" type="curve" smooth="yes"/>
      <point x="1664.76" y="382.581"/>
      <point x="1490.98" y="147.118"/>
      <point x="1379.5" y="95.001" type="curve" smooth="yes"/>
      <point x="1353.84" y="83.001"/>
      <point x="1321.34" y="78.001"/>
      <point x="1282" y="80.001" type="curve" smooth="yes"/>
      <point x="1120" y="89.334"/>
      <point x="1095.34" y="261.001"/>
      <point x="1208" y="595.001" type="curve" smooth="yes"/>
      <point x="1233.96" y="671.154"/>
      <point x="1241.2" y="713.933"/>
      <point x="1229.71" y="723.336" type="curve" smooth="yes"/>
      <point x="1212.07" y="737.767"/>
      <point x="1203.78" y="735.696"/>
      <point x="1081" y="705.001" type="curve" smooth="yes"/>
      <point x="939.264" y="669.567"/>
      <point x="913.286" y="658.328"/>
      <point x="841.587" y="537.783" type="curve" smooth="yes"/>
      <point x="688.803" y="280.913"/>
      <point x="457.713" y="119.814"/>
      <point x="390.002" y="99.501" type="curve" smooth="yes"/>
      <point x="147.522" y="26.7576"/>
      <point x="-50.8726" y="272.848"/>
      <point x="71.001" y="525.002" type="curve" smooth="yes"/>
      <point x="139.001" y="667.002"/>
      <point x="248.668" y="713.335"/>
      <point x="400.001" y="664.002" type="curve" smooth="yes"/>
      <point x="525.223" y="624.87"/>
      <point x="501.168" y="686.531"/>
      <point x="684.502" y="699.002" type="curve" smooth="yes"/>
      <point x="733.502" y="702.335"/>
      <point x="766.002" y="709.668"/>
      <point x="782.002" y="721.001" type="curve" smooth="yes"/>
      <point x="843.617" y="764.644"/>
      <point x="987.111" y="986.601"/>
      <point x="1224.97" y="1170.75" type="curve" smooth="yes"/>
      <point x="1227.54" y="1172.74"/>
      <point x="1461.46" y="1356.65"/>
      <point x="1472" y="1381.5" type="curve" smooth="yes"/>
      <point x="1484.33" y="1410.55"/>
      <point x="1440.49" y="1411.47"/>
      <point x="1141" y="1375" type="curve"/>
      <point x="1139" y="1375" type="line"/>
      <point x="1138" y="1374" type="line"/>
      <point x="1130" y="1374" type="line"/>
      <point x="1129" y="1373" type="line"/>
      <point x="1122" y="1373" type="line"/>
    </contour>
  </outline>
</glyph>
<glyph name="B" format="2">
  <advance width="1691"/>
  <unicode hex="0042"/>
  <outline>
    <contour>
      <point x="1204" y="645.5" type="curve" smooth="yes"/>
      <point x="1152.81" y="707.021"/>
      <point x="1103.29" y="718.099"/>
      <point x="1030" y="734.495" type="curve" smooth="yes"/>
      <point x="1004.67" y="740.162"/>
      <point x="989.166" y="740.162"/>
      <point x="983.499" y="734.495" type="curve" smooth="yes"/>
      <point x="967.935" y="718.931"/>
      <point x="911.728" y="561.083"/>
      <point x="832.5" y="403.496" type="curve" smooth="yes"/>
      <point x="735.447" y="210.456"/>
      <point x="735.324" y="208.881"/>
      <point x="790.999" y="161.997" type="curve" smooth="yes"/>
      <point x="1078.3" y="-78.3392"/>
      <point x="1239.4" y="274.364"/>
      <point x="1257.5" y="335.498" type="curve" smooth="yes"/>
      <point x="1281.74" y="417.383"/>
      <point x="1292.84" y="538.716"/>
    </contour>
    <contour>
      <point x="1258" y="823.993" type="curve" smooth="yes"/>
      <point x="1394.09" y="860.284"/>
      <point x="1559.49" y="1224.21"/>
      <point x="1438" y="1287.99" type="curve" smooth="yes"/>
      <point x="1314.16" y="1353.01"/>
      <point x="1253.35" y="1247.97"/>
      <point x="1186.5" y="1132.49" type="curve" smooth="yes"/>
      <point x="1184.89" y="1129.71"/>
      <point x="1032.33" y="859.742"/>
      <point x="1068" y="832.993" type="curve" smooth="yes"/>
      <point x="1087.44" y="818.416"/>
      <point x="1191.96" y="806.383"/>
    </contour>
    <contour>
      <point x="1128.5" y="1405.49" type="curve" smooth="yes"/>
      <point x="1213" y="1385.72"/>
      <point x="1240.45" y="1390.38"/>
      <point x="1331.5" y="1442" type="curve" smooth="yes"/>
      <point x="1411.25" y="1487.21"/>
      <point x="1424.46" y="1491"/>
      <point x="1478.5" y="1491" type="curve" smooth="yes"/>
      <point x="1556.7" y="1491"/>
      <point x="1593.92" y="1451.9"/>
      <point x="1518.5" y="1412.5" type="curve" smooth="yes"/>
      <point x="1424.87" y="1363.58"/>
      <point x="1569.27" y="1354.45"/>
      <point x="1629" y="1234.99" type="curve" smooth="yes"/>
      <point x="1647" y="1198.99"/>
      <point x="1656" y="1152.16"/>
      <point x="1656" y="1094.49" type="curve" smooth="yes"/>
      <point x="1656" y="984.141"/>
      <point x="1617.48" y="914.77"/>
      <point x="1489" y="814.994" type="curve" smooth="yes"/>
      <point x="1413.06" y="755.56"/>
      <point x="1326.15" y="748.173"/>
      <point x="1330.59" y="723.001" type="curve" smooth="yes"/>
      <point x="1334.45" y="701.117"/>
      <point x="1480.49" y="615.392"/>
      <point x="1473.5" y="430.992" type="curve" smooth="yes"/>
      <point x="1467.15" y="263.417"/>
      <point x="1342.62" y="68.7826"/>
      <point x="1108" y="15.9932" type="curve" smooth="yes"/>
      <point x="811.376" y="-51.878"/>
      <point x="742.521" y="139.994"/>
      <point x="673.998" y="139.994" type="curve" smooth="yes"/>
      <point x="628.662" y="139.994"/>
      <point x="575.88" y="52.9575"/>
      <point x="393.499" y="26.4951" type="curve" smooth="yes"/>
      <point x="308.499" y="14.1621"/>
      <point x="245.999" y="23.3291"/>
      <point x="205.999" y="53.9961" type="curve" smooth="yes"/>
      <point x="78.134" y="151.227"/>
      <point x="59.3508" y="176.48"/>
      <point x="38.499" y="269.996" type="curve" smooth="yes"/>
      <point x="2.15762" y="432.981"/>
      <point x="174.452" y="593.176"/>
      <point x="337.498" y="573.994" type="curve" smooth="yes"/>
      <point x="590.908" y="544.181"/>
      <point x="602.069" y="305.586"/>
      <point x="442.498" y="224.993" type="curve" smooth="yes"/>
      <point x="372.809" y="189.796"/>
      <point x="351.444" y="239.159"/>
      <point x="394.998" y="287.993" type="curve" smooth="yes"/>
      <point x="485.512" y="389.48"/>
      <point x="407.739" y="480.303"/>
      <point x="322.498" y="457.493" type="curve" smooth="yes"/>
      <point x="222.862" y="430.832"/>
      <point x="159.003" y="290.299"/>
      <point x="238.498" y="184.995" type="curve" smooth="yes"/>
      <point x="311.682" y="88.052"/>
      <point x="413.652" y="138.776"/>
      <point x="423.498" y="143.995" type="curve" smooth="yes"/>
      <point x="478.98" y="173.408"/>
      <point x="578.628" y="276.108"/>
      <point x="616.998" y="345.995" type="curve" smooth="yes"/>
      <point x="669.994" y="442.521"/>
      <point x="679.86" y="526.151"/>
      <point x="811.498" y="807.495" type="curve" smooth="yes"/>
      <point x="895.418" y="986.854"/>
      <point x="895.418" y="986.854"/>
      <point x="984.478" y="1111.88" type="curve" smooth="yes"/>
      <point x="1021.46" y="1163.8"/>
      <point x="1055.8" y="1206.63"/>
      <point x="1087.48" y="1240.38" type="curve" smooth="yes"/>
      <point x="1142.83" y="1299.34"/>
      <point x="1182.88" y="1342"/>
      <point x="1102" y="1342" type="curve" smooth="yes"/>
      <point x="895.562" y="1342"/>
      <point x="725.12" y="1312.5"/>
      <point x="590.672" y="1253.5" type="curve" smooth="yes"/>
      <point x="310.427" y="1130.52"/>
      <point x="312.645" y="983.646"/>
      <point x="317.499" y="966.495" type="curve" smooth="yes"/>
      <point x="335.728" y="902.085"/>
      <point x="472.92" y="851.371"/>
      <point x="381.04" y="819.788" type="curve" smooth="yes"/>
      <point x="286.735" y="787.372"/>
      <point x="63.1783" y="970.352"/>
      <point x="218.999" y="1165.99" type="curve" smooth="yes"/>
      <point x="423.668" y="1422.97"/>
      <point x="1057.23" y="1422.17"/>
    </contour>
  </outline>
</glyph>
<glyph name="C" format="2">
  <advance width="1072"/>
  <unicode hex="0043"/>
  <outline>
    <contour>
      <point x="34.999" y="576.001" type="curve" smooth="yes"/>
      <point x="34.999" y="896.052"/>
      <point x="223.933" y="1322.27"/>
      <point x="603" y="1467" type="curve" smooth="yes"/>
      <point x="667.5" y="1491.7"/>
      <point x="838.348" y="1486"/>
      <point x="891.003" y="1459" type="curve" smooth="yes"/>
      <point x="1096.74" y="1354.8"/>
      <point x="1088.85" y="970.831"/>
      <point x="848.755" y="770.03" type="curve" smooth="yes"/>
      <point x="790.59" y="721.384"/>
      <point x="725.712" y="710.484"/>
      <point x="654.12" y="737.331" type="curve" smooth="yes"/>
      <point x="536.285" y="781.52"/>
      <point x="480.913" y="872.742"/>
      <point x="488.003" y="1011" type="curve" smooth="yes"/>
      <point x="493.141" y="1111.19"/>
      <point x="599.56" y="1265"/>
      <point x="695.735" y="1265" type="curve" smooth="yes"/>
      <point x="772.885" y="1265"/>
      <point x="738.839" y="1206.82"/>
      <point x="698.004" y="1150" type="curve" smooth="yes"/>
      <point x="677.713" y="1121.59"/>
      <point x="563.827" y="952.178"/>
      <point x="660.504" y="855.501" type="curve" smooth="yes"/>
      <point x="711.868" y="804.137"/>
      <point x="765.365" y="802.831"/>
      <point x="848.004" y="905.001" type="curve" smooth="yes"/>
      <point x="1066.92" y="1179.18"/>
      <point x="940.056" y="1496.46"/>
      <point x="668.004" y="1384.5" type="curve" smooth="yes"/>
      <point x="493.874" y="1312.84"/>
      <point x="314.478" y="1030.25"/>
      <point x="231.003" y="695.001" type="curve" smooth="yes"/>
      <point x="208.085" y="599.281"/>
      <point x="202.95" y="399.463"/>
      <point x="222.003" y="311.001" type="curve" smooth="yes"/>
      <point x="267.33" y="111.033"/>
      <point x="431.843" y="11.0458"/>
      <point x="624.003" y="76.001" type="curve" smooth="yes"/>
      <point x="681.517" y="94.3004"/>
      <point x="819.183" y="220.172"/>
      <point x="881.502" y="321.001" type="curve" smooth="yes"/>
      <point x="911.169" y="369.001"/>
      <point x="935.669" y="396.501"/>
      <point x="955.002" y="403.501" type="curve" smooth="yes"/>
      <point x="992.414" y="417.047"/>
      <point x="994.222" y="376.868"/>
      <point x="951" y="296.001" type="curve" smooth="yes"/>
      <point x="871.279" y="143.807"/>
      <point x="630.37" y="-87.8709"/>
      <point x="360.499" y="-9.99902" type="curve" smooth="yes"/>
      <point x="228.608" y="28.0583"/>
      <point x="34.999" y="155.533"/>
    </contour>
  </outline>
</glyph>
<glyph name="D" format="2">
  <advance width="1717"/>
  <unicode hex="0044"/>
  <outline>
    <contour>
      <point x="823" y="149.001" type="curve" smooth="yes"/>
      <point x="1021.1" y="9.93621"/>
      <point x="1159.92" y="53.755"/>
      <point x="1318" y="319.001" type="curve" smooth="yes"/>
      <point x="1374" y="411.668"/>
      <point x="1420" y="527.668"/>
      <point x="1456" y="667.001" type="curve" smooth="yes"/>
      <point x="1463.33" y="699.668"/>
      <point x="1473.5" y="739.168"/>
      <point x="1486.5" y="785.501" type="curve" smooth="yes"/>
      <point x="1487.84" y="790.262"/>
      <point x="1574.74" y="1178.43"/>
      <point x="1398" y="1272" type="curve" smooth="yes"/>
      <point x="1316.63" y="1315.07"/>
      <point x="1310.2" y="1307.98"/>
      <point x="1239.5" y="1198" type="curve" smooth="yes"/>
      <point x="1237.78" y="1195.32"/>
      <point x="1106.21" y="970.997"/>
      <point x="1091" y="916.501" type="curve" smooth="yes"/>
      <point x="1080.15" y="877.614"/>
      <point x="978.998" y="687.354"/>
      <point x="978.998" y="667.001" type="curve" smooth="yes"/>
      <point x="978.998" y="643.81"/>
      <point x="784.315" y="286.575"/>
      <point x="773.499" y="225.001" type="curve" smooth="yes"/>
      <point x="766.186" y="183.371"/>
      <point x="822.093" y="149.001"/>
    </contour>
    <contour>
      <point x="347.498" y="470.998" type="curve" smooth="yes"/>
      <point x="243.154" y="470.998"/>
      <point x="149.44" y="282.606"/>
      <point x="229.499" y="194.998" type="curve" smooth="yes"/>
      <point x="267.105" y="153.846"/>
      <point x="348.425" y="121.57"/>
      <point x="377.999" y="127.999" type="curve" smooth="yes"/>
      <point x="513.986" y="156.492"/>
      <point x="616.272" y="280.908"/>
      <point x="760.999" y="615.001" type="curve" smooth="yes"/>
      <point x="810.326" y="730.531"/>
      <point x="986.42" y="1100.33"/>
      <point x="1083.04" y="1206.44" type="curve" smooth="yes"/>
      <point x="1181.37" y="1314.41"/>
      <point x="1181.97" y="1334.7"/>
      <point x="1097" y="1345" type="curve" smooth="yes"/>
      <point x="913.125" y="1369.52"/>
      <point x="555.906" y="1272.79"/>
      <point x="445" y="1170" type="curve" smooth="yes"/>
      <point x="430.333" y="1156.67"/>
      <point x="420.5" y="1150"/>
      <point x="415.5" y="1150" type="curve" smooth="yes"/>
      <point x="408.571" y="1150"/>
      <point x="300.715" y="1017.28"/>
      <point x="325" y="950.499" type="curve" smooth="yes"/>
      <point x="343.096" y="900.739"/>
      <point x="423.702" y="887.347"/>
      <point x="419.5" y="844.499" type="curve" smooth="yes"/>
      <point x="417.163" y="820.665"/>
      <point x="321.179" y="785.858"/>
      <point x="231.499" y="880.999" type="curve" smooth="yes"/>
      <point x="193.166" y="921.666"/>
      <point x="173.999" y="970.499"/>
      <point x="173.999" y="1027.5" type="curve" smooth="yes"/>
      <point x="173.999" y="1387.25"/>
      <point x="973.767" y="1446.79"/>
      <point x="1173" y="1398" type="curve" smooth="yes"/>
      <point x="1231.84" y="1382.98"/>
      <point x="1237.7" y="1383.65"/>
      <point x="1355" y="1440.99" type="curve" smooth="yes"/>
      <point x="1467.2" y="1495.85"/>
      <point x="1489.83" y="1499.72"/>
      <point x="1527.5" y="1478.49" type="curve" smooth="yes"/>
      <point x="1569.62" y="1454.75"/>
      <point x="1533.37" y="1416.1"/>
      <point x="1501" y="1400.99" type="curve" smooth="yes"/>
      <point x="1376.92" y="1343.1"/>
      <point x="1565.49" y="1346.89"/>
      <point x="1642" y="1158.49" type="curve" smooth="yes"/>
      <point x="1707.65" y="996.834"/>
      <point x="1676.91" y="728.238"/>
      <point x="1659" y="650.492" type="curve" smooth="yes"/>
      <point x="1644.33" y="586.825"/>
      <point x="1611.66" y="497.825"/>
      <point x="1561" y="383.492" type="curve" smooth="yes"/>
      <point x="1526.77" y="306.257"/>
      <point x="1370.28" y="0.993164"/>
      <point x="1035" y="0.993164" type="curve" smooth="yes"/>
      <point x="944.517" y="2.26816"/>
      <point x="896.148" y="18.696"/>
      <point x="787.997" y="88.9951" type="curve" smooth="yes"/>
      <point x="734.664" y="123.662"/>
      <point x="702.664" y="142.329"/>
      <point x="691.997" y="144.996" type="curve" smooth="yes"/>
      <point x="645.145" y="156.71"/>
      <point x="598.822" y="51.747"/>
      <point x="376.997" y="33.4971" type="curve" smooth="yes"/>
      <point x="294.546" y="26.7137"/>
      <point x="247.006" y="26.3206"/>
      <point x="229.497" y="42.9971" type="curve" smooth="yes"/>
      <point x="222.497" y="49.6641"/>
      <point x="196.997" y="68.8311"/>
      <point x="152.997" y="100.498" type="curve" smooth="yes"/>
      <point x="-25.6916" y="229.101"/>
      <point x="-0.118494" y="502.042"/>
      <point x="233.996" y="561.998" type="curve" smooth="yes"/>
      <point x="441.408" y="613.512"/>
      <point x="575.774" y="515.214"/>
      <point x="540.996" y="343.997" type="curve" smooth="yes"/>
      <point x="527.487" y="280.507"/>
      <point x="500.712" y="254.187"/>
      <point x="430.497" y="230.997" type="curve" smooth="yes"/>
      <point x="352.057" y="205.09"/>
      <point x="348.524" y="246.417"/>
      <point x="391.498" y="294.997" type="curve" smooth="yes"/>
      <point x="509.224" y="428.079"/>
      <point x="377.78" y="470.998"/>
    </contour>
  </outline>
</glyph>
<glyph name="E" format="2">
  <advance width="1124"/>
  <unicode hex="0045"/>
  <outline>
    <contour>
      <point x="368" y="1190" type="curve" smooth="yes"/>
      <point x="350.551" y="1369.47"/>
      <point x="506.105" y="1482.38"/>
      <point x="600.5" y="1499" type="curve" smooth="yes"/>
      <point x="691.113" y="1514.94"/>
      <point x="836.984" y="1504.08"/>
      <point x="884" y="1488" type="curve" smooth="yes"/>
      <point x="1077.96" y="1421.26"/>
      <point x="1160.95" y="1087.12"/>
      <point x="1020" y="932.496" type="curve" smooth="yes"/>
      <point x="873.391" y="771.665"/>
      <point x="682.569" y="849.294"/>
      <point x="649.999" y="1004" type="curve" smooth="yes"/>
      <point x="611.689" y="1185.97"/>
      <point x="687.786" y="1292"/>
      <point x="724.999" y="1292" type="curve" smooth="yes"/>
      <point x="760.174" y="1292"/>
      <point x="762.875" y="1268.86"/>
      <point x="735.999" y="1178" type="curve" smooth="yes"/>
      <point x="698.749" y="1052.06"/>
      <point x="767.506" y="866.34"/>
      <point x="918.999" y="992.997" type="curve"/>
      <point x="1035.2" y="1109.2"/>
      <point x="972.417" y="1497.68"/>
      <point x="724.999" y="1427.5" type="curve" smooth="yes"/>
      <point x="502.987" y="1364.52"/>
      <point x="538.987" y="1070.32"/>
      <point x="572.999" y="1023" type="curve" smooth="yes"/>
      <point x="631.616" y="943.447"/>
      <point x="592.298" y="884.578"/>
      <point x="516.999" y="910.998" type="curve" smooth="yes"/>
      <point x="443.656" y="936.732"/>
      <point x="393.311" y="922.211"/>
      <point x="331.999" y="849.999" type="curve" smooth="yes"/>
      <point x="169.452" y="662.12"/>
      <point x="175.601" y="349.684"/>
      <point x="307.499" y="181.999" type="curve" smooth="yes"/>
      <point x="398.84" y="65.8745"/>
      <point x="569.007" y="49.7902"/>
      <point x="681.999" y="112" type="curve" smooth="yes"/>
      <point x="707.751" y="125.52"/>
      <point x="835.616" y="216.589"/>
      <point x="915.074" y="355.001" type="curve" smooth="yes"/>
      <point x="946.457" y="409.668"/>
      <point x="971.099" y="437.001"/>
      <point x="989" y="437.001" type="curve" smooth="yes"/>
      <point x="1111.67" y="437.001"/>
      <point x="824.124" y="73.332"/>
      <point x="638.001" y="14.501" type="curve" smooth="yes"/>
      <point x="523.212" y="-21.7824"/>
      <point x="313.127" y="8.80162"/>
      <point x="230.001" y="85.001" type="curve" smooth="yes"/>
      <point x="202.668" y="109.001"/>
      <point x="181.001" y="127.334"/>
      <point x="165.001" y="140.001" type="curve" smooth="yes"/>
      <point x="75.4376" y="210.848"/>
      <point x="7.88329" y="472.35"/>
      <point x="45" y="632.502" type="curve" smooth="yes"/>
      <point x="82.2705" y="793.318"/>
      <point x="222.125" y="951.118"/>
      <point x="333.5" y="975.501" type="curve" smooth="yes"/>
      <point x="451.4" y="1001.31"/>
      <point x="459.501" y="1017.93"/>
      <point x="413" y="1073" type="curve" smooth="yes"/>
      <point x="387.667" y="1103"/>
      <point x="372.667" y="1142"/>
    </contour>
  </outline>
</glyph>
<glyph name="F" format="2">
  <advance width="1586"/>
  <unicode hex="0046"/>
  <outline>
    <contour>
      <point x="179" y="1353.5" type="curve" smooth="yes"/>
      <point x="275.763" y="1459"/>
      <point x="499.181" y="1490.46"/>
      <point x="594.418" y="1478.92" type="curve" smooth="yes"/>
      <point x="643.476" y="1472.97"/>
      <point x="724.478" y="1463.84"/>
      <point x="837.424" y="1451.51" type="curve" smooth="yes"/>
      <point x="950.37" y="1439.19"/>
      <point x="1020.7" y="1429.86"/>
      <point x="1048.42" y="1423.51" type="curve" smooth="yes"/>
      <point x="1076.14" y="1417.17"/>
      <point x="1119" y="1414"/>
      <point x="1177" y="1414" type="curve" smooth="yes"/>
      <point x="1235" y="1414"/>
      <point x="1280" y="1408"/>
      <point x="1312" y="1396" type="curve" smooth="yes"/>
      <point x="1472.11" y="1335.76"/>
      <point x="1518.04" y="1452.52"/>
      <point x="1548" y="1406.5" type="curve" smooth="yes"/>
      <point x="1566.62" y="1377.91"/>
      <point x="1518.21" y="1319.93"/>
      <point x="1460.5" y="1309.5" type="curve" smooth="yes"/>
      <point x="1392.36" y="1297.18"/>
      <point x="1263.4" y="1314.07"/>
      <point x="1231" y="1308" type="curve" smooth="yes"/>
      <point x="1148.58" y="1292.54"/>
      <point x="1052.23" y="1001.74"/>
      <point x="1072" y="965.497" type="curve" smooth="yes"/>
      <point x="1088.39" y="935.454"/>
      <point x="1219.5" y="969.921"/>
      <point x="1230.5" y="930.998" type="curve" smooth="yes"/>
      <point x="1248.39" y="867.696"/>
      <point x="1042.47" y="877.814"/>
      <point x="1009.5" y="850.498" type="curve" smooth="yes"/>
      <point x="977.37" y="823.874"/>
      <point x="984.097" y="747.572"/>
      <point x="857.248" y="449.244" type="curve" smooth="yes"/>
      <point x="809.412" y="336.742"/>
      <point x="774.996" y="269.993"/>
      <point x="754.001" y="248.998" type="curve" smooth="yes"/>
      <point x="748.001" y="242.998"/>
      <point x="736.334" y="226.998"/>
      <point x="719.001" y="200.998" type="curve" smooth="yes"/>
      <point x="546.37" y="-52.0187"/>
      <point x="265.318" y="3.20632"/>
      <point x="260.5" y="4.49902" type="curve" smooth="yes"/>
      <point x="231.812" y="12.1963"/>
      <point x="131.401" y="79.4337"/>
      <point x="105.5" y="105.998" type="curve" smooth="yes"/>
      <point x="-9.4325" y="223.875"/>
      <point x="-7.06136" y="524.568"/>
      <point x="313" y="544.997" type="curve" smooth="yes"/>
      <point x="422.644" y="551.996"/>
      <point x="549.979" y="484.468"/>
      <point x="547" y="333.997" type="curve" smooth="yes"/>
      <point x="545.744" y="262.443"/>
      <point x="537.69" y="240.154"/>
      <point x="505.999" y="224.997" type="curve" smooth="yes"/>
      <point x="462.3" y="204.098"/>
      <point x="441.556" y="175.389"/>
      <point x="407.999" y="168.996" type="curve" smooth="yes"/>
      <point x="336.139" y="153.374"/>
      <point x="371.447" y="213.43"/>
      <point x="395.999" y="244.996" type="curve" smooth="yes"/>
      <point x="419.066" y="274.653"/>
      <point x="468.424" y="352.564"/>
      <point x="404.079" y="410.136" type="curve" smooth="yes"/>
      <point x="352.564" y="456.229"/>
      <point x="225.7" y="419.743"/>
      <point x="202.5" y="299.998" type="curve" smooth="yes"/>
      <point x="192.167" y="246.665"/>
      <point x="204.667" y="196.832"/>
      <point x="240" y="150.499" type="curve" smooth="yes"/>
      <point x="378.721" y="-31.4096"/>
      <point x="589.717" y="263.724"/>
      <point x="609.523" y="293.621" type="curve" smooth="yes"/>
      <point x="659.04" y="368.365"/>
      <point x="791.408" y="751.36"/>
      <point x="778.499" y="776.499" type="curve" smooth="yes"/>
      <point x="758.684" y="815.087"/>
      <point x="572.645" y="673.948"/>
      <point x="530.999" y="721.999" type="curve" smooth="yes"/>
      <point x="512.527" y="743.312"/>
      <point x="554.74" y="776.892"/>
      <point x="614.998" y="801.999" type="curve" smooth="yes"/>
      <point x="815.355" y="882.647"/>
      <point x="831.965" y="893.102"/>
      <point x="847.998" y="924.501" type="curve" smooth="yes"/>
      <point x="878.935" y="985.087"/>
      <point x="924.092" y="1122.84"/>
      <point x="998.498" y="1250.5" type="curve" smooth="yes"/>
      <point x="1030.17" y="1304.83"/>
      <point x="1036.83" y="1338.5"/>
      <point x="1018.5" y="1351.5" type="curve" smooth="yes"/>
      <point x="982.669" y="1376.91"/>
      <point x="617.953" y="1389.94"/>
      <point x="487.5" y="1360" type="curve" smooth="yes"/>
      <point x="292.733" y="1315.3"/>
      <point x="151.561" y="1091.8"/>
      <point x="331" y="987.501" type="curve" smooth="yes"/>
      <point x="384.333" y="956.501"/>
      <point x="439.333" y="955.334"/>
      <point x="496" y="984.001" type="curve" smooth="yes"/>
      <point x="559.535" y="1017.09"/>
      <point x="577.868" y="1005.43"/>
      <point x="550.999" y="949.001" type="curve" smooth="yes"/>
      <point x="502.937" y="846.605"/>
      <point x="300.141" y="857.798"/>
      <point x="197.002" y="963.001" type="curve" smooth="yes"/>
      <point x="133.62" y="1030.26"/>
      <point x="120.279" y="1058.83"/>
      <point x="115" y="1138" type="curve" smooth="yes"/>
      <point x="109.667" y="1229.33"/>
      <point x="131" y="1301.17"/>
    </contour>
  </outline>
</glyph>
<glyph name="G" format="2">
  <advance width="1185"/>
  <unicode hex="0047"/>
  <outline>
    <contour>
      <point x="946.999" y="1145" type="curve" smooth="yes"/>
      <point x="1035.7" y="1473.73"/>
      <point x="701.333" y="1517.46"/>
      <point x="461.999" y="1201" type="curve" smooth="yes"/>
      <point x="447.332" y="1181"/>
      <point x="436.112" y="1167.64"/>
      <point x="428.339" y="1160.9" type="curve" smooth="yes"/>
      <point x="420.565" y="1154.16"/>
      <point x="382.785" y="1077.2"/>
      <point x="314.999" y="930.004" type="curve" smooth="yes"/>
      <point x="216.118" y="706.853"/>
      <point x="222.893" y="481.067"/>
      <point x="337.999" y="412.004" type="curve" smooth="yes"/>
      <point x="484.776" y="322.602"/>
      <point x="677.22" y="412.633"/>
      <point x="823.499" y="642.503" type="curve" smooth="yes"/>
      <point x="895.832" y="756.17"/>
      <point x="943.832" y="826.003"/>
      <point x="967.499" y="852.003" type="curve" smooth="yes"/>
      <point x="991.166" y="878.003"/>
      <point x="1003" y="899.67"/>
      <point x="1003" y="917.003" type="curve" smooth="yes"/>
      <point x="1002.33" y="919.67"/>
      <point x="997.932" y="921.003"/>
      <point x="989.798" y="921.003" type="curve" smooth="yes"/>
      <point x="981.664" y="921.003"/>
      <point x="973.831" y="916.17"/>
      <point x="966.298" y="906.503" type="curve" smooth="yes"/>
      <point x="952.774" y="889.149"/>
      <point x="827.106" y="811.849"/>
      <point x="749.498" y="784.502" type="curve" smooth="yes"/>
      <point x="646.945" y="748.365"/>
      <point x="447.228" y="756.682"/>
      <point x="420.498" y="842.501" type="curve" smooth="yes"/>
      <point x="408.199" y="881.988"/>
      <point x="447.789" y="883.579"/>
      <point x="481.998" y="874" type="curve" smooth="yes"/>
      <point x="744.403" y="798.04"/>
      <point x="904.759" y="988.466"/>
    </contour>
    <contour>
      <point x="72.5" y="773.004" type="curve" smooth="yes"/>
      <point x="124.251" y="1217.8"/>
      <point x="476.572" y="1458.66"/>
      <point x="671.491" y="1483.5" type="curve" smooth="yes"/>
      <point x="1050.98" y="1531.85"/>
      <point x="1151.96" y="1304.15"/>
      <point x="1072.99" y="1087" type="curve" smooth="yes"/>
      <point x="1063.07" y="1054.74"/>
      <point x="1032.4" y="969.685"/>
      <point x="1031.99" y="968.5" type="curve" smooth="yes"/>
      <point x="1011.59" y="909.312"/>
      <point x="1125.4" y="999.64"/>
      <point x="1147.49" y="942" type="curve" smooth="yes"/>
      <point x="1155.16" y="922"/>
      <point x="1145.83" y="890.167"/>
      <point x="1119.49" y="846.5" type="curve" smooth="yes"/>
      <point x="941.527" y="551.394"/>
      <point x="916.922" y="-132.393"/>
      <point x="554.994" y="-305.999" type="curve" smooth="yes"/>
      <point x="402.142" y="-379.96"/>
      <point x="88.7279" y="-338.478"/>
      <point x="40.4941" y="-95.999" type="curve" smooth="yes"/>
      <point x="17.1715" y="21.2476"/>
      <point x="62.1805" y="150.72"/>
      <point x="176.995" y="206.001" type="curve" smooth="yes"/>
      <point x="265.662" y="250.001"/>
      <point x="321.662" y="266.168"/>
      <point x="344.995" y="254.501" type="curve" smooth="yes"/>
      <point x="399.48" y="227.258"/>
      <point x="422.928" y="201.298"/>
      <point x="341.438" y="157.655" type="curve" smooth="yes"/>
      <point x="155.845" y="58.2594"/>
      <point x="131.541" y="-193.272"/>
      <point x="320.997" y="-246.999" type="curve" smooth="yes"/>
      <point x="453.963" y="-285.177"/>
      <point x="596.04" y="-137.795"/>
      <point x="681.997" y="146.001" type="curve" smooth="yes"/>
      <point x="691.33" y="180.001"/>
      <point x="708.33" y="234.001"/>
      <point x="732.997" y="308.001" type="curve" smooth="yes"/>
      <point x="757.664" y="382.001"/>
      <point x="765.831" y="421.668"/>
      <point x="757.498" y="427.001" type="curve" smooth="yes"/>
      <point x="737.385" y="439.873"/>
      <point x="628.088" y="346.092"/>
      <point x="626.998" y="345.002" type="curve" smooth="yes"/>
      <point x="612.514" y="330.518"/>
      <point x="534.278" y="301.987"/>
      <point x="483.998" y="295.004" type="curve" smooth="yes"/>
      <point x="351.753" y="275.918"/>
      <point x="163.032" y="367.206"/>
      <point x="131.999" y="463.004" type="curve" smooth="yes"/>
      <point x="126.666" y="481.004"/>
      <point x="116.333" y="504.004"/>
      <point x="101" y="532.004" type="curve" smooth="yes"/>
      <point x="69.667" y="586.671"/>
      <point x="60.167" y="667.004"/>
    </contour>
  </outline>
</glyph>
<glyph name="H" format="2">
  <advance width="1900"/>
  <unicode hex="0048"/>
  <outline>
    <contour>
      <point x="644" y="605" type="curve" smooth="yes"/>
      <point x="644" y="630.654"/>
      <point x="626.497" y="635.932"/>
      <point x="561" y="615.999" type="curve" smooth="yes"/>
      <point x="460.928" y="585.544"/>
      <point x="389.209" y="606.403"/>
      <point x="283.5" y="540.999" type="curve" smooth="yes"/>
      <point x="110.28" y="433.825"/>
      <point x="155.876" y="271.599"/>
      <point x="237.501" y="191.5" type="curve" smooth="yes"/>
      <point x="306.515" y="123.775"/>
      <point x="386.682" y="136.275"/>
      <point x="478.001" y="229" type="curve" smooth="yes"/>
      <point x="555.054" y="307.429"/>
      <point x="642.663" y="511.455"/>
    </contour>
    <contour>
      <point x="1567.5" y="1037" type="curve" smooth="yes"/>
      <point x="1683.39" y="1122.25"/>
      <point x="1867.18" y="1334.91"/>
      <point x="1732" y="1402.5" type="curve" smooth="yes"/>
      <point x="1708.67" y="1414.17"/>
      <point x="1677.33" y="1410"/>
      <point x="1638" y="1390" type="curve" smooth="yes"/>
      <point x="1548.1" y="1342.91"/>
      <point x="1378.46" y="984.311"/>
      <point x="1436" y="963" type="curve" smooth="yes"/>
      <point x="1447.45" y="959.182"/>
      <point x="1498.38" y="975.725"/>
      <point x="1513.5" y="993" type="curve" smooth="yes"/>
      <point x="1520.5" y="1001"/>
      <point x="1538.5" y="1015.67"/>
    </contour>
    <contour>
      <point x="703.499" y="1366.5" type="curve" smooth="yes"/>
      <point x="966.73" y="1368.24"/>
      <point x="985.766" y="1373.76"/>
      <point x="1013.5" y="1401.5" type="curve" smooth="yes"/>
      <point x="1124.69" y="1512.69"/>
      <point x="1182.84" y="1507.24"/>
      <point x="1241" y="1453.5" type="curve" smooth="yes"/>
      <point x="1252.55" y="1442.82"/>
      <point x="1301.02" y="1392.75"/>
      <point x="1260.5" y="1337.5" type="curve" smooth="yes"/>
      <point x="1186.4" y="1236.45"/>
      <point x="1131.68" y="1374.07"/>
      <point x="1054" y="1300" type="curve" smooth="yes"/>
      <point x="1025.33" y="1272.66"/>
      <point x="1000.83" y="1219.83"/>
      <point x="980.497" y="1141.5" type="curve" smooth="yes"/>
      <point x="962.152" y="1070.82"/>
      <point x="900.216" y="845.51"/>
      <point x="899.498" y="842.496" type="curve" smooth="yes"/>
      <point x="899.288" y="841.615"/>
      <point x="883.138" y="771.157"/>
      <point x="903.498" y="751.996" type="curve" smooth="yes"/>
      <point x="936.018" y="721.393"/>
      <point x="1145.19" y="802.139"/>
      <point x="1167.5" y="828.497" type="curve" smooth="yes"/>
      <point x="1219.09" y="889.465"/>
      <point x="1328.52" y="1353.25"/>
      <point x="1558.5" y="1458.5" type="curve" smooth="yes"/>
      <point x="1685.48" y="1516.61"/>
      <point x="1809.61" y="1475.05"/>
      <point x="1852" y="1399" type="curve" smooth="yes"/>
      <point x="1881.98" y="1344.48"/>
      <point x="1855.25" y="1218.3"/>
      <point x="1804" y="1163" type="curve"/>
      <point x="1776.85" y="1141.28"/>
      <point x="1752.28" y="1071.66"/>
      <point x="1604.93" y="969.796" type="curve" smooth="yes"/>
      <point x="1531.56" y="919.077"/>
      <point x="1479.9" y="886.431"/>
      <point x="1449.94" y="871.857" type="curve" smooth="yes"/>
      <point x="1391.91" y="843.632"/>
      <point x="1373.36" y="814.203"/>
      <point x="1339" y="685.998" type="curve" smooth="yes"/>
      <point x="1277.67" y="428.665"/>
      <point x="1271.5" y="268.832"/>
      <point x="1320.5" y="206.499" type="curve" smooth="yes"/>
      <point x="1427.17" y="70.8096"/>
      <point x="1653.52" y="233.884"/>
      <point x="1747" y="410.999" type="curve" smooth="yes"/>
      <point x="1776.07" y="466.236"/>
      <point x="1819.25" y="463.718"/>
      <point x="1823" y="429.999" type="curve" smooth="yes"/>
      <point x="1825.86" y="407.083"/>
      <point x="1796.05" y="345.584"/>
      <point x="1777" y="324" type="curve" smooth="yes"/>
      <point x="1767" y="312.667"/>
      <point x="1747.33" y="288.334"/>
      <point x="1718" y="251.001" type="curve" smooth="yes"/>
      <point x="1526.96" y="3.5199"/>
      <point x="1221.75" y="12.2468"/>
      <point x="1137" y="250.501" type="curve" smooth="yes"/>
      <point x="1071.07" y="435.823"/>
      <point x="1146.36" y="667.697"/>
      <point x="1127" y="704" type="curve" smooth="yes"/>
      <point x="1114.56" y="727.331"/>
      <point x="1045.65" y="686.173"/>
      <point x="920.999" y="668.5" type="curve" smooth="yes"/>
      <point x="876.332" y="662.167"/>
      <point x="853.999" y="648"/>
      <point x="853.999" y="626" type="curve" smooth="yes"/>
      <point x="853.999" y="607.851"/>
      <point x="766.679" y="382.846"/>
      <point x="727.999" y="310.499" type="curve" smooth="yes"/>
      <point x="694.547" y="247.931"/>
      <point x="595.225" y="140.777"/>
      <point x="516.5" y="102.497" type="curve" smooth="yes"/>
      <point x="443.727" y="67.1109"/>
      <point x="290.005" y="63.3088"/>
      <point x="220" y="98.9971" type="curve" smooth="yes"/>
      <point x="37.3362" y="191.097"/>
      <point x="-44.1767" y="426.047"/>
      <point x="136" y="595.497" type="curve" smooth="yes"/>
      <point x="164" y="621.83"/>
      <point x="188.333" y="636.663"/>
      <point x="209" y="639.996" type="curve" smooth="yes"/>
      <point x="288.926" y="652.886"/>
      <point x="272.924" y="669.154"/>
      <point x="478" y="686.496" type="curve" smooth="yes"/>
      <point x="660.789" y="701.953"/>
      <point x="660.789" y="701.953"/>
      <point x="682.063" y="731.209" type="curve" smooth="yes"/>
      <point x="702.942" y="759.919"/>
      <point x="735.777" y="945.078"/>
      <point x="800.348" y="1109.89" type="curve" smooth="yes"/>
      <point x="861.937" y="1267.09"/>
      <point x="864.392" y="1282"/>
      <point x="849.206" y="1292.85" type="curve" smooth="yes"/>
      <point x="841.757" y="1298.17"/>
      <point x="827.021" y="1300.22"/>
      <point x="805.001" y="1299" type="curve" smooth="yes"/>
      <point x="158.385" y="1287.62"/>
      <point x="231.373" y="985.936"/>
      <point x="262.001" y="933.497" type="curve" smooth="yes"/>
      <point x="312.378" y="847.245"/>
      <point x="402.32" y="868.556"/>
      <point x="415.501" y="827.996" type="curve" smooth="yes"/>
      <point x="425.013" y="798.726"/>
      <point x="376.892" y="768.106"/>
      <point x="349.5" y="767.498" type="curve" smooth="yes"/>
      <point x="273.699" y="765.815"/>
      <point x="86.6147" y="867.821"/>
      <point x="91" y="1068.5" type="curve" smooth="yes"/>
      <point x="93.1744" y="1168"/>
      <point x="160.936" y="1288.53"/>
      <point x="352.999" y="1335" type="curve" smooth="yes"/>
      <point x="435.666" y="1355"/>
      <point x="552.499" y="1365.5"/>
    </contour>
  </outline>
</glyph>
<glyph name="I" format="2">
  <advance width="1403"/>
  <unicode hex="0049"/>
  <outline>
    <contour>
      <point x="336.001" y="1187.5" type="curve" smooth="yes"/>
      <point x="619.898" y="1378.62"/>
      <point x="1043.04" y="1341.14"/>
      <point x="1233.5" y="1432" type="curve" smooth="yes"/>
      <point x="1286.95" y="1457.5"/>
      <point x="1385.78" y="1499.86"/>
      <point x="1366.5" y="1400.5" type="curve" smooth="yes"/>
      <point x="1345.01" y="1289.74"/>
      <point x="1288.34" y="1410.34"/>
      <point x="1177" y="1215.5" type="curve" smooth="yes"/>
      <point x="1135.67" y="1143.17"/>
      <point x="1084.33" y="1023.67"/>
      <point x="1023" y="857" type="curve" smooth="yes"/>
      <point x="988.002" y="762.5" type="line" smooth="yes"/>
      <point x="923.484" y="588.301"/>
      <point x="923.484" y="588.301"/>
      <point x="893.502" y="495.5" type="curve" smooth="yes"/>
      <point x="883.078" y="463.235"/>
      <point x="765.87" y="118.037"/>
      <point x="492.812" y="20.3984" type="curve" smooth="yes"/>
      <point x="91.6458" y="-123.048"/>
      <point x="-137.534" y="470.549"/>
      <point x="194.002" y="633.002" type="curve"/>
      <point x="450.579" y="746.017"/>
      <point x="659.359" y="577.422"/>
      <point x="580.502" y="330.502" type="curve" smooth="yes"/>
      <point x="524.973" y="156.629"/>
      <point x="458.399" y="226.925"/>
      <point x="459.501" y="254.501" type="curve" smooth="yes"/>
      <point x="461.057" y="293.45"/>
      <point x="521.232" y="295.224"/>
      <point x="501.001" y="434.501" type="curve" smooth="yes"/>
      <point x="492.334" y="494.168"/>
      <point x="472.167" y="532.335"/>
      <point x="440.5" y="549.002" type="curve" smooth="yes"/>
      <point x="327.229" y="608.619"/>
      <point x="169.999" y="530.538"/>
      <point x="169.999" y="334.503" type="curve" smooth="yes"/>
      <point x="169.999" y="69.9913"/>
      <point x="480.983" y="20.6386"/>
      <point x="623.999" y="298.002" type="curve" smooth="yes"/>
      <point x="651.747" y="353.496"/>
      <point x="770.165" y="638.004"/>
      <point x="835.001" y="831" type="curve" smooth="yes"/>
      <point x="904.276" y="1037.21"/>
      <point x="1057.53" y="1272.18"/>
      <point x="1040" y="1299.72" type="curve" smooth="yes"/>
      <point x="1021.6" y="1328.63"/>
      <point x="962.87" y="1287.77"/>
      <point x="801.003" y="1269" type="curve" smooth="yes"/>
      <point x="711.486" y="1258.62"/>
      <point x="482.089" y="1159.92"/>
      <point x="417.002" y="1092" type="curve" smooth="yes"/>
      <point x="309.002" y="980.001"/>
      <point x="312.002" y="895.668"/>
      <point x="426.002" y="839.001" type="curve" smooth="yes"/>
      <point x="458.002" y="823.001"/>
      <point x="466.002" y="799.668"/>
      <point x="450.002" y="769.001" type="curve" smooth="yes"/>
      <point x="415.634" y="707.904"/>
      <point x="227.826" y="817.231"/>
      <point x="205.001" y="902.002" type="curve" smooth="yes"/>
      <point x="173.001" y="1012"/>
      <point x="216.668" y="1107.17"/>
    </contour>
  </outline>
</glyph>
<glyph name="J" format="2">
  <advance width="1420"/>
  <unicode hex="004A"/>
  <outline>
    <contour>
      <point x="505.5" y="1324.5" type="curve" smooth="yes"/>
      <point x="768.23" y="1449.14"/>
      <point x="962.12" y="1386.59"/>
      <point x="1158.5" y="1460" type="curve" smooth="yes"/>
      <point x="1268.16" y="1500.99"/>
      <point x="1302.22" y="1497.28"/>
      <point x="1341" y="1484.5" type="curve" smooth="yes"/>
      <point x="1370.33" y="1474.83"/>
      <point x="1385" y="1458.83"/>
      <point x="1385" y="1436.5" type="curve" smooth="yes"/>
      <point x="1385" y="1400.93"/>
      <point x="1351.18" y="1356.82"/>
      <point x="1264" y="1368.5" type="curve" smooth="yes"/>
      <point x="1166.03" y="1381.62"/>
      <point x="1131.95" y="1304.18"/>
      <point x="1010.5" y="917.498" type="curve" smooth="yes"/>
      <point x="981.498" y="825.165"/>
      <point x="966.998" y="774.457"/>
      <point x="966.998" y="765.374" type="curve" smooth="yes"/>
      <point x="966.998" y="756.291"/>
      <point x="931.331" y="635.833"/>
      <point x="859.998" y="404" type="curve" smooth="yes"/>
      <point x="823.998" y="288" type="line" smooth="yes"/>
      <point x="822.631" y="283.47"/>
      <point x="738.13" y="17.1283"/>
      <point x="598.5" y="-128" type="curve" smooth="yes"/>
      <point x="427.962" y="-305.254"/>
      <point x="120.24" y="-301.207"/>
      <point x="46" y="-48.5" type="curve" smooth="yes"/>
      <point x="-8.73603" y="137.817"/>
      <point x="133.125" y="316.461"/>
      <point x="323.499" y="317.5" type="curve" smooth="yes"/>
      <point x="471.942" y="318.31"/>
      <point x="512.999" y="202.638"/>
      <point x="512.999" y="125" type="curve" smooth="yes"/>
      <point x="512.999" y="-11.5758"/>
      <point x="401.069" y="-92.5452"/>
      <point x="370.999" y="-41" type="curve" smooth="yes"/>
      <point x="348.987" y="-3.26825"/>
      <point x="431.031" y="46.7481"/>
      <point x="423.498" y="134.999" type="curve" smooth="yes"/>
      <point x="412.995" y="258.054"/>
      <point x="247.975" y="225.906"/>
      <point x="200.999" y="79.498" type="curve" smooth="yes"/>
      <point x="161.362" y="-44.0375"/>
      <point x="222.708" y="-166.952"/>
      <point x="335.499" y="-145.502" type="curve" smooth="yes"/>
      <point x="447.145" y="-124.269"/>
      <point x="553.846" y="-42.9172"/>
      <point x="730.999" y="624.999" type="curve" smooth="yes"/>
      <point x="732.816" y="631.892"/>
      <point x="860.828" y="1084.39"/>
      <point x="968.998" y="1297" type="curve" smooth="yes"/>
      <point x="996.779" y="1352.56"/>
      <point x="989.153" y="1360.69"/>
      <point x="826.312" y="1331.12" type="curve" smooth="yes"/>
      <point x="470.88" y="1266.57"/>
      <point x="422.794" y="1032.62"/>
      <point x="442" y="968.999" type="curve" smooth="yes"/>
      <point x="468.462" y="881.346"/>
      <point x="575.185" y="887.004"/>
      <point x="547.5" y="834.5" type="curve" smooth="yes"/>
      <point x="537.833" y="816.167"/>
      <point x="520.666" y="807"/>
      <point x="495.999" y="807" type="curve" smooth="yes"/>
      <point x="394.286" y="807"/>
      <point x="220.671" y="944.91"/>
      <point x="318" y="1163" type="curve" smooth="yes"/>
      <point x="345.333" y="1224.33"/>
      <point x="407.833" y="1278.17"/>
    </contour>
  </outline>
</glyph>
<glyph name="K" format="2">
  <advance width="1917"/>
  <unicode hex="004B"/>
  <outline>
    <contour>
      <point x="1679.5" y="1491" type="curve" smooth="yes"/>
      <point x="1763.65" y="1491"/>
      <point x="1882" y="1395.95"/>
      <point x="1882" y="1314" type="curve" smooth="yes"/>
      <point x="1882" y="1238.5"/>
      <point x="1862.33" y="1227.32"/>
      <point x="1801.5" y="1282" type="curve" smooth="yes"/>
      <point x="1711.38" y="1363"/>
      <point x="1579.72" y="1270.64"/>
      <point x="1574" y="1263.5" type="curve" smooth="yes"/>
      <point x="1564.17" y="1251.21"/>
      <point x="1516.82" y="1221.82"/>
      <point x="1507" y="1212" type="curve"/>
      <point x="1466" y="1178" type="line"/>
      <point x="1332.75" y="1070.75"/>
      <point x="1242.44" y="993.436"/>
      <point x="1195.07" y="946.061" type="curve" smooth="yes"/>
      <point x="1147.69" y="898.686"/>
      <point x="1124" y="871.331"/>
      <point x="1124" y="863.998" type="curve" smooth="yes"/>
      <point x="1124" y="825.018"/>
      <point x="1335.74" y="753.809"/>
      <point x="1210.5" y="383.497" type="curve" smooth="yes"/>
      <point x="1153.36" y="214.518"/>
      <point x="1147.58" y="155.25"/>
      <point x="1190" y="109.996" type="curve" smooth="yes"/>
      <point x="1254.33" y="40.3062"/>
      <point x="1392.56" y="124.832"/>
      <point x="1514" y="306.996" type="curve" smooth="yes"/>
      <point x="1585.06" y="413.59"/>
      <point x="1597.3" y="423.846"/>
      <point x="1620" y="412.496" type="curve" smooth="yes"/>
      <point x="1637.82" y="403.589"/>
      <point x="1644.73" y="360.506"/>
      <point x="1568.5" y="251.498" type="curve" smooth="yes"/>
      <point x="1331.56" y="-87.3511"/>
      <point x="1086.42" y="-43.1875"/>
      <point x="1013" y="90.998" type="curve" smooth="yes"/>
      <point x="940.23" y="220.003"/>
      <point x="1096.5" y="535.639"/>
      <point x="1066" y="710.999" type="curve" smooth="yes"/>
      <point x="1055.33" y="772.332"/>
      <point x="1025" y="802.999"/>
      <point x="975.001" y="802.999" type="curve" smooth="yes"/>
      <point x="867.825" y="802.999"/>
      <point x="927.939" y="687.265"/>
      <point x="743.908" y="312.147" type="curve" smooth="yes"/>
      <point x="624.917" y="69.6024"/>
      <point x="507.789" y="-5.4523"/>
      <point x="286" y="-8.00098" type="curve" smooth="yes"/>
      <point x="233.641" y="-8.00098"/>
      <point x="108.486" y="50.2733"/>
      <point x="61.998" y="136.499" type="curve" smooth="yes"/>
      <point x="22.4024" y="209.941"/>
      <point x="22.7034" y="395.94"/>
      <point x="83.9971" y="466.498" type="curve" smooth="yes"/>
      <point x="137.19" y="527.731"/>
      <point x="289.936" y="566.348"/>
      <point x="309.497" y="564.998" type="curve" smooth="yes"/>
      <point x="311.516" y="564.859"/>
      <point x="437.226" y="539.12"/>
      <point x="488.497" y="470.497" type="curve" smooth="yes"/>
      <point x="510.164" y="441.497"/>
      <point x="521.164" y="395.497"/>
      <point x="521.497" y="332.497" type="curve" smooth="yes"/>
      <point x="522.137" y="211.371"/>
      <point x="382.911" y="150.194"/>
      <point x="362.497" y="187.997" type="curve" smooth="yes"/>
      <point x="339.134" y="231.262"/>
      <point x="414.234" y="251.326"/>
      <point x="415.997" y="331.496" type="curve" smooth="yes"/>
      <point x="417.187" y="385.591"/>
      <point x="387.962" y="444.996"/>
      <point x="328.997" y="444.996" type="curve" smooth="yes"/>
      <point x="223.384" y="444.996"/>
      <point x="93.3438" y="210.499"/>
      <point x="247.498" y="124.496" type="curve" smooth="yes"/>
      <point x="364.761" y="59.0749"/>
      <point x="486.686" y="150.116"/>
      <point x="513.5" y="219.996" type="curve" smooth="yes"/>
      <point x="548.608" y="311.49"/>
      <point x="541.475" y="258.455"/>
      <point x="621.056" y="468.431" type="curve" smooth="yes"/>
      <point x="724.352" y="740.978"/>
      <point x="666.497" y="741.13"/>
      <point x="876.001" y="1220" type="curve" smooth="yes"/>
      <point x="893.334" y="1258.66"/>
      <point x="898.667" y="1280.83"/>
      <point x="892" y="1286.5" type="curve" smooth="yes"/>
      <point x="885.333" y="1292.16"/>
      <point x="861.5" y="1288"/>
      <point x="820.5" y="1274" type="curve" smooth="yes"/>
      <point x="779.5" y="1260"/>
      <point x="720.667" y="1243.33"/>
      <point x="644" y="1224" type="curve" smooth="yes"/>
      <point x="452.99" y="1175.83"/>
      <point x="161.282" y="992.188"/>
      <point x="291.002" y="849.997" type="curve"/>
      <point x="360.662" y="789.715"/>
      <point x="365.002" y="784.107"/>
      <point x="365.002" y="767.997" type="curve" smooth="yes"/>
      <point x="365.002" y="677.727"/>
      <point x="81.8449" y="741.02"/>
      <point x="111.503" y="960.499" type="curve" smooth="yes"/>
      <point x="134.242" y="1128.78"/>
      <point x="299.131" y="1193.25"/>
      <point x="411.002" y="1237" type="curve" smooth="yes"/>
      <point x="515.002" y="1277.67"/>
      <point x="603.335" y="1302.67"/>
      <point x="676.002" y="1312" type="curve" smooth="yes"/>
      <point x="727.941" y="1318.77"/>
      <point x="867.726" y="1352"/>
      <point x="918.072" y="1352" type="curve" smooth="yes"/>
      <point x="972.624" y="1352"/>
      <point x="998.754" y="1416.03"/>
      <point x="1097.5" y="1452.5" type="curve" smooth="yes"/>
      <point x="1157.73" y="1474.75"/>
      <point x="1192.32" y="1470.57"/>
      <point x="1241.5" y="1398" type="curve" smooth="yes"/>
      <point x="1261.83" y="1368"/>
      <point x="1272" y="1345"/>
      <point x="1272" y="1329" type="curve" smooth="yes"/>
      <point x="1272" y="1258.66"/>
      <point x="1211.54" y="1234.29"/>
      <point x="1147.5" y="1288" type="curve" smooth="yes"/>
      <point x="1116.5" y="1314"/>
      <point x="1094.5" y="1321"/>
      <point x="1081.5" y="1309" type="curve" smooth="yes"/>
      <point x="1054.44" y="1284.02"/>
      <point x="921.209" y="916"/>
      <point x="992.999" y="916" type="curve" smooth="yes"/>
      <point x="1038.09" y="916"/>
      <point x="1299.97" y="1260.58"/>
      <point x="1302.51" y="1264.49" type="curve" smooth="yes"/>
      <point x="1304.9" y="1268.19"/>
      <point x="1505.1" y="1491"/>
    </contour>
  </outline>
</glyph>
<glyph name="L" format="2">
  <advance width="1577"/>
  <unicode hex="004C"/>
  <outline>
    <contour>
      <point x="122" y="402.501" type="curve" smooth="yes"/>
      <point x="122" y="377.7"/>
      <point x="156.325" y="348.001"/>
      <point x="199" y="348.001" type="curve" smooth="yes"/>
      <point x="254.831" y="348.001"/>
      <point x="353.357" y="417.796"/>
      <point x="317" y="459" type="curve"/>
      <point x="255.022" y="489.991"/>
      <point x="122" y="439.815"/>
    </contour>
    <contour>
      <point x="1314" y="1432" type="curve" smooth="yes"/>
      <point x="1337.18" y="1515.44"/>
      <point x="1317.45" y="1594.22"/>
      <point x="1196" y="1564.5" type="curve" smooth="yes"/>
      <point x="1034.64" y="1525.02"/>
      <point x="940.022" y="1174.55"/>
      <point x="946" y="1159" type="curve" smooth="yes"/>
      <point x="969.579" y="1094.69"/>
      <point x="1281.53" y="1323.78"/>
    </contour>
    <contour>
      <point x="953.999" y="1536" type="curve" smooth="yes"/>
      <point x="1111.5" y="1684.75"/>
      <point x="1398.99" y="1694.15"/>
      <point x="1398.99" y="1498" type="curve" smooth="yes"/>
      <point x="1398.99" y="1334.6"/>
      <point x="1218.48" y="1163.18"/>
      <point x="932.994" y="1045" type="curve" smooth="yes"/>
      <point x="868.558" y="1018.15"/>
      <point x="863.736" y="887.357"/>
      <point x="760.494" y="683.001" type="curve" smooth="yes"/>
      <point x="728.161" y="619.001"/>
      <point x="701.161" y="573.501"/>
      <point x="679.494" y="546.501" type="curve" smooth="yes"/>
      <point x="600.448" y="447.999"/>
      <point x="593.001" y="436.024"/>
      <point x="645.776" y="409.266" type="curve" smooth="yes"/>
      <point x="648.793" y="407.736"/>
      <point x="931.28" y="245.714"/>
      <point x="937.994" y="239" type="curve" smooth="yes"/>
      <point x="1072.31" y="135.892"/>
      <point x="1293.41" y="87.8613"/>
      <point x="1392.99" y="138.998" type="curve" smooth="yes"/>
      <point x="1426.64" y="156.493"/>
      <point x="1481.99" y="210.271"/>
      <point x="1481.99" y="227.498" type="curve" smooth="yes"/>
      <point x="1481.99" y="253.058"/>
      <point x="1592.25" y="278.305"/>
      <point x="1515" y="159.998" type="curve" smooth="yes"/>
      <point x="1408.13" y="-2.97664"/>
      <point x="1225" y="-47.2763"/>
      <point x="1050" y="50.998" type="curve" smooth="yes"/>
      <point x="900.662" y="134.331"/>
      <point x="816.495" y="184.664"/>
      <point x="797.495" y="201.997" type="curve" smooth="yes"/>
      <point x="778.495" y="219.33"/>
      <point x="759.495" y="233.33"/>
      <point x="740.495" y="243.997" type="curve" smooth="yes"/>
      <point x="682.571" y="276.517"/>
      <point x="567.545" y="360.205"/>
      <point x="533.496" y="370.498" type="curve" smooth="yes"/>
      <point x="476.018" y="387.874"/>
      <point x="334.963" y="255.176"/>
      <point x="178.497" y="259.499" type="curve" smooth="yes"/>
      <point x="56.4575" y="262.871"/>
      <point x="34.9971" y="359.052"/>
      <point x="34.9971" y="390.499" type="curve" smooth="yes"/>
      <point x="34.9971" y="520.903"/>
      <point x="250.573" y="567.095"/>
      <point x="366.922" y="526.375" type="curve" smooth="yes"/>
      <point x="467.32" y="491.238"/>
      <point x="485.981" y="488.119"/>
      <point x="601.997" y="738" type="curve" smooth="yes"/>
      <point x="653.997" y="850"/>
      <point x="679.997" y="915.5"/>
      <point x="679.997" y="934.5" type="curve" smooth="yes"/>
      <point x="679.997" y="953.5"/>
      <point x="676.83" y="963.667"/>
      <point x="670.497" y="965" type="curve" smooth="yes"/>
      <point x="633.139" y="972.863"/>
      <point x="538.804" y="909.928"/>
      <point x="377.499" y="959.5" type="curve" smooth="yes"/>
      <point x="202.07" y="1013.41"/>
      <point x="57.4442" y="1173.29"/>
      <point x="172.499" y="1368" type="curve" smooth="yes"/>
      <point x="173.538" y="1369.76"/>
      <point x="279.282" y="1548"/>
      <point x="430.997" y="1519" type="curve" smooth="yes"/>
      <point x="501.241" y="1506.6"/>
      <point x="503.776" y="1450.94"/>
      <point x="433.997" y="1414" type="curve" smooth="yes"/>
      <point x="233.729" y="1304.99"/>
      <point x="207.696" y="1057.83"/>
      <point x="490.497" y="1023.5" type="curve" smooth="yes"/>
      <point x="601.938" y="1009.97"/>
      <point x="714.819" y="1032.86"/>
      <point x="732.999" y="1086" type="curve" smooth="yes"/>
      <point x="790.959" y="1270.02"/>
      <point x="909.33" y="1493.81"/>
    </contour>
  </outline>
</glyph>
<glyph name="M" format="2">
  <advance width="2039"/>
  <unicode hex="004D"/>
  <outline>
    <contour>
      <point x="564.005" y="367.504" type="curve" smooth="yes"/>
      <point x="564.005" y="281.599"/>
      <point x="558.625" y="271.004"/>
      <point x="529.005" y="271.004" type="curve" smooth="yes"/>
      <point x="484.04" y="271.004"/>
      <point x="459.482" y="199.259"/>
      <point x="413.005" y="207.004" type="curve" smooth="yes"/>
      <point x="383.102" y="211.987"/>
      <point x="374.686" y="236.009"/>
      <point x="426.506" y="301.003" type="curve" smooth="yes"/>
      <point x="482.241" y="370.908"/>
      <point x="468.349" y="490.838"/>
      <point x="323.005" y="447.003" type="curve" smooth="yes"/>
      <point x="194.07" y="408.117"/>
      <point x="146.671" y="243.255"/>
      <point x="263.005" y="142.002" type="curve" smooth="yes"/>
      <point x="331.672" y="81.335"/>
      <point x="412.339" y="96.335"/>
      <point x="505.006" y="187.002" type="curve" smooth="yes"/>
      <point x="589.594" y="271.59"/>
      <point x="559.917" y="215.003"/>
      <point x="621.007" y="299.001" type="curve" smooth="yes"/>
      <point x="708.073" y="418.717"/>
      <point x="745.806" y="493.606"/>
      <point x="877.007" y="831.501" type="curve" smooth="yes"/>
      <point x="961.007" y="1047.83"/>
      <point x="1014.67" y="1180.33"/>
      <point x="1038.01" y="1229" type="curve" smooth="yes"/>
      <point x="1061.34" y="1277.67"/>
      <point x="1071.17" y="1306.17"/>
      <point x="1067.51" y="1314.5" type="curve" smooth="yes"/>
      <point x="1058" y="1336.1"/>
      <point x="1024.75" y="1297.1"/>
      <point x="787.504" y="1252" type="curve" smooth="yes"/>
      <point x="695.94" y="1234.59"/>
      <point x="269.766" y="1142.09"/>
      <point x="242.503" y="924" type="curve" smooth="yes"/>
      <point x="228.258" y="810.044"/>
      <point x="372.352" y="809.485"/>
      <point x="349.002" y="755.001" type="curve" smooth="yes"/>
      <point x="314.494" y="674.481"/>
      <point x="-12.0991" y="791.603"/>
      <point x="114.002" y="1041" type="curve" smooth="yes"/>
      <point x="170.514" y="1152.77"/>
      <point x="341.739" y="1236.43"/>
      <point x="627.678" y="1292" type="curve" smooth="yes"/>
      <point x="913.616" y="1347.56"/>
      <point x="1084.15" y="1393.71"/>
      <point x="1139.26" y="1430.47" type="curve" smooth="yes"/>
      <point x="1194.38" y="1467.22"/>
      <point x="1233.96" y="1458.73"/>
      <point x="1258" y="1405" type="curve" smooth="yes"/>
      <point x="1286.92" y="1334.02"/>
      <point x="1263.86" y="938.403"/>
      <point x="1265" y="910.001" type="curve" smooth="yes"/>
      <point x="1266.29" y="877.821"/>
      <point x="1281.72" y="854.332"/>
      <point x="1300" y="870.5" type="curve" smooth="yes"/>
      <point x="1323.84" y="891.586"/>
      <point x="1501.84" y="1204.54"/>
      <point x="1682.5" y="1374.5" type="curve" smooth="yes"/>
      <point x="1738.99" y="1427.64"/>
      <point x="1847.86" y="1530.06"/>
      <point x="1913.01" y="1407" type="curve" smooth="yes"/>
      <point x="1927.3" y="1379.85"/>
      <point x="1927.3" y="1379.85"/>
      <point x="1887.99" y="1256.57" type="curve" smooth="yes"/>
      <point x="1865.33" y="1185.53"/>
      <point x="1834.01" y="1075.34"/>
      <point x="1794.01" y="926.004" type="curve"/>
      <point x="1748.01" y="782.671"/>
      <point x="1710.84" y="628.004"/>
      <point x="1682.51" y="462.004" type="curve" smooth="yes"/>
      <point x="1654.17" y="296.004"/>
      <point x="1648.34" y="196.671"/>
      <point x="1665.01" y="164.004" type="curve" smooth="yes"/>
      <point x="1681.68" y="131.337"/>
      <point x="1705.68" y="115.004"/>
      <point x="1737.01" y="115.004" type="curve" smooth="yes"/>
      <point x="1776.18" y="115.004"/>
      <point x="1890.59" y="231.235"/>
      <point x="1929.01" y="311.504" type="curve" smooth="yes"/>
      <point x="1947.68" y="350.504"/>
      <point x="1963.68" y="371.004"/>
      <point x="1977.01" y="373.004" type="curve" smooth="yes"/>
      <point x="2089.11" y="389.02"/>
      <point x="1832.23" y="-89.5446"/>
      <point x="1590.51" y="42.0059" type="curve" smooth="yes"/>
      <point x="1459.92" y="113.075"/>
      <point x="1469.66" y="272.373"/>
      <point x="1474.01" y="343.506" type="curve" smooth="yes"/>
      <point x="1478.68" y="419.839"/>
      <point x="1489.51" y="494.006"/>
      <point x="1506.51" y="566.006" type="curve" smooth="yes"/>
      <point x="1523.51" y="638.006"/>
      <point x="1539.18" y="710.839"/>
      <point x="1553.51" y="784.506" type="curve" smooth="yes"/>
      <point x="1592.94" y="987.148"/>
      <point x="1709.78" y="1242.26"/>
      <point x="1674.28" y="1244.18" type="curve" smooth="yes"/>
      <point x="1640.87" y="1245.98"/>
      <point x="1437.68" y="948.443"/>
      <point x="1419.01" y="912.506" type="curve" smooth="yes"/>
      <point x="1417.68" y="909.958"/>
      <point x="1298.94" y="704.447"/>
      <point x="1279.51" y="661.506" type="curve" smooth="yes"/>
      <point x="1252.25" y="601.279"/>
      <point x="1133.01" y="365.457"/>
      <point x="1120.01" y="351.006" type="curve" smooth="yes"/>
      <point x="1089.17" y="312.127"/>
      <point x="1033.11" y="328.711"/>
      <point x="1018.01" y="385.005" type="curve" smooth="yes"/>
      <point x="993.675" y="475.704"/>
      <point x="1119.9" y="1121"/>
      <point x="1078.59" y="1121" type="curve" smooth="yes"/>
      <point x="1028.69" y="1121"/>
      <point x="856.027" y="310.918"/>
      <point x="558.008" y="80.5029" type="curve" smooth="yes"/>
      <point x="486.008" y="24.8359"/>
      <point x="403.008" y="-1.99707"/>
      <point x="309.008" y="0.00292969" type="curve" smooth="yes"/>
      <point x="245.136" y="1.36259"/>
      <point x="117.346" y="74.0288"/>
      <point x="78.0078" y="131.003" type="curve" smooth="yes"/>
      <point x="4.90377" y="239.305"/>
      <point x="27.2838" y="419.414"/>
      <point x="123.007" y="503.003" type="curve" smooth="yes"/>
      <point x="175.347" y="548.634"/>
      <point x="352.405" y="590.294"/>
      <point x="427.506" y="571.003" type="curve" smooth="yes"/>
      <point x="502.221" y="551.811"/>
      <point x="564.005" y="454.411"/>
    </contour>
  </outline>
</glyph>
<glyph name="N" format="2">
  <advance width="1969"/>
  <unicode hex="004E"/>
  <outline>
    <contour>
      <point x="404.5" y="283" type="curve" smooth="yes"/>
      <point x="417.595" y="283"/>
      <point x="450" y="353.899"/>
      <point x="450" y="380.5" type="curve" smooth="yes"/>
      <point x="450" y="470.161"/>
      <point x="310.595" y="492.398"/>
      <point x="241.501" y="393.001" type="curve" smooth="yes"/>
      <point x="139.021" y="245.574"/>
      <point x="242.604" y="136.253"/>
      <point x="307.5" y="116.501" type="curve" smooth="yes"/>
      <point x="455.212" y="71.5436"/>
      <point x="581.463" y="277.713"/>
      <point x="546.999" y="289.502" type="curve" smooth="yes"/>
      <point x="509.303" y="302.397"/>
      <point x="432.819" y="166.066"/>
      <point x="388.999" y="218" type="curve" smooth="yes"/>
      <point x="377.773" y="232.034"/>
      <point x="391.698" y="283"/>
    </contour>
    <contour>
      <point x="1838" y="1512" type="curve" smooth="yes"/>
      <point x="1885.82" y="1543.88"/>
      <point x="1934" y="1510.25"/>
      <point x="1934" y="1473.51" type="curve" smooth="yes"/>
      <point x="1934" y="1381.66"/>
      <point x="1852.16" y="1458.19"/>
      <point x="1746.5" y="1297.01" type="curve" smooth="yes"/>
      <point x="1556.37" y="1006.99"/>
      <point x="1512.68" y="719.476"/>
      <point x="1321.5" y="258.005" type="curve" smooth="yes"/>
      <point x="1241" y="63.6875"/>
      <point x="1210.08" y="16.5414"/>
      <point x="1158.5" y="28.0039" type="curve" smooth="yes"/>
      <point x="1112.08" y="38.3204"/>
      <point x="1076.04" y="74.559"/>
      <point x="1102.37" y="474.512" type="curve" smooth="yes"/>
      <point x="1116.79" y="693.506"/>
      <point x="1127.33" y="933.67"/>
      <point x="1134" y="1195" type="curve" smooth="yes"/>
      <point x="1137.8" y="1284.41"/>
      <point x="1110.09" y="1241.09"/>
      <point x="1072" y="1164" type="curve" smooth="yes"/>
      <point x="932.034" y="880.738"/>
      <point x="811.289" y="366.179"/>
      <point x="584.998" y="118.999" type="curve" smooth="yes"/>
      <point x="494.919" y="20.6045"/>
      <point x="334.724" y="-23.3807"/>
      <point x="242.998" y="11.999" type="curve" smooth="yes"/>
      <point x="104.998" y="64.666"/>
      <point x="35.8311" y="156.833"/>
      <point x="35.498" y="288.5" type="curve" smooth="yes"/>
      <point x="35.165" y="420.167"/>
      <point x="97.998" y="506.667"/>
      <point x="223.998" y="548" type="curve" smooth="yes"/>
      <point x="289.889" y="568.784"/>
      <point x="547.839" y="632.106"/>
      <point x="561.999" y="355.001" type="curve" smooth="yes"/>
      <point x="564.666" y="307.668"/>
      <point x="570.999" y="283.668"/>
      <point x="580.999" y="283.001" type="curve" smooth="yes"/>
      <point x="605.374" y="283.001"/>
      <point x="742.485" y="524.367"/>
      <point x="866" y="856.501" type="curve" smooth="yes"/>
      <point x="920.667" y="1003.5"/>
      <point x="968.834" y="1117.17"/>
      <point x="1010.5" y="1197.5" type="curve" smooth="yes"/>
      <point x="1052.17" y="1277.83"/>
      <point x="1070.17" y="1320.83"/>
      <point x="1064.5" y="1326.5" type="curve" smooth="yes"/>
      <point x="1045.57" y="1345.44"/>
      <point x="752.783" y="1274"/>
      <point x="741.002" y="1274" type="curve" smooth="yes"/>
      <point x="664.85" y="1274"/>
      <point x="434.128" y="1173.11"/>
      <point x="339.502" y="1089" type="curve" smooth="yes"/>
      <point x="256.256" y="1015"/>
      <point x="210.552" y="897.337"/>
      <point x="290.003" y="847.5" type="curve" smooth="yes"/>
      <point x="366.1" y="799.767"/>
      <point x="371.126" y="787.351"/>
      <point x="343.503" y="758.5" type="curve" smooth="yes"/>
      <point x="287.549" y="700.058"/>
      <point x="119.854" y="775.694"/>
      <point x="93.0029" y="901" type="curve" smooth="yes"/>
      <point x="52.9598" y="1085.2"/>
      <point x="245.622" y="1244.42"/>
      <point x="603.002" y="1321" type="curve"/>
      <point x="833.969" y="1374.89"/>
      <point x="1040.91" y="1397.59"/>
      <point x="1128.97" y="1434.51" type="curve" smooth="yes"/>
      <point x="1135.57" y="1437.28"/>
      <point x="1250.42" y="1484.5"/>
      <point x="1276" y="1431" type="curve" smooth="yes"/>
      <point x="1326.99" y="1324.39"/>
      <point x="1286.57" y="522.433"/>
      <point x="1305" y="445.001" type="curve"/>
      <point x="1344.07" y="416.589"/>
      <point x="1369.85" y="642.133"/>
      <point x="1499" y="965" type="curve" smooth="yes"/>
      <point x="1614.33" y="1253.67"/>
      <point x="1727.33" y="1436"/>
    </contour>
  </outline>
</glyph>
<glyph name="O" format="2">
  <advance width="1220"/>
  <unicode hex="004F"/>
  <outline>
    <contour>
      <point x="869.999" y="912.001" type="curve" smooth="yes"/>
      <point x="1128.07" y="1105.55"/>
      <point x="981.066" y="1566.15"/>
      <point x="642.502" y="1350.5" type="curve" smooth="yes"/>
      <point x="325.75" y="1148.74"/>
      <point x="65.1749" y="396.74"/>
      <point x="307.501" y="127.003" type="curve" smooth="yes"/>
      <point x="463.706" y="-46.8717"/>
      <point x="750.661" y="71.6056"/>
      <point x="887" y="285.003" type="curve" smooth="yes"/>
      <point x="1019.67" y="496.336"/>
      <point x="1091.33" y="702.336"/>
      <point x="1102" y="903.003" type="curve" smooth="yes"/>
      <point x="1105.34" y="964.233"/>
      <point x="1111.37" y="1127.11"/>
      <point x="1048" y="1019" type="curve" smooth="yes"/>
      <point x="929.432" y="819.239"/>
      <point x="841.721" y="749.236"/>
      <point x="714.002" y="763.503" type="curve" smooth="yes"/>
      <point x="395.011" y="799.135"/>
      <point x="499.519" y="1134.42"/>
      <point x="653.5" y="1249.5" type="curve" smooth="yes"/>
      <point x="685.167" y="1273.17"/>
      <point x="713.167" y="1285"/>
      <point x="737.5" y="1285" type="curve" smooth="yes"/>
      <point x="784.062" y="1285"/>
      <point x="794.789" y="1285"/>
      <point x="722.499" y="1130" type="curve" smooth="yes"/>
      <point x="651.702" y="978.202"/>
      <point x="640.94" y="927.671"/>
      <point x="671.499" y="891.001" type="curve" smooth="yes"/>
      <point x="711.788" y="842.655"/>
      <point x="785.14" y="848.355"/>
    </contour>
    <contour>
      <point x="732.002" y="1483" type="curve" smooth="yes"/>
      <point x="771.335" y="1488.33"/>
      <point x="796.003" y="1491"/>
      <point x="806.003" y="1491" type="curve" smooth="yes"/>
      <point x="809.847" y="1491"/>
      <point x="1049.89" y="1481.62"/>
      <point x="1082" y="1223.5" type="curve" smooth="yes"/>
      <point x="1090.67" y="1153.84"/>
      <point x="1106" y="1119"/>
      <point x="1128" y="1119" type="curve" smooth="yes"/>
      <point x="1282.53" y="1119"/>
      <point x="1137.83" y="185.004"/>
      <point x="653.002" y="-3.99805" type="curve" smooth="yes"/>
      <point x="573.529" y="-34.9787"/>
      <point x="401.689" y="-33.0013"/>
      <point x="316.002" y="1.00195" type="curve" smooth="yes"/>
      <point x="23.7841" y="114.642"/>
      <point x="-56.0511" y="591.742"/>
      <point x="150.002" y="993.002" type="curve" smooth="yes"/>
      <point x="300.002" y="1285.67"/>
      <point x="494.002" y="1449"/>
    </contour>
  </outline>
</glyph>
<glyph name="P" format="2">
  <advance width="1708"/>
  <unicode hex="0050"/>
  <outline>
    <contour>
      <point x="1415" y="835.001" type="curve" smooth="yes"/>
      <point x="1635.36" y="1268.12"/>
      <point x="1389.48" y="1339.34"/>
      <point x="1330.29" y="1316.57" type="curve" smooth="yes"/>
      <point x="1283.21" y="1298.47"/>
      <point x="1260.8" y="1275.92"/>
      <point x="1198.34" y="1181.23" type="curve" smooth="yes"/>
      <point x="1129.32" y="1076.58"/>
      <point x="996.861" y="791.097"/>
      <point x="989.003" y="740.002" type="curve" smooth="yes"/>
      <point x="983.319" y="703.049"/>
      <point x="1004.85" y="688.317"/>
      <point x="1036" y="667.001" type="curve" smooth="yes"/>
      <point x="1159.31" y="585.575"/>
      <point x="1309.57" y="693.483"/>
      <point x="1367.5" y="759.501" type="curve" smooth="yes"/>
      <point x="1381.83" y="775.834"/>
      <point x="1397.67" y="801.001"/>
    </contour>
    <contour>
      <point x="1417" y="1490" type="curve" smooth="yes"/>
      <point x="1469.57" y="1521.16"/>
      <point x="1544.75" y="1466.11"/>
      <point x="1513.51" y="1399.01" type="curve" smooth="yes"/>
      <point x="1495.59" y="1360.52"/>
      <point x="1498.78" y="1347.5"/>
      <point x="1531.01" y="1323.01" type="curve" smooth="yes"/>
      <point x="1571.78" y="1291.71"/>
      <point x="1712.25" y="1166.96"/>
      <point x="1662.01" y="966.007" type="curve" smooth="yes"/>
      <point x="1643.44" y="895.726"/>
      <point x="1579.75" y="766.129"/>
      <point x="1541.01" y="726.007" type="curve" smooth="yes"/>
      <point x="1395.88" y="572.744"/>
      <point x="1156.1" y="516.462"/>
      <point x="1001.01" y="594.007" type="curve" smooth="yes"/>
      <point x="959.079" y="614.971"/>
      <point x="943.951" y="622.535"/>
      <point x="914.006" y="564.007" type="curve" smooth="yes"/>
      <point x="899.339" y="535.34"/>
      <point x="872.672" y="480.007"/>
      <point x="834.005" y="398.007" type="curve" smooth="yes"/>
      <point x="716.422" y="145.471"/>
      <point x="585.731" y="28.4762"/>
      <point x="402.005" y="6.00684" type="curve" smooth="yes"/>
      <point x="302.395" y="-6.76431"/>
      <point x="277.428" y="-1.43786"/>
      <point x="193.005" y="50.0068" type="curve" smooth="yes"/>
      <point x="-116.96" y="244.44"/>
      <point x="72.0177" y="609.275"/>
      <point x="388.003" y="545.006" type="curve" smooth="yes"/>
      <point x="539.19" y="514.256"/>
      <point x="564.897" y="365.428"/>
      <point x="541.003" y="296.505" type="curve" smooth="yes"/>
      <point x="524.444" y="248.739"/>
      <point x="437.04" y="176.814"/>
      <point x="387.14" y="190.721" type="curve" smooth="yes"/>
      <point x="328.965" y="206.934"/>
      <point x="438.201" y="259.094"/>
      <point x="440.004" y="346.504" type="curve" smooth="yes"/>
      <point x="443.311" y="506.798"/>
      <point x="187.458" y="442.197"/>
      <point x="207.003" y="237.004" type="curve" smooth="yes"/>
      <point x="217.286" y="129.048"/>
      <point x="403.377" y="-17.0322"/>
      <point x="585.003" y="290.004" type="curve" smooth="yes"/>
      <point x="586.719" y="292.896"/>
      <point x="719.668" y="531.004"/>
      <point x="736.002" y="590.504" type="curve" smooth="yes"/>
      <point x="745.406" y="624.76"/>
      <point x="902.656" y="951.783"/>
      <point x="935.001" y="1001" type="curve" smooth="yes"/>
      <point x="1028.33" y="1151"/>
      <point x="1089" y="1242.34"/>
      <point x="1117" y="1275" type="curve" smooth="yes"/>
      <point x="1166.2" y="1332.4"/>
      <point x="1148.26" y="1348.89"/>
      <point x="960.001" y="1318" type="curve" smooth="yes"/>
      <point x="646.668" y="1268.67"/>
      <point x="455.001" y="1170.67"/>
      <point x="385.001" y="1024" type="curve" smooth="yes"/>
      <point x="357.155" y="966.919"/>
      <point x="381.546" y="897.67"/>
      <point x="432.001" y="859.505" type="curve" smooth="yes"/>
      <point x="458.001" y="839.838"/>
      <point x="462.547" y="821.55"/>
      <point x="445.638" y="804.641" type="curve" smooth="yes"/>
      <point x="402.062" y="761.065"/>
      <point x="145.325" y="874.078"/>
      <point x="249.003" y="1090.5" type="curve" smooth="yes"/>
      <point x="275.67" y="1146.17"/>
      <point x="321.837" y="1197"/>
      <point x="387.504" y="1243" type="curve" smooth="yes"/>
      <point x="519.839" y="1335.7"/>
      <point x="867.136" y="1405.55"/>
      <point x="1134" y="1392" type="curve" smooth="yes"/>
      <point x="1236.6" y="1386.94"/>
      <point x="1246.76" y="1389.4"/>
    </contour>
  </outline>
</glyph>
<glyph name="Q" format="2">
  <advance width="1325"/>
  <unicode hex="0051"/>
  <outline>
    <contour>
      <point x="136.419" y="841.966" type="curve" smooth="yes"/>
      <point x="327.175" y="1509.61"/>
      <point x="1010.58" y="1639.59"/>
      <point x="1164" y="1339" type="curve" smooth="yes"/>
      <point x="1240.11" y="1197.28"/>
      <point x="1094.1" y="867.706"/>
      <point x="932.004" y="789.503" type="curve" smooth="yes"/>
      <point x="911.238" y="779.485"/>
      <point x="639.547" y="686.498"/>
      <point x="558.505" y="881.003" type="curve" smooth="yes"/>
      <point x="469.097" y="1095.59"/>
      <point x="690.648" y="1335.07"/>
      <point x="793.504" y="1289.5" type="curve" smooth="yes"/>
      <point x="859.864" y="1260.1"/>
      <point x="814.174" y="1222.76"/>
      <point x="805.004" y="1216" type="curve" smooth="yes"/>
      <point x="721.699" y="1154.49"/>
      <point x="646.015" y="991.305"/>
      <point x="690.004" y="909.003" type="curve" smooth="yes"/>
      <point x="770.216" y="758.93"/>
      <point x="1078.05" y="900.041"/>
      <point x="1090.5" y="1199" type="curve" smooth="yes"/>
      <point x="1096.3" y="1338.15"/>
      <point x="1046.95" y="1379.42"/>
      <point x="969.502" y="1402.5" type="curve" smooth="yes"/>
      <point x="919.169" y="1417.5"/>
      <point x="869.336" y="1416.33"/>
      <point x="820.003" y="1399" type="curve" smooth="yes"/>
      <point x="687.336" y="1351.67"/>
      <point x="587.336" y="1277.67"/>
      <point x="520.003" y="1177" type="curve" smooth="yes"/>
      <point x="392.003" y="985.002"/>
      <point x="313.17" y="797.335"/>
      <point x="283.503" y="614.002" type="curve" smooth="yes"/>
      <point x="253.836" y="430.669"/>
      <point x="280.003" y="290.336"/>
      <point x="362.003" y="193.003" type="curve" smooth="yes"/>
      <point x="418.486" y="124.698"/>
      <point x="618.391" y="63.8931"/>
      <point x="700.503" y="106.002" type="curve" smooth="yes"/>
      <point x="776.731" y="145.093"/>
      <point x="932.235" y="288.302"/>
      <point x="980.003" y="374.002" type="curve" smooth="yes"/>
      <point x="997.174" y="408.344"/>
      <point x="965.254" y="323.205"/>
      <point x="1063.5" y="520.502" type="curve" smooth="yes"/>
      <point x="1141.74" y="677.607"/>
      <point x="1204.19" y="803.025"/>
      <point x="1208" y="1024" type="curve" smooth="yes"/>
      <point x="1209.34" y="1138.94"/>
      <point x="1214.14" y="1150"/>
      <point x="1243" y="1150" type="curve" smooth="yes"/>
      <point x="1372.3" y="1150"/>
      <point x="1225.92" y="328.526"/>
      <point x="765.002" y="69" type="curve" smooth="yes"/>
      <point x="725.854" y="45.8672"/>
      <point x="708.188" y="29.5342"/>
      <point x="712.001" y="20" type="curve" smooth="yes"/>
      <point x="718.439" y="3.90474"/>
      <point x="889.269" y="-84.7425"/>
      <point x="979.501" y="-85.5" type="curve" smooth="yes"/>
      <point x="1080.47" y="-86.3476"/>
      <point x="1137.58" y="38.1933"/>
      <point x="1186" y="20.502" type="curve" smooth="yes"/>
      <point x="1210.93" y="11.3936"/>
      <point x="1181.26" y="-39.7734"/>
      <point x="1097" y="-132.999" type="curve" smooth="yes"/>
      <point x="992.061" y="-248.842"/>
      <point x="805.061" y="-216.175"/>
      <point x="536.001" y="-34.999" type="curve" smooth="yes"/>
      <point x="334.185" y="101.327"/>
      <point x="237.496" y="122.199"/>
      <point x="114" y="65.001" type="curve" smooth="yes"/>
      <point x="50.8155" y="35.5144"/>
      <point x="45.9441" y="39.7112"/>
      <point x="36.999" y="74" type="curve" smooth="yes"/>
      <point x="33.2803" y="88.2547"/>
      <point x="23.3655" y="126.261"/>
      <point x="89.7217" y="142.444" type="curve" smooth="yes"/>
      <point x="167.745" y="161.474"/>
      <point x="197.818" y="168.808"/>
      <point x="157" y="244.001" type="curve" smooth="yes"/>
      <point x="147" y="262.668"/>
      <point x="133.667" y="311.001"/>
      <point x="117" y="389.001" type="curve" smooth="yes"/>
      <point x="84.917" y="533.376"/>
      <point x="91.3896" y="684.364"/>
    </contour>
  </outline>
</glyph>
<glyph name="R" format="2">
  <advance width="1717"/>
  <unicode hex="0052"/>
  <outline>
    <contour>
      <point x="388.999" y="188" type="curve" smooth="yes"/>
      <point x="388.999" y="228.641"/>
      <point x="436.526" y="224.703"/>
      <point x="447" y="304" type="curve" smooth="yes"/>
      <point x="458.651" y="392.206"/>
      <point x="389.684" y="408.308"/>
      <point x="388.502" y="408.499" type="curve" smooth="yes"/>
      <point x="250.121" y="430.824"/>
      <point x="130.949" y="219.294"/>
      <point x="240.027" y="107.556" type="curve" smooth="yes"/>
      <point x="286.08" y="60.3798"/>
      <point x="388.036" y="36.7604"/>
      <point x="479" y="133.999" type="curve" smooth="yes"/>
      <point x="501" y="155.999"/>
      <point x="512" y="172.666"/>
      <point x="512" y="183.999" type="curve" smooth="yes"/>
      <point x="512" y="204.324"/>
      <point x="512" y="204.324"/>
      <point x="466.999" y="180" type="curve" smooth="yes"/>
      <point x="414.999" y="151.892"/>
      <point x="388.999" y="154.559"/>
    </contour>
    <contour>
      <point x="1460.5" y="990.5" type="curve" smooth="yes"/>
      <point x="1527.66" y="1147.58"/>
      <point x="1532.91" y="1244.53"/>
      <point x="1427" y="1294.5" type="curve" smooth="yes"/>
      <point x="1319.23" y="1345.35"/>
      <point x="1282.93" y="1325.27"/>
      <point x="1087" y="929" type="curve" smooth="yes"/>
      <point x="979.019" y="710.609"/>
      <point x="973.007" y="698.45"/>
      <point x="1008.5" y="673" type="curve" smooth="yes"/>
      <point x="1084.41" y="618.573"/>
      <point x="1341.07" y="711.137"/>
    </contour>
    <contour>
      <point x="347" y="525.004" type="curve" smooth="yes"/>
      <point x="482.437" y="525.004"/>
      <point x="564" y="443.694"/>
      <point x="564" y="310.004" type="curve" smooth="yes"/>
      <point x="564" y="290.671"/>
      <point x="568" y="281.004"/>
      <point x="576" y="281.004" type="curve" smooth="yes"/>
      <point x="613.99" y="281.004"/>
      <point x="772.621" y="665.945"/>
      <point x="831.499" y="765.504" type="curve" smooth="yes"/>
      <point x="834.45" y="770.494"/>
      <point x="998.621" y="1093.31"/>
      <point x="1125" y="1265.5" type="curve" smooth="yes"/>
      <point x="1173.11" y="1331.06"/>
      <point x="1150.13" y="1346.49"/>
      <point x="902.001" y="1298" type="curve" smooth="yes"/>
      <point x="304.674" y="1182.31"/>
      <point x="338.983" y="930.079"/>
      <point x="340.501" y="923.503" type="curve" smooth="yes"/>
      <point x="357.563" y="849.568"/>
      <point x="471.131" y="821.14"/>
      <point x="414.001" y="784.003" type="curve" smooth="yes"/>
      <point x="327.962" y="722.23"/>
      <point x="94.6922" y="905.167"/>
      <point x="234.001" y="1118" type="curve" smooth="yes"/>
      <point x="287.962" y="1200.44"/>
      <point x="333.874" y="1198.44"/>
      <point x="370.001" y="1229" type="curve" smooth="yes"/>
      <point x="455.131" y="1314.13"/>
      <point x="886.036" y="1401"/>
      <point x="1152" y="1386" type="curve" smooth="yes"/>
      <point x="1251.71" y="1380.75"/>
      <point x="1255.9" y="1381.21"/>
      <point x="1328.5" y="1426.5" type="curve" smooth="yes"/>
      <point x="1445.52" y="1499.51"/>
      <point x="1466.94" y="1509.56"/>
      <point x="1510" y="1473.5" type="curve" smooth="yes"/>
      <point x="1566.99" y="1425.77"/>
      <point x="1503.51" y="1382.48"/>
      <point x="1518.5" y="1349.5" type="curve" smooth="yes"/>
      <point x="1537.21" y="1308.35"/>
      <point x="1647.96" y="1284.98"/>
      <point x="1676.5" y="1123" type="curve" smooth="yes"/>
      <point x="1708.19" y="943.191"/>
      <point x="1595.95" y="830.95"/>
      <point x="1538.5" y="773.503" type="curve" smooth="yes"/>
      <point x="1491.5" y="726.503"/>
      <point x="1454.5" y="697.836"/>
      <point x="1427.5" y="687.503" type="curve" smooth="yes"/>
      <point x="1381.34" y="669.837"/>
      <point x="1227.23" y="597.468"/>
      <point x="1217.5" y="581.003" type="curve" smooth="yes"/>
      <point x="1192.49" y="538.67"/>
      <point x="1293.68" y="535.168"/>
      <point x="1242.12" y="308.666" type="curve" smooth="yes"/>
      <point x="1204.22" y="142.206"/>
      <point x="1204.65" y="70.93"/>
      <point x="1258.5" y="58.0049" type="curve" smooth="yes"/>
      <point x="1312.75" y="44.9861"/>
      <point x="1464.84" y="185.575"/>
      <point x="1505.5" y="257.504" type="curve" smooth="yes"/>
      <point x="1546.23" y="329.562"/>
      <point x="1552.01" y="333.004"/>
      <point x="1584" y="333.004" type="curve" smooth="yes"/>
      <point x="1612.18" y="333.004"/>
      <point x="1624.66" y="323.167"/>
      <point x="1563" y="226.004" type="curve" smooth="yes"/>
      <point x="1449.67" y="48.0039"/>
      <point x="1333.67" y="-41.3291"/>
      <point x="1215" y="-41.9961" type="curve" smooth="yes"/>
      <point x="1054.25" y="-41.9961"/>
      <point x="1047" y="110.503"/>
      <point x="1047" y="138.004" type="curve" smooth="yes"/>
      <point x="1047" y="232.409"/>
      <point x="1082.64" y="291.28"/>
      <point x="1086.2" y="445.908" type="curve" smooth="yes"/>
      <point x="1088.92" y="564.261"/>
      <point x="953.096" y="594.733"/>
      <point x="925.002" y="576.005" type="curve" smooth="yes"/>
      <point x="887.178" y="550.79"/>
      <point x="872.938" y="440.143"/>
      <point x="754.502" y="244.505" type="curve" smooth="yes"/>
      <point x="709.502" y="170.172"/>
      <point x="670.502" y="119.172"/>
      <point x="637.502" y="91.5049" type="curve" smooth="yes"/>
      <point x="604.502" y="63.8379"/>
      <point x="583.002" y="45.0049"/>
      <point x="573.002" y="35.0049" type="curve" smooth="yes"/>
      <point x="523.152" y="-26.7136"/>
      <point x="38.0912" y="-147.355"/>
      <point x="35.001" y="248.005" type="curve" smooth="yes"/>
      <point x="34.4097" y="323.655"/>
      <point x="60.0853" y="523.09"/>
    </contour>
  </outline>
</glyph>
<glyph name="S" format="2">
  <advance width="1229"/>
  <unicode hex="0053"/>
  <outline>
    <contour>
      <point x="832.5" y="1027" type="curve" smooth="yes"/>
      <point x="941.596" y="1096.07"/>
      <point x="1020.14" y="1170.13"/>
      <point x="994.999" y="1266.5" type="curve" smooth="yes"/>
      <point x="966.405" y="1376.11"/>
      <point x="861.628" y="1433.28"/>
      <point x="788.999" y="1381.5" type="curve" smooth="yes"/>
      <point x="620.144" y="1261.11"/>
      <point x="696.645" y="990.375"/>
      <point x="740.5" y="985.501" type="curve" smooth="yes"/>
      <point x="755.5" y="983.834"/>
      <point x="786.167" y="997.667"/>
    </contour>
    <contour>
      <point x="401.999" y="913.002" type="curve" smooth="yes"/>
      <point x="483.116" y="913.002"/>
      <point x="491.745" y="923.497"/>
      <point x="484.499" y="1033.5" type="curve" smooth="yes"/>
      <point x="477.135" y="1145.29"/>
      <point x="486.739" y="1194.48"/>
      <point x="532.999" y="1291.5" type="curve" smooth="yes"/>
      <point x="566.381" y="1361.51"/>
      <point x="622.881" y="1434.14"/>
      <point x="772.496" y="1467" type="curve" smooth="yes"/>
      <point x="868.526" y="1488.1"/>
      <point x="951.222" y="1482.61"/>
      <point x="1020.58" y="1450.54" type="curve" smooth="yes"/>
      <point x="1168.6" y="1382.1"/>
      <point x="1225" y="1251.85"/>
      <point x="1182.01" y="1168.76" type="curve" smooth="yes"/>
      <point x="1138.91" y="1085.43"/>
      <point x="1101.64" y="1054.13"/>
      <point x="947.996" y="980.001" type="curve" smooth="yes"/>
      <point x="795.996" y="906.001" type="line"/>
      <point x="777.149" y="895.231"/>
      <point x="775.274" y="859.812"/>
      <point x="792.996" y="838" type="curve" smooth="yes"/>
      <point x="980.6" y="621.214"/>
      <point x="1057.6" y="437.214"/>
      <point x="1024" y="286" type="curve" smooth="yes"/>
      <point x="963.137" y="12.1308"/>
      <point x="647.801" y="-27.239"/>
      <point x="531.12" y="-26.4814" type="curve" smooth="yes"/>
      <point x="138.059" y="-23.9294"/>
      <point x="10.2192" y="407.938"/>
      <point x="225.995" y="601" type="curve" smooth="yes"/>
      <point x="308.759" y="675.052"/>
      <point x="422.457" y="690.721"/>
      <point x="456.996" y="660.5" type="curve" smooth="yes"/>
      <point x="506.801" y="616.922"/>
      <point x="426.175" y="594.276"/>
      <point x="417.498" y="592" type="curve" smooth="yes"/>
      <point x="312.904" y="564.567"/>
      <point x="160.146" y="317.566"/>
      <point x="326.556" y="136.03" type="curve" smooth="yes"/>
      <point x="381.574" y="76.0107"/>
      <point x="457.389" y="46.001"/>
      <point x="554" y="46.001" type="curve" smooth="yes"/>
      <point x="683.344" y="46.001"/>
      <point x="759.465" y="91.4314"/>
      <point x="817.5" y="205.501" type="curve" smooth="yes"/>
      <point x="877.492" y="323.415"/>
      <point x="834.661" y="487.296"/>
      <point x="729" y="606.002" type="curve"/>
      <point x="620.975" y="744.892"/>
      <point x="681.798" y="647.397"/>
      <point x="594" y="777.002" type="curve" smooth="yes"/>
      <point x="539.689" y="857.175"/>
      <point x="536.565" y="857.599"/>
      <point x="480" y="840.002" type="curve" smooth="yes"/>
      <point x="337.599" y="792.995"/>
      <point x="70.4782" y="829.569"/>
      <point x="38.501" y="1045" type="curve" smooth="yes"/>
      <point x="5.53349" y="1267.09"/>
      <point x="230.596" y="1394.66"/>
      <point x="305.5" y="1340.5" type="curve" smooth="yes"/>
      <point x="336.225" y="1318.29"/>
      <point x="330.322" y="1292.48"/>
      <point x="287.793" y="1263.09" type="curve" smooth="yes"/>
      <point x="203.853" y="1205.08"/>
      <point x="151.564" y="1069.73"/>
      <point x="203" y="1003" type="curve" smooth="yes"/>
      <point x="248.333" y="943.002"/>
      <point x="314.666" y="913.002"/>
    </contour>
  </outline>
</glyph>
<glyph name="T" format="2">
  <advance width="1621"/>
  <unicode hex="0054"/>
  <outline>
    <contour>
      <point x="578" y="969.999" type="curve" smooth="yes"/>
      <point x="578" y="866.218"/>
      <point x="311.651" y="843.045"/>
      <point x="215" y="961.999" type="curve" smooth="yes"/>
      <point x="164.436" y="1022.68"/>
      <point x="115.911" y="1080.92"/>
      <point x="137" y="1208.5" type="curve" smooth="yes"/>
      <point x="158.561" y="1338.94"/>
      <point x="239.182" y="1449.25"/>
      <point x="438.492" y="1475.5" type="curve" smooth="yes"/>
      <point x="602.455" y="1497.1"/>
      <point x="1013.57" y="1427.53"/>
      <point x="1189.49" y="1426.5" type="curve" smooth="yes"/>
      <point x="1302.66" y="1425.84"/>
      <point x="1311.44" y="1424.08"/>
      <point x="1344.49" y="1403.5" type="curve" smooth="yes"/>
      <point x="1375.66" y="1384.09"/>
      <point x="1475.42" y="1373.61"/>
      <point x="1516.99" y="1408.5" type="curve" smooth="yes"/>
      <point x="1555.58" y="1440.89"/>
      <point x="1602.86" y="1419.01"/>
      <point x="1580.99" y="1378" type="curve"/>
      <point x="1556.7" y="1341.56"/>
      <point x="1521.62" y="1288.93"/>
      <point x="1368.99" y="1311.5" type="curve" smooth="yes"/>
      <point x="1321.66" y="1318.5"/>
      <point x="1291.83" y="1322"/>
      <point x="1279.49" y="1322" type="curve" smooth="yes"/>
      <point x="1195.98" y="1322"/>
      <point x="1159.96" y="1265.6"/>
      <point x="1059.89" y="1051.38" type="curve" smooth="yes"/>
      <point x="923.524" y="759.455"/>
      <point x="851.756" y="333.742"/>
      <point x="664.995" y="130.002" type="curve" smooth="yes"/>
      <point x="537.349" y="-9.24945"/>
      <point x="267.642" y="-71.7213"/>
      <point x="97.9961" y="120.002" type="curve" smooth="yes"/>
      <point x="-8.14221" y="239.9"/>
      <point x="19.5356" y="435.42"/>
      <point x="176.496" y="515.502" type="curve" smooth="yes"/>
      <point x="225.496" y="540.502"/>
      <point x="274.663" y="553.002"/>
      <point x="323.996" y="553.002" type="curve" smooth="yes"/>
      <point x="489.538" y="553.002"/>
      <point x="568.374" y="427.844"/>
      <point x="546.994" y="296.002" type="curve" smooth="yes"/>
      <point x="535.945" y="229.705"/>
      <point x="422.016" y="152.98"/>
      <point x="387.994" y="187.002" type="curve" smooth="yes"/>
      <point x="361.67" y="216.252"/>
      <point x="425.993" y="241.319"/>
      <point x="435.495" y="320.503" type="curve" smooth="yes"/>
      <point x="444.956" y="399.34"/>
      <point x="371.284" y="495.475"/>
      <point x="257.998" y="396.003" type="curve" smooth="yes"/>
      <point x="165.826" y="315.07"/>
      <point x="180.893" y="137.265"/>
      <point x="276.999" y="120.503" type="curve" smooth="yes"/>
      <point x="305.666" y="115.503"/>
      <point x="329.666" y="108.67"/>
      <point x="348.999" y="100.003" type="curve" smooth="yes"/>
      <point x="385.666" y="85.3359"/>
      <point x="435.666" y="105.336"/>
      <point x="498.999" y="160.003" type="curve" smooth="yes"/>
      <point x="581.509" y="230.059"/>
      <point x="685.427" y="477.092"/>
      <point x="726.999" y="607.002" type="curve" smooth="yes"/>
      <point x="772.055" y="747.799"/>
      <point x="773.566" y="752.522"/>
      <point x="859.5" y="962.502" type="curve" smooth="yes"/>
      <point x="930.496" y="1135.98"/>
      <point x="943.968" y="1162.64"/>
      <point x="984" y="1222" type="curve" smooth="yes"/>
      <point x="1052.13" y="1323.03"/>
      <point x="1059.28" y="1350.81"/>
      <point x="1034.3" y="1364.34" type="curve" smooth="yes"/>
      <point x="998.977" y="1383.47"/>
      <point x="581.227" y="1416.75"/>
      <point x="435" y="1342.5" type="curve" smooth="yes"/>
      <point x="260.734" y="1254.02"/>
      <point x="222.48" y="1107.13"/>
      <point x="343" y="1000" type="curve" smooth="yes"/>
      <point x="387.929" y="959.284"/>
      <point x="475.269" y="956.66"/>
      <point x="518" y="984.499" type="curve" smooth="yes"/>
      <point x="563.461" y="1014.12"/>
      <point x="578" y="1008.1"/>
    </contour>
  </outline>
</glyph>
<glyph name="U" format="2">
  <advance width="1621"/>
  <unicode hex="0055"/>
  <outline>
    <contour>
      <point x="155.002" y="964.001" type="curve" smooth="yes"/>
      <point x="155.002" y="859.687"/>
      <point x="305.41" y="794.881"/>
      <point x="396.502" y="861.5" type="curve" smooth="yes"/>
      <point x="469.081" y="914.58"/>
      <point x="493.533" y="792.976"/>
      <point x="343.501" y="766.5" type="curve" smooth="yes"/>
      <point x="208.851" y="742.738"/>
      <point x="82.4176" y="805.257"/>
      <point x="61.001" y="882.001" type="curve" smooth="yes"/>
      <point x="43.668" y="940.668"/>
      <point x="35.001" y="979.668"/>
      <point x="35.001" y="999.001" type="curve" smooth="yes"/>
      <point x="35.001" y="1043.31"/>
      <point x="91.0995" y="1143.99"/>
      <point x="108.001" y="1163" type="curve" smooth="yes"/>
      <point x="278.568" y="1372.83"/>
      <point x="518.041" y="1414.95"/>
      <point x="669" y="1268" type="curve" smooth="yes"/>
      <point x="782.294" y="1159.15"/>
      <point x="813.377" y="1073.61"/>
      <point x="682.49" y="679.47" type="curve" smooth="yes"/>
      <point x="564.147" y="323.102"/>
      <point x="536.271" y="177.456"/>
      <point x="569" y="112" type="curve" smooth="yes"/>
      <point x="615.15" y="23.896"/>
      <point x="732.97" y="117.902"/>
      <point x="837" y="290" type="curve" smooth="yes"/>
      <point x="839.15" y="293.6"/>
      <point x="978.23" y="538.976"/>
      <point x="1023.5" y="665.5" type="curve" smooth="yes"/>
      <point x="1055.38" y="754.601"/>
      <point x="1113.17" y="856.08"/>
      <point x="1187" y="1025.5" type="curve" smooth="yes"/>
      <point x="1228.22" y="1120.09"/>
      <point x="1358.42" y="1321.89"/>
      <point x="1479" y="1393" type="curve" smooth="yes"/>
      <point x="1529.49" y="1424.26"/>
      <point x="1529.49" y="1424.26"/>
      <point x="1554" y="1412" type="curve" smooth="yes"/>
      <point x="1601.72" y="1390.19"/>
      <point x="1594.31" y="1336.95"/>
      <point x="1543" y="1314" type="curve" smooth="yes"/>
      <point x="1488.17" y="1289.47"/>
      <point x="1454.37" y="1239.66"/>
      <point x="1376.01" y="1077.5" type="curve" smooth="yes"/>
      <point x="1189.55" y="691.677"/>
      <point x="1112.13" y="209.508"/>
      <point x="1163" y="112.003" type="curve" smooth="yes"/>
      <point x="1232.89" y="-23.1173"/>
      <point x="1393.62" y="232.909"/>
      <point x="1416" y="271.003" type="curve" smooth="yes"/>
      <point x="1473.92" y="369.576"/>
      <point x="1479.66" y="373.764"/>
      <point x="1499" y="371.002" type="curve" smooth="yes"/>
      <point x="1557.67" y="364.019"/>
      <point x="1493.94" y="181.197"/>
      <point x="1326" y="48.0029" type="curve"/>
      <point x="1134.32" y="-98.103"/>
      <point x="982.545" y="-21.822"/>
      <point x="961.001" y="234.003" type="curve" smooth="yes"/>
      <point x="957.001" y="277.336"/>
      <point x="950.468" y="299.003"/>
      <point x="941.401" y="299.003" type="curve" smooth="yes"/>
      <point x="912.092" y="299.003"/>
      <point x="811.189" y="64.6717"/>
      <point x="710.001" y="22.502" type="curve" smooth="yes"/>
      <point x="706.001" y="20.835"/>
      <point x="704.001" y="19.335"/>
      <point x="704.001" y="18.002" type="curve" smooth="yes"/>
      <point x="704.001" y="3.09803"/>
      <point x="630.948" y="-21.998"/>
      <point x="587.002" y="-21.998" type="curve" smooth="yes"/>
      <point x="469.177" y="-21.162"/>
      <point x="306.346" y="39.6215"/>
      <point x="402.002" y="400.501" type="curve" smooth="yes"/>
      <point x="505.371" y="790.478"/>
      <point x="611.681" y="941.411"/>
      <point x="607.002" y="1107.5" type="curve" smooth="yes"/>
      <point x="601.121" y="1316.29"/>
      <point x="359.811" y="1323.53"/>
      <point x="217.002" y="1133.5" type="curve" smooth="yes"/>
      <point x="175.669" y="1078.5"/>
      <point x="155.002" y="1022"/>
    </contour>
  </outline>
</glyph>
<glyph name="V" format="2">
  <advance width="1603"/>
  <unicode hex="0056"/>
  <outline>
    <contour>
      <point x="1467" y="1512" type="curve" smooth="yes"/>
      <point x="1521.11" y="1553.93"/>
      <point x="1568" y="1533.58"/>
      <point x="1568" y="1469" type="curve" smooth="yes"/>
      <point x="1568" y="1417.67"/>
      <point x="1551" y="1392"/>
      <point x="1517" y="1392" type="curve" smooth="yes"/>
      <point x="1391.75" y="1392"/>
      <point x="1221.79" y="1167.83"/>
      <point x="1112" y="852.001" type="curve"/>
      <point x="1103" y="828.001" type="line"/>
      <point x="1006.99" y="561.303"/>
      <point x="1006.99" y="561.303"/>
      <point x="1006" y="558.001" type="curve" smooth="yes"/>
      <point x="930" y="334.668"/>
      <point x="846" y="173.335"/>
      <point x="754" y="74.002" type="curve" smooth="yes"/>
      <point x="641.017" y="-49.251"/>
      <point x="449.256" y="-14.977"/>
      <point x="429.5" y="141.002" type="curve" smooth="yes"/>
      <point x="400.02" y="373.747"/>
      <point x="609.002" y="924.724"/>
      <point x="609.002" y="1099" type="curve" smooth="yes"/>
      <point x="606.436" y="1455.53"/>
      <point x="261.293" y="1340.42"/>
      <point x="170.502" y="1083.5" type="curve" smooth="yes"/>
      <point x="154.835" y="1039.17"/>
      <point x="153.668" y="1004"/>
      <point x="167.001" y="978.003" type="curve" smooth="yes"/>
      <point x="225.744" y="867.509"/>
      <point x="351.221" y="857.964"/>
      <point x="429.001" y="932.503" type="curve" smooth="yes"/>
      <point x="452.351" y="954.88"/>
      <point x="511.037" y="1005.52"/>
      <point x="507" y="945.003" type="curve" smooth="yes"/>
      <point x="496.394" y="807.138"/>
      <point x="196.585" y="749.348"/>
      <point x="80.9092" y="897.559" type="curve" smooth="yes"/>
      <point x="7.90507" y="991.096"/>
      <point x="-1.47604" y="1174.38"/>
      <point x="230.824" y="1326.39" type="curve" smooth="yes"/>
      <point x="421.02" y="1450.84"/>
      <point x="639.565" y="1431.06"/>
      <point x="745" y="1223" type="curve" smooth="yes"/>
      <point x="808.174" y="1093.65"/>
      <point x="752.604" y="765.113"/>
      <point x="675.999" y="509.002" type="curve" smooth="yes"/>
      <point x="590.114" y="221.866"/>
      <point x="579.389" y="149.129"/>
      <point x="612.999" y="113.503" type="curve" smooth="yes"/>
      <point x="643.112" y="81.5832"/>
      <point x="666.048" y="89.7746"/>
      <point x="745.998" y="184.002" type="curve" smooth="yes"/>
      <point x="828.832" y="281.629"/>
      <point x="995.708" y="705.292"/>
      <point x="1049" y="888.001" type="curve"/>
      <point x="1162.43" y="1204.27"/>
      <point x="1265.75" y="1356.49"/>
    </contour>
  </outline>
</glyph>
<glyph name="W" format="2">
  <advance width="2205"/>
  <unicode hex="0057"/>
  <outline>
    <contour>
      <point x="1776" y="1298" type="curve" smooth="yes"/>
      <point x="1829.61" y="1379.35"/>
      <point x="2004.98" y="1539.29"/>
      <point x="2065.5" y="1550.5" type="curve" smooth="yes"/>
      <point x="2083.72" y="1553.87"/>
      <point x="2148.53" y="1531.24"/>
      <point x="2161" y="1516" type="curve" smooth="yes"/>
      <point x="2167" y="1508.66"/>
      <point x="2170" y="1494.16"/>
      <point x="2170" y="1472.5" type="curve" smooth="yes"/>
      <point x="2170" y="1427.14"/>
      <point x="2159.9" y="1420.39"/>
      <point x="2101.5" y="1429" type="curve" smooth="yes"/>
      <point x="2056.21" y="1435.67"/>
      <point x="1851.57" y="1377.56"/>
      <point x="1704.5" y="987.497" type="curve" smooth="yes"/>
      <point x="1666.17" y="885.83"/>
      <point x="1623.67" y="760.997"/>
      <point x="1577" y="612.997" type="curve" smooth="yes"/>
      <point x="1473.95" y="286.178"/>
      <point x="1366.62" y="95.1777"/>
      <point x="1255" y="39.9971" type="curve" smooth="yes"/>
      <point x="1177.61" y="1.30258"/>
      <point x="968.949" y="-85.6995"/>
      <point x="967.002" y="248.998" type="curve" smooth="yes"/>
      <point x="967.002" y="382.907"/>
      <point x="959.387" y="380.309"/>
      <point x="925.002" y="322.998" type="curve" smooth="yes"/>
      <point x="789.782" y="94.0609"/>
      <point x="697.08" y="16.998"/>
      <point x="569.004" y="16.998" type="curve" smooth="yes"/>
      <point x="367.004" y="16.998"/>
      <point x="327.671" y="205.331"/>
      <point x="451.004" y="581.998" type="curve" smooth="yes"/>
      <point x="500.337" y="734.665"/>
      <point x="539.17" y="846.665"/>
      <point x="567.503" y="917.998" type="curve" smooth="yes"/>
      <point x="736.793" y="1344.21"/>
      <point x="435.595" y="1424.58"/>
      <point x="234.002" y="1184.5" type="curve" smooth="yes"/>
      <point x="213.831" y="1160.48"/>
      <point x="72.3182" y="982.869"/>
      <point x="225.002" y="900.497" type="curve" smooth="yes"/>
      <point x="250.335" y="886.83"/>
      <point x="279.668" y="879.997"/>
      <point x="313.001" y="879.997" type="curve" smooth="yes"/>
      <point x="403.118" y="879.997"/>
      <point x="439.906" y="953.845"/>
      <point x="467.771" y="914.037" type="curve" smooth="yes"/>
      <point x="503.928" y="862.382"/>
      <point x="300.425" y="720.136"/>
      <point x="112.499" y="868.497" type="curve" smooth="yes"/>
      <point x="-138.235" y="1066.44"/>
      <point x="269.039" y="1471.46"/>
      <point x="553.999" y="1381" type="curve"/>
      <point x="736.679" y="1327.27"/>
      <point x="819.264" y="1160.27"/>
      <point x="762.999" y="961.998" type="curve"/>
      <point x="682.289" y="639.157"/>
      <point x="537.864" y="303.515"/>
      <point x="555.999" y="170.998" type="curve" smooth="yes"/>
      <point x="561.332" y="131.665"/>
      <point x="582.332" y="111.998"/>
      <point x="618.999" y="111.998" type="curve" smooth="yes"/>
      <point x="620.832" y="111.998"/>
      <point x="683.083" y="119.516"/>
      <point x="768.499" y="217.998" type="curve" smooth="yes"/>
      <point x="823.425" y="281.326"/>
      <point x="991.425" y="597.433"/>
      <point x="1040.5" y="747.498" type="curve" smooth="yes"/>
      <point x="1084.52" y="882.127"/>
      <point x="1104.73" y="905.998"/>
      <point x="1165" y="905.998" type="curve" smooth="yes"/>
      <point x="1284.12" y="905.998"/>
      <point x="1269" y="788.943"/>
      <point x="1239.5" y="714.498" type="curve" smooth="yes"/>
      <point x="1237.23" y="708.763"/>
      <point x="1055.57" y="158.373"/>
      <point x="1162" y="102.499" type="curve" smooth="yes"/>
      <point x="1189.46" y="88.0809"/>
      <point x="1215.51" y="102.044"/>
      <point x="1280" y="164" type="curve" smooth="yes"/>
      <point x="1474" y="350.396"/>
      <point x="1576.29" y="992.979"/>
    </contour>
  </outline>
</glyph>
<glyph name="X" format="2">
  <advance width="1569"/>
  <unicode hex="0058"/>
  <outline>
    <contour>
      <point x="1427" y="1478" type="line"/>
      <point x="1484.76" y="1518.43"/>
      <point x="1563.95" y="1459.32"/>
      <point x="1520" y="1383" type="curve"/>
      <point x="1474.43" y="1316.7"/>
      <point x="1342.6" y="1386.28"/>
      <point x="1064.01" y="955.003" type="curve" smooth="yes"/>
      <point x="994.673" y="847.67"/>
      <point x="952.506" y="783.67"/>
      <point x="937.506" y="763.003" type="curve" smooth="yes"/>
      <point x="909.816" y="724.852"/>
      <point x="909.635" y="722.626"/>
      <point x="923.506" y="646.003" type="curve" smooth="yes"/>
      <point x="930.506" y="607.336"/>
      <point x="941.339" y="541.336"/>
      <point x="956.006" y="448.003" type="curve" smooth="yes"/>
      <point x="1013.1" y="78.1976"/>
      <point x="1075.94" y="36.1503"/>
      <point x="1180.01" y="124.002" type="curve" smooth="yes"/>
      <point x="1212.55" y="149.474"/>
      <point x="1321.87" y="300.574"/>
      <point x="1343.5" y="344.501" type="curve" smooth="yes"/>
      <point x="1367.64" y="393.501"/>
      <point x="1390.14" y="418.001"/>
      <point x="1411" y="418.001" type="curve" smooth="yes"/>
      <point x="1499.67" y="418.001"/>
      <point x="1287.51" y="82.6384"/>
      <point x="1164" y="25.001" type="curve" smooth="yes"/>
      <point x="1002.44" y="-48.783"/>
      <point x="863.725" y="71.5157"/>
      <point x="773.006" y="433.001" type="curve" smooth="yes"/>
      <point x="753.709" y="504.928"/>
      <point x="742.189" y="490.659"/>
      <point x="604.007" y="319.501" type="curve" smooth="yes"/>
      <point x="601.454" y="316.339"/>
      <point x="445.894" y="127.928"/>
      <point x="308.508" y="40.5" type="curve" smooth="yes"/>
      <point x="204.358" y="-25.777"/>
      <point x="35.0068" y="-68.6331"/>
      <point x="35.0068" y="3.99902" type="curve" smooth="yes"/>
      <point x="35.0068" y="19.999"/>
      <point x="42.3398" y="29.999"/>
      <point x="57.0068" y="33.999" type="curve" smooth="yes"/>
      <point x="205.594" y="75.5527"/>
      <point x="305.927" y="120.553"/>
      <point x="358.006" y="168.999" type="curve" smooth="yes"/>
      <point x="395.339" y="202.332"/>
      <point x="426.077" y="228.699"/>
      <point x="450.221" y="248.101" type="curve" smooth="yes"/>
      <point x="474.364" y="267.502"/>
      <point x="493.197" y="286.335"/>
      <point x="506.721" y="304.601" type="curve" smooth="yes"/>
      <point x="570.635" y="390.933"/>
      <point x="659.229" y="476.3"/>
      <point x="698.506" y="561.499" type="curve" smooth="yes"/>
      <point x="720.173" y="608.499"/>
      <point x="726.673" y="655.166"/>
      <point x="718.006" y="701.499" type="curve" smooth="yes"/>
      <point x="709.339" y="747.832"/>
      <point x="699.339" y="818.165"/>
      <point x="688.006" y="912.498" type="curve" smooth="yes"/>
      <point x="667.477" y="1083.38"/>
      <point x="596.148" y="1266.44"/>
      <point x="494.005" y="1300" type="curve" smooth="yes"/>
      <point x="281.629" y="1370.79"/>
      <point x="114.462" y="1041.31"/>
      <point x="264.929" y="904.988" type="curve" smooth="yes"/>
      <point x="358.621" y="820.104"/>
      <point x="474.323" y="971.839"/>
      <point x="509.004" y="928.996" type="curve" smooth="yes"/>
      <point x="540.751" y="889.777"/>
      <point x="378.124" y="733.5"/>
      <point x="195.501" y="839.498" type="curve" smooth="yes"/>
      <point x="57.5996" y="919.539"/>
      <point x="66.7784" y="1048.39"/>
      <point x="67.501" y="1056.5" type="curve" smooth="yes"/>
      <point x="81.2728" y="1211.05"/>
      <point x="281.569" y="1492.84"/>
      <point x="572.001" y="1372" type="curve" smooth="yes"/>
      <point x="824.074" y="1266.97"/>
      <point x="853.917" y="870.539"/>
      <point x="889.001" y="853" type="curve" smooth="yes"/>
      <point x="919.237" y="833.562"/>
      <point x="1084.84" y="1136.78"/>
      <point x="1169.5" y="1226.5" type="curve" smooth="yes"/>
      <point x="1242.21" y="1303.55"/>
      <point x="1231.18" y="1307.43"/>
      <point x="1320" y="1386" type="curve" smooth="yes"/>
      <point x="1343.53" y="1406.82"/>
      <point x="1409.1" y="1463.22"/>
      <point x="1410" y="1464" type="curve" smooth="yes"/>
    </contour>
  </outline>
</glyph>
<glyph name="Y" format="2">
  <advance width="1638"/>
  <unicode hex="0059"/>
  <outline>
    <contour>
      <point x="601.499" y="398.004" type="curve" smooth="yes"/>
      <point x="526.267" y="398.004"/>
      <point x="457.999" y="476.522"/>
      <point x="457.999" y="540.004" type="curve" smooth="yes"/>
      <point x="457.999" y="766.614"/>
      <point x="795.592" y="1209.48"/>
      <point x="616" y="1363" type="curve" smooth="yes"/>
      <point x="522.961" y="1442.56"/>
      <point x="337.923" y="1414.65"/>
      <point x="251" y="1306" type="curve" smooth="yes"/>
      <point x="209" y="1254" type="line"/>
      <point x="93.5125" y="1132.22"/>
      <point x="138.68" y="983.209"/>
      <point x="270.5" y="969.501" type="curve" smooth="yes"/>
      <point x="354.215" y="960.795"/>
      <point x="372.014" y="966.014"/>
      <point x="415.5" y="1009.5" type="curve" smooth="yes"/>
      <point x="460.838" y="1054.84"/>
      <point x="504.133" y="1038.5"/>
      <point x="463" y="969" type="curve" smooth="yes"/>
      <point x="361.976" y="799.192"/>
      <point x="103.99" y="900.712"/>
      <point x="54.5" y="1003.5" type="curve" smooth="yes"/>
      <point x="41.5" y="1030.5"/>
      <point x="35.001" y="1069"/>
      <point x="35.001" y="1119" type="curve" smooth="yes"/>
      <point x="35.001" y="1423.57"/>
      <point x="517.796" y="1626.61"/>
      <point x="750.002" y="1388.5" type="curve" smooth="yes"/>
      <point x="877.297" y="1257.97"/>
      <point x="852.083" y="1104.65"/>
      <point x="704.5" y="758.504" type="curve" smooth="yes"/>
      <point x="607.677" y="531.409"/>
      <point x="637.512" y="501.326"/>
      <point x="731.501" y="549.504" type="curve" smooth="yes"/>
      <point x="791.582" y="580.301"/>
      <point x="835.038" y="618.622"/>
      <point x="944.501" y="785.004" type="curve" smooth="yes"/>
      <point x="946.461" y="787.984"/>
      <point x="1142" y="1081.95"/>
      <point x="1142" y="1082" type="curve" smooth="yes"/>
      <point x="1219.33" y="1200.67"/>
      <point x="1294" y="1297.84"/>
      <point x="1366" y="1373.5" type="curve" smooth="yes"/>
      <point x="1438" y="1449.17"/>
      <point x="1490" y="1487"/>
      <point x="1522" y="1487" type="curve" smooth="yes"/>
      <point x="1592.71" y="1487"/>
      <point x="1619.55" y="1423.69"/>
      <point x="1594" y="1403.01" type="curve" smooth="yes"/>
      <point x="1563.68" y="1372.69"/>
      <point x="1515.36" y="1430.83"/>
      <point x="1423" y="1239.01" type="curve" smooth="yes"/>
      <point x="1371" y="1133.01"/>
      <point x="1320" y="982.006"/>
      <point x="1270" y="786.006" type="curve"/>
      <point x="1214" y="583.339"/>
      <point x="1177.67" y="449.339"/>
      <point x="1161" y="384.006" type="curve" smooth="yes"/>
      <point x="1129.94" y="262.245"/>
      <point x="1013.08" y="-31.4685"/>
      <point x="958" y="-87.9941" type="curve" smooth="yes"/>
      <point x="950.667" y="-95.3271"/>
      <point x="947" y="-102.994"/>
      <point x="947" y="-110.994" type="curve" smooth="yes"/>
      <point x="947" y="-126.943"/>
      <point x="794.14" y="-268.925"/>
      <point x="745.999" y="-292.994" type="curve" smooth="yes"/>
      <point x="404.524" y="-459.497"/>
      <point x="72.221" y="-134.161"/>
      <point x="254.999" y="140.006" type="curve" smooth="yes"/>
      <point x="258.549" y="145.331"/>
      <point x="336.093" y="259.006"/>
      <point x="486.499" y="259.006" type="curve" smooth="yes"/>
      <point x="621.351" y="259.006"/>
      <point x="617.73" y="213.119"/>
      <point x="535.999" y="177.005" type="curve" smooth="yes"/>
      <point x="389.906" y="114.779"/>
      <point x="314.933" y="-25.8897"/>
      <point x="369.999" y="-131.995" type="curve" smooth="yes"/>
      <point x="443.64" y="-276.597"/>
      <point x="579.692" y="-298.303"/>
      <point x="697" y="-180.995" type="curve" smooth="yes"/>
      <point x="768.161" y="-109.834"/>
      <point x="884.415" y="97.6715"/>
      <point x="944.283" y="304.91" type="curve" smooth="yes"/>
      <point x="971.806" y="400.181"/>
      <point x="1007.97" y="522.181"/>
      <point x="1052.78" y="670.91" type="curve" smooth="yes"/>
      <point x="1097.59" y="819.64"/>
      <point x="1112.67" y="894.005"/>
      <point x="1098" y="894.005" type="curve" smooth="yes"/>
      <point x="1076.09" y="895.998"/>
      <point x="1055.1" y="800.345"/>
      <point x="877.001" y="557.005" type="curve" smooth="yes"/>
      <point x="833.868" y="498.648"/>
      <point x="678.176" y="398.004"/>
    </contour>
  </outline>
</glyph>
<glyph name="Z" format="2">
  <advance width="1603"/>
  <unicode hex="005A"/>
  <outline>
    <contour>
      <point x="350" y="254.5" type="curve" smooth="yes"/>
      <point x="379.048" y="289.601"/>
      <point x="284.383" y="327.023"/>
      <point x="182.5" y="279.999" type="curve" smooth="yes"/>
      <point x="108.217" y="245.714"/>
      <point x="134.953" y="203.924"/>
      <point x="151" y="195.499" type="curve" smooth="yes"/>
      <point x="208.924" y="165.089"/>
      <point x="332.951" y="233.898"/>
    </contour>
    <contour>
      <point x="1411" y="1355" type="curve" smooth="yes"/>
      <point x="1461.38" y="1341.86"/>
      <point x="1479.18" y="1404.65"/>
      <point x="1416" y="1410.5" type="curve" smooth="yes"/>
      <point x="1370.81" y="1414.69"/>
      <point x="1363.33" y="1368.24"/>
    </contour>
    <contour>
      <point x="1084" y="1418.5" type="curve" smooth="yes"/>
      <point x="1152.35" y="1397.99"/>
      <point x="1166.31" y="1400.24"/>
      <point x="1259.5" y="1446.5" type="curve" smooth="yes"/>
      <point x="1469.62" y="1550.81"/>
      <point x="1592.77" y="1450.44"/>
      <point x="1563" y="1379" type="curve" smooth="yes"/>
      <point x="1529.78" y="1297.24"/>
      <point x="1469.92" y="1276.76"/>
      <point x="1301" y="1304" type="curve" smooth="yes"/>
      <point x="1254.05" y="1312.05"/>
      <point x="1222.75" y="1278.09"/>
      <point x="1099" y="1069.5" type="curve" smooth="yes"/>
      <point x="994.244" y="892.93"/>
      <point x="988.71" y="828.004"/>
      <point x="1049.5" y="828.004" type="curve" smooth="yes"/>
      <point x="1065.7" y="828.004"/>
      <point x="1116.78" y="824.649"/>
      <point x="1096" y="781.004" type="curve" smooth="yes"/>
      <point x="1070.43" y="719.34"/>
      <point x="975.588" y="783.256"/>
      <point x="937.501" y="752.004" type="curve" smooth="yes"/>
      <point x="901.495" y="722.459"/>
      <point x="845.921" y="547.346"/>
      <point x="791" y="497.003" type="curve" smooth="yes"/>
      <point x="779.914" y="485.917"/>
      <point x="706.687" y="384.549"/>
      <point x="650" y="323.003" type="curve" smooth="yes"/>
      <point x="604.408" y="273.503"/>
      <point x="609.898" y="257.337"/>
      <point x="690.497" y="226.393" type="curve" smooth="yes"/>
      <point x="824.197" y="175.06"/>
      <point x="1049.81" y="11.1959"/>
      <point x="1224" y="-0.99707" type="curve" smooth="yes"/>
      <point x="1290.67" y="-5.66406"/>
      <point x="1342.83" y="17.3359"/>
      <point x="1380.5" y="68.0029" type="curve" smooth="yes"/>
      <point x="1442.14" y="150.91"/>
      <point x="1459.42" y="163.157"/>
      <point x="1475" y="132.003" type="curve" smooth="yes"/>
      <point x="1498.18" y="89.7375"/>
      <point x="1358.3" y="-81.9099"/>
      <point x="1281" y="-103.997" type="curve" smooth="yes"/>
      <point x="1251.63" y="-112.04"/>
      <point x="1083.96" y="-145.088"/>
      <point x="800.001" y="47.002" type="curve" smooth="yes"/>
      <point x="717.21" y="102.196"/>
      <point x="551.023" y="182.642"/>
      <point x="511.501" y="188.002" type="curve" smooth="yes"/>
      <point x="417.775" y="200.712"/>
      <point x="332.103" y="87.6142"/>
      <point x="178.003" y="98.501" type="curve" smooth="yes"/>
      <point x="11.7918" y="110.243"/>
      <point x="-32.7837" y="305.957"/>
      <point x="169.002" y="364.501" type="curve" smooth="yes"/>
      <point x="325.159" y="409.807"/>
      <point x="444.27" y="317.194"/>
      <point x="482.503" y="367.501" type="curve" smooth="yes"/>
      <point x="539.878" y="442.996"/>
      <point x="703.527" y="735.303"/>
      <point x="696.003" y="758.5" type="curve" smooth="yes"/>
      <point x="684.274" y="794.663"/>
      <point x="583.003" y="741.511"/>
      <point x="583.003" y="806" type="curve" smooth="yes"/>
      <point x="583.003" y="837.002"/>
      <point x="646.338" y="850.396"/>
      <point x="689.003" y="827" type="curve" smooth="yes"/>
      <point x="718.336" y="810.333"/>
      <point x="753.669" y="836.333"/>
      <point x="795.002" y="905" type="curve" smooth="yes"/>
      <point x="910.335" y="1099.67"/>
      <point x="984.668" y="1215.33"/>
      <point x="1018" y="1252" type="curve" smooth="yes"/>
      <point x="1110.35" y="1353.59"/>
      <point x="1090.95" y="1364.64"/>
      <point x="803.999" y="1374.5" type="curve" smooth="yes"/>
      <point x="677.467" y="1378.85"/>
      <point x="490.269" y="1385.28"/>
      <point x="398.001" y="1252" type="curve" smooth="yes"/>
      <point x="310.747" y="1125.97"/>
      <point x="396.058" y="1028.04"/>
      <point x="490.501" y="1015.5" type="curve" smooth="yes"/>
      <point x="594.539" y="1001.69"/>
      <point x="546.756" y="933"/>
      <point x="467.001" y="933" type="curve" smooth="yes"/>
      <point x="151.855" y="933"/>
      <point x="60.0962" y="1482"/>
      <point x="630.001" y="1482" type="curve" smooth="yes"/>
      <point x="743.549" y="1482"/>
      <point x="1015.88" y="1438.94"/>
    </contour>
  </outline>
</glyph>
<glyph name="bracketleft" format="2">
  <advance width="959"/>
  <unicode hex="005B"/>
  <outline>
    <contour>
      <point x="614" y="1287" type="curve" smooth="yes"/>
      <point x="630.488" y="1290.8"/>
      <point x="862.181" y="1317.4"/>
      <point x="904" y="1288.5" type="curve" smooth="yes"/>
      <point x="948.413" y="1257.8"/>
      <point x="909.019" y="1202.12"/>
      <point x="834.219" y="1224.43" type="curve" smooth="yes"/>
      <point x="769.321" y="1243.78"/>
      <point x="724.877" y="1205.26"/>
      <point x="676.999" y="1056" type="curve" smooth="yes"/>
      <point x="675.047" y="1050.36"/>
      <point x="726.85" y="1206.43"/>
      <point x="473.499" y="495" type="curve" smooth="yes"/>
      <point x="311.13" y="39.0534"/>
      <point x="311.13" y="39.0534"/>
      <point x="281.999" y="-31.5" type="curve" smooth="yes"/>
      <point x="232.659" y="-150.995"/>
      <point x="233.992" y="-213.162"/>
      <point x="285.999" y="-218" type="curve" smooth="yes"/>
      <point x="346.238" y="-222.203"/>
      <point x="354.654" y="-228.417"/>
      <point x="350.999" y="-254" type="curve" smooth="yes"/>
      <point x="345.413" y="-293.101"/>
      <point x="276.345" y="-288.167"/>
      <point x="127" y="-277.5" type="curve" smooth="yes"/>
      <point x="56.3871" y="-272.456"/>
      <point x="4.50269" y="-259.913"/>
      <point x="59" y="-115.499" type="curve" smooth="yes"/>
      <point x="107.732" y="13.6369"/>
      <point x="508.244" y="1152.75"/>
      <point x="551.705" y="1228.61" type="curve" smooth="yes"/>
      <point x="570.568" y="1261.54"/>
      <point x="591.333" y="1281"/>
    </contour>
  </outline>
</glyph>
<glyph name="backslash" format="2">
  <advance width="950"/>
  <unicode hex="005C"/>
  <outline>
    <contour>
      <point x="35" y="1529" type="curve" smooth="yes"/>
      <point x="43.1352" y="1547.98"/>
      <point x="87.1507" y="1547.41"/>
      <point x="105.001" y="1527.5" type="curve" smooth="yes"/>
      <point x="132.402" y="1496.94"/>
      <point x="115.023" y="1491.09"/>
      <point x="448.501" y="891" type="curve" smooth="yes"/>
      <point x="578.168" y="657.667"/>
      <point x="670.168" y="488.167"/>
      <point x="724.501" y="382.5" type="curve" smooth="yes"/>
      <point x="778.834" y="276.833"/>
      <point x="816.334" y="209.333"/>
      <point x="837.001" y="180" type="curve" smooth="yes"/>
      <point x="891.668" y="99.333"/>
      <point x="917.668" y="39.666"/>
      <point x="915.001" y="0.999023" type="curve" smooth="yes"/>
      <point x="913.668" y="-16.334"/>
      <point x="905.835" y="-25.001"/>
      <point x="891.502" y="-25.001" type="curve" smooth="yes"/>
      <point x="844.897" y="-25.001"/>
      <point x="678.777" y="333.722"/>
      <point x="632.001" y="404.999" type="curve" smooth="yes"/>
      <point x="625.248" y="415.289"/>
      <point x="22.5079" y="1489.96"/>
    </contour>
  </outline>
</glyph>
<glyph name="bracketright" format="2">
  <advance width="994"/>
  <unicode hex="005D"/>
  <outline>
    <contour>
      <point x="645" y="1334" type="curve" smooth="yes"/>
      <point x="647.895" y="1334.55"/>
      <point x="849.143" y="1369.16"/>
      <point x="938.998" y="1313" type="curve" smooth="yes"/>
      <point x="981.704" y="1286.31"/>
      <point x="941.469" y="1193.61"/>
      <point x="920.729" y="1145.83" type="curve" smooth="yes"/>
      <point x="857.438" y="1000.02"/>
      <point x="674.998" y="504.798"/>
      <point x="674.998" y="497.868" type="curve" smooth="yes"/>
      <point x="674.998" y="492.661"/>
      <point x="568.474" y="213.596"/>
      <point x="495.713" y="8.94629" type="curve" smooth="yes"/>
      <point x="444.555" y="-134.94"/>
      <point x="409.678" y="-219.982"/>
      <point x="390" y="-249.5" type="curve" smooth="yes"/>
      <point x="372.941" y="-275.089"/>
      <point x="324.01" y="-277.216"/>
      <point x="179.5" y="-283.498" type="curve" smooth="yes"/>
      <point x="53.269" y="-288.986"/>
      <point x="23.4856" y="-256.667"/>
      <point x="39" y="-236.498" type="curve" smooth="yes"/>
      <point x="49" y="-223.498"/>
      <point x="74.667" y="-216.998"/>
      <point x="116" y="-216.998" type="curve" smooth="yes"/>
      <point x="197.621" y="-216.998"/>
      <point x="227.684" y="-198.106"/>
      <point x="254" y="-130.998" type="curve" smooth="yes"/>
      <point x="258.799" y="-121.396"/>
      <point x="368.938" y="201.532"/>
      <point x="619" y="878.502" type="curve" smooth="yes"/>
      <point x="693" y="1078.83"/>
      <point x="732" y="1193.17"/>
      <point x="736" y="1221.5" type="curve" smooth="yes"/>
      <point x="743.553" y="1275"/>
      <point x="719.136" y="1275"/>
      <point x="658.5" y="1275" type="curve" smooth="yes"/>
      <point x="628.167" y="1275"/>
      <point x="609.334" y="1280"/>
      <point x="602.001" y="1290" type="curve" smooth="yes"/>
      <point x="589.334" y="1311.33"/>
      <point x="603.667" y="1326"/>
    </contour>
  </outline>
</glyph>
<glyph name="asciicircum" format="2">
  <advance width="959"/>
  <unicode hex="005E"/>
  <outline>
    <contour>
      <point x="523.924" y="1100" type="curve" smooth="yes"/>
      <point x="461.792" y="1100"/>
      <point x="335.797" y="951"/>
      <point x="320" y="951" type="curve" smooth="yes"/>
      <point x="309.091" y="951"/>
      <point x="103.588" y="748.992"/>
      <point x="76.001" y="748.992" type="curve" smooth="yes"/>
      <point x="52.8705" y="748.992"/>
      <point x="30.3916" y="773.986"/>
      <point x="36.501" y="792.992" type="curve" smooth="yes"/>
      <point x="42.5525" y="811.819"/>
      <point x="206.191" y="977.942"/>
      <point x="269.001" y="1027.49" type="curve" smooth="yes"/>
      <point x="347.451" y="1089.38"/>
      <point x="398.277" y="1148.93"/>
      <point x="439.501" y="1177" type="curve" smooth="yes"/>
      <point x="455.168" y="1187.66"/>
      <point x="471.835" y="1201.33"/>
      <point x="489.502" y="1218" type="curve" smooth="yes"/>
      <point x="523.372" y="1249.95"/>
      <point x="549.539" y="1245.62"/>
      <point x="568.003" y="1205" type="curve" smooth="yes"/>
      <point x="579.336" y="1179.66"/>
      <point x="589.836" y="1161.83"/>
      <point x="599.503" y="1151.5" type="curve" smooth="yes"/>
      <point x="633.6" y="1115.05"/>
      <point x="781.097" y="902.732"/>
      <point x="876.004" y="803" type="curve" smooth="yes"/>
      <point x="946.185" y="729.251"/>
      <point x="930.45" y="692"/>
      <point x="892.503" y="692" type="curve" smooth="yes"/>
      <point x="820.533" y="692"/>
      <point x="566.142" y="1100"/>
    </contour>
  </outline>
</glyph>
<glyph name="underscore" format="2">
  <advance width="1081"/>
  <unicode hex="005F"/>
  <outline>
    <contour>
      <point x="71.999" y="-34" type="curve" smooth="yes"/>
      <point x="24.7927" y="-13.3477"/>
      <point x="26.164" y="30.9798"/>
      <point x="48.998" y="42.998" type="curve" smooth="yes"/>
      <point x="76.0755" y="57.2497"/>
      <point x="1014.77" y="54.7053"/>
      <point x="1031.5" y="44" type="curve" smooth="yes"/>
      <point x="1049.32" y="32.5938"/>
      <point x="1051.82" y="9.26074"/>
      <point x="1039" y="-26" type="curve" smooth="yes"/>
      <point x="1029.02" y="-51.6527"/>
      <point x="114.735" y="-52.6967"/>
    </contour>
  </outline>
</glyph>
<glyph name="grave" format="2">
  <advance width="262"/>
  <unicode hex="0060"/>
  <outline>
    <contour>
      <point x="46" y="1453" type="curve" smooth="yes"/>
      <point x="80.4654" y="1497.8"/>
      <point x="116.231" y="1471.6"/>
      <point x="214" y="1255" type="curve" smooth="yes"/>
      <point x="224.667" y="1231"/>
      <point x="227.667" y="1213.67"/>
      <point x="223" y="1203" type="curve" smooth="yes"/>
      <point x="204.188" y="1160"/>
      <point x="153.53" y="1280.33"/>
      <point x="85" y="1333.5" type="curve" smooth="yes"/>
      <point x="55.7858" y="1356.17"/>
      <point x="14.5894" y="1413.74"/>
    </contour>
  </outline>
</glyph>
<glyph name="a" format="2">
  <advance width="915"/>
  <unicode hex="0061"/>
  <outline>
    <contour>
      <point x="457" y="508" type="curve" smooth="yes"/>
      <point x="358.446" y="625.836"/>
      <point x="130.52" y="281.441"/>
      <point x="214.266" y="114.967" type="curve" smooth="yes"/>
      <point x="294.665" y="-44.8568"/>
      <point x="539.317" y="412.334"/>
    </contour>
    <contour>
      <point x="511" y="581.997" type="curve" smooth="yes"/>
      <point x="563.328" y="581.997"/>
      <point x="616.736" y="639.06"/>
      <point x="667.503" y="594.812" type="curve" smooth="yes"/>
      <point x="709.712" y="558.024"/>
      <point x="711.746" y="520.235"/>
      <point x="649.502" y="381.499" type="curve" smooth="yes"/>
      <point x="560.747" y="183.673"/>
      <point x="575.506" y="68.9971"/>
      <point x="631.002" y="68.9971" type="curve" smooth="yes"/>
      <point x="664.183" y="68.9971"/>
      <point x="782.193" y="217.912"/>
      <point x="805.001" y="270.497" type="curve" smooth="yes"/>
      <point x="845.09" y="362.927"/>
      <point x="873.195" y="332.497"/>
      <point x="880.001" y="307.997" type="curve" smooth="yes"/>
      <point x="886.878" y="279.109"/>
      <point x="816.128" y="139.401"/>
      <point x="778.001" y="103.998" type="curve" smooth="yes"/>
      <point x="775.334" y="101.331"/>
      <point x="764.001" y="87.6641"/>
      <point x="744.001" y="62.9971" type="curve" smooth="yes"/>
      <point x="657.58" y="-46.379"/>
      <point x="517.513" y="-55.354"/>
      <point x="454" y="45.9971" type="curve" smooth="yes"/>
      <point x="377.384" y="167.882"/>
      <point x="293.601" y="-146.046"/>
      <point x="104.725" y="39.7852" type="curve" smooth="yes"/>
      <point x="58.2422" y="85.5176"/>
      <point x="35.001" y="145.152"/>
      <point x="35.001" y="218.69" type="curve" smooth="yes"/>
      <point x="35.001" y="447.876"/>
      <point x="221.319" y="628.982"/>
      <point x="401.5" y="596.997" type="curve" smooth="yes"/>
      <point x="457.833" y="586.997"/>
      <point x="494.333" y="581.997"/>
    </contour>
  </outline>
</glyph>
